  0
SECTION
  2
HEADER
999
BEZARC 1.0.1
  9
$FASTZOOM
 70
0
  9
$FILLMODE
 70
1
  9
$SPLINETYPE
 70
5
  0
ENDSEC
  0
SECTION
  2
ENTITIES
  0
POLYLINE
  8
0
 66
1
 70
1
  0
VERTEX
  8
0
 10
7.72376
 20
4.775826
 42
-0.097092
  0
VERTEX
  8
0
 10
7.690475
 20
4.83266
 42
-0.027915
  0
VERTEX
  8
0
 10
7.670458
 20
4.900367
 42
0.022201
  0
VERTEX
  8
0
 10
7.653409
 20
4.959716
 42
0.079037
  0
VERTEX
  8
0
 10
7.627596
 20
5.009949
 42
0.140141
  0
VERTEX
  8
0
 10
7.58404
 20
5.042798
 42
0.117242
  0
VERTEX
  8
0
 10
7.51376
 20
5.049996
 42
0.157385
  0
VERTEX
  8
0
 10
7.03506
 20
5.569163
 42
0.076954
  0
VERTEX
  8
0
 10
6.370422
 20
5.825829
 42
0.006509
  0
VERTEX
  8
0
 10
6.176599
 20
5.857594
 42
-0.026312
  0
VERTEX
  8
0
 10
5.792922
 20
5.930831
 42
-0.123578
  0
VERTEX
  8
0
 10
5.763362
 20
5.91182
 42
-0.187737
  0
VERTEX
  8
0
 10
5.739469
 20
5.913919
 42
-0.097021
  0
VERTEX
  8
0
 10
5.719267
 20
5.93021
 42
-0.024438
  0
VERTEX
  8
0
 10
5.70078
 20
5.953776
 42
0.075112
  0
VERTEX
  8
0
 10
5.667557
 20
5.991049
 42
0.294875
  0
VERTEX
  8
0
 10
5.623753
 20
5.994997
 42
-0.022366
  0
VERTEX
  8
0
 10
5.346244
 20
6.28132
 42
0.01364
  0
VERTEX
  8
0
 10
5.142501
 20
6.496665
 42
-0.145396
  0
VERTEX
  8
0
 10
5.129343
 20
6.519234
 42
-0.051646
  0
VERTEX
  8
0
 10
5.126389
 20
6.544024
 42
0.085726
  0
VERTEX
  8
0
 10
5.121823
 20
6.572437
 42
0.218931
  0
VERTEX
  8
0
 10
5.098751
 20
6.592915
 42
0.05575
  0
VERTEX
  8
0
 10
3.366247
 20
6.677501
 42
0.136551
  0
VERTEX
  8
0
 10
2.129394
 20
6.281379
 42
0.062373
  0
VERTEX
  8
0
 10
1.26624
 20
5.469996
 42
-0.043984
  0
VERTEX
  8
0
 10
1.169478
 20
5.442592
 42
0.087885
  0
VERTEX
  8
0
 10
1.043664
 20
5.399527
 42
0.125506
  0
VERTEX
  8
0
 10
1.001335
 20
5.354255
 42
0.117221
  0
VERTEX
  8
0
 10
0.983324
 20
5.280411
 42
0.02656
  0
VERTEX
  8
0
 10
1.023293
 20
5.28052
 42
-0.031546
  0
VERTEX
  8
0
 10
1.068346
 20
5.28033
 42
-0.110198
  0
VERTEX
  8
0
 10
1.10874
 20
5.268746
  0
VERTEX
  8
0
 10
1.04749
 20
4.997494
 42
-0.073398
  0
VERTEX
  8
0
 10
1.019417
 20
4.927494
 42
-0.102172
  0
VERTEX
  8
0
 10
0.9954
 20
4.901517
 42
-0.168652
  0
VERTEX
  8
0
 10
0.962907
 20
4.892493
 42
-0.370946
  0
VERTEX
  8
0
 10
0.910396
 20
4.940935
 42
-0.068718
  0
VERTEX
  8
0
 10
0.910416
 20
5.036717
 42
0.015175
  0
VERTEX
  8
0
 10
0.913688
 20
5.087265
 42
0.058937
  0
VERTEX
  8
0
 10
0.910406
 20
5.131662
  0
VERTEX
  8
0
 10
0.866656
 20
5.131662
 42
0.1601
  0
VERTEX
  8
0
 10
0.768583
 20
5.035047
 42
0.070561
  0
VERTEX
  8
0
 10
0.720822
 20
4.901244
 42
0.267908
  0
VERTEX
  8
0
 10
0.636239
 20
4.723328
 42
0.172795
  0
VERTEX
  8
0
 10
0.669958
 20
4.667602
 42
0.063475
  0
VERTEX
  8
0
 10
0.724218
 20
4.636486
 42
-0.035559
  0
VERTEX
  8
0
 10
0.768449
 20
4.61315
 42
-0.102731
  0
VERTEX
  8
0
 10
0.805407
 20
4.577494
 42
0.197948
  0
VERTEX
  8
0
 10
0.708791
 20
4.538484
 42
0.229723
  0
VERTEX
  8
0
 10
0.679989
 20
4.431661
 42
0.00777
  0
VERTEX
  8
0
 10
1.757669
 20
4.430492
 42
-0.029712
  0
VERTEX
  8
0
 10
1.735785
 20
4.516267
 42
-0.071404
  0
VERTEX
  8
0
 10
1.731488
 20
4.605931
 42
-0.163127
  0
VERTEX
  8
0
 10
1.921302
 20
5.039269
 42
-0.222841
  0
VERTEX
  8
0
 10
2.332422
 20
5.206865
 42
-0.317566
  0
VERTEX
  8
0
 10
2.855195
 20
4.830547
 42
-0.092558
  0
VERTEX
  8
0
 10
2.926588
 20
4.430862
 42
0.005216
  0
VERTEX
  8
0
 10
2.926571
 20
4.427287
 42
0.139259
  0
VERTEX
  8
0
 10
2.926609
 20
4.426903
 42
0.044499
  0
VERTEX
  8
0
 10
2.926694
 20
4.427492
  0
VERTEX
  8
0
 10
5.770453
 20
4.427285
  0
VERTEX
  8
0
 10
5.770453
 20
4.427285
 42
-0.00159
  0
VERTEX
  8
0
 10
5.769869
 20
4.60836
 42
-0.414208
  0
VERTEX
  8
0
 10
6.370804
 20
5.209294
 42
-0.414207
  0
VERTEX
  8
0
 10
6.971736
 20
4.60836
 42
0.007169
  0
VERTEX
  8
0
 10
6.972614
 20
4.562212
 42
-0.035703
  0
VERTEX
  8
0
 10
6.969557
 20
4.432633
 42
-0.004637
  0
VERTEX
  8
0
 10
7.109805
 20
4.4319
 42
0.004656
  0
VERTEX
  8
0
 10
7.248829
 20
4.431174
 42
-0.2767
  0
VERTEX
  8
0
 10
7.329157
 20
4.550272
 42
-0.112446
  0
VERTEX
  8
0
 10
7.472925
 20
4.577494
 42
-0.376944
  0
VERTEX
  8
0
 10
7.509749
 20
4.552702
 42
-0.101988
  0
VERTEX
  8
0
 10
7.51376
 20
4.50166
 42
0.187055
  0
VERTEX
  8
0
 10
7.539416
 20
4.492199
 42
0.072368
  0
VERTEX
  8
0
 10
7.564617
 20
4.497751
 42
-0.042256
  0
VERTEX
  8
0
 10
7.586152
 20
4.503324
 42
-0.11318
  0
VERTEX
  8
0
 10
7.61001
 20
4.50166
 42
0.255143
  0
VERTEX
  8
0
 10
7.713916
 20
4.612494
 42
0.09006
  0
SEQEND
  8
0
  0
POLYLINE
  8
0
 66
1
 70
1
  0
VERTEX
  8
0
 10
5.983233
 20
5.853174
 42
-0.025444
  0
VERTEX
  8
0
 10
6.006871
 20
5.849098
 42
-0.146243
  0
VERTEX
  8
0
 10
6.015585
 20
5.845557
 42
-0.454439
  0
VERTEX
  8
0
 10
6.014413
 20
5.844213
 42
-0.059725
  0
VERTEX
  8
0
 10
6.009591
 20
5.843274
 42
-0.032147
  0
VERTEX
  8
0
 10
5.989106
 20
5.842969
 42
0.090831
  0
VERTEX
  8
0
 10
5.911697
 20
5.834318
 42
0.153303
  0
VERTEX
  8
0
 10
5.845421
 20
5.784996
 42
0.16047
  0
VERTEX
  8
0
 10
5.847638
 20
5.739702
 42
0.159123
  0
VERTEX
  8
0
 10
5.872678
 20
5.712552
 42
0.072882
  0
VERTEX
  8
0
 10
5.910615
 20
5.697875
 42
0.021126
  0
VERTEX
  8
0
 10
5.951525
 20
5.69
 42
-0.000934
  0
VERTEX
  8
0
 10
5.959171
 20
5.688746
 42
-0.000457
  0
VERTEX
  8
0
 10
6.022922
 20
5.677788
 42
0.028983
  0
VERTEX
  8
0
 10
6.484172
 20
5.615829
 42
0.070999
  0
VERTEX
  8
0
 10
6.331842
 20
5.670657
 42
0.02199
  0
VERTEX
  8
0
 10
6.165436
 20
5.697799
 42
-0.013532
  0
VERTEX
  8
0
 10
6.030933
 20
5.718228
 42
-0.041702
  0
VERTEX
  8
0
 10
5.900837
 20
5.752912
 42
-0.403781
  0
VERTEX
  8
0
 10
5.891039
 20
5.77243
 42
-0.15333
  0
VERTEX
  8
0
 10
5.909952
 20
5.795296
 42
-0.087711
  0
VERTEX
  8
0
 10
5.944725
 20
5.812283
 42
-0.129161
  0
VERTEX
  8
0
 10
5.982506
 20
5.814163
 42
-0.089264
  0
VERTEX
  8
0
 10
6.738288
 20
5.677444
 42
-0.127523
  0
VERTEX
  8
0
 10
7.356258
 20
5.236661
 42
0.032533
  0
VERTEX
  8
0
 10
7.388012
 20
5.144455
 42
-0.030653
  0
VERTEX
  8
0
 10
7.41953
 20
5.0536
 42
-0.084954
  0
VERTEX
  8
0
 10
7.429175
 20
4.953744
 42
0.184944
  0
VERTEX
  8
0
 10
7.178343
 20
5.289161
 42
0.002448
  0
VERTEX
  8
0
 10
7.206541
 20
5.257371
 42
-0.033561
  0
VERTEX
  8
0
 10
7.329745
 20
5.105712
 42
-0.109795
  0
VERTEX
  8
0
 10
7.408758
 20
4.92166
 42
-0.047118
  0
VERTEX
  8
0
 10
7.44668
 20
4.880397
 42
-0.115508
  0
VERTEX
  8
0
 10
7.460841
 20
4.850999
 42
-0.240909
  0
VERTEX
  8
0
 10
7.455445
 20
4.831679
 42
-0.136716
  0
VERTEX
  8
0
 10
7.434699
 20
4.820651
 42
-0.07311
  0
VERTEX
  8
0
 10
7.363972
 20
4.816329
 42
-0.015576
  0
VERTEX
  8
0
 10
7.2823
 20
4.823746
 42
0.006659
  0
VERTEX
  8
0
 10
7.244131
 20
4.827718
 42
0.04364
  0
VERTEX
  8
0
 10
7.219175
 20
4.828328
 42
-0.137048
  0
VERTEX
  8
0
 10
7.168378
 20
4.96384
 42
-0.039268
  0
VERTEX
  8
0
 10
7.166335
 20
5.119847
 42
0.015063
  0
VERTEX
  8
0
 10
7.16814
 20
5.218802
 42
0.049803
  0
VERTEX
  8
0
 10
7.157925
 20
5.312496
 42
0.103681
  0
VERTEX
  8
0
 10
7.020208
 20
5.414449
 42
0.027107
  0
VERTEX
  8
0
 10
6.859414
 20
5.482322
 42
-0.014494
  0
VERTEX
  8
0
 10
6.790309
 20
5.509769
 42
-0.036913
  0
VERTEX
  8
0
 10
6.768664
 20
5.521135
 42
-0.139103
  0
VERTEX
  8
0
 10
6.75834
 20
5.531247
 42
0.323294
  0
VERTEX
  8
0
 10
6.674714
 20
5.611138
 42
0.077601
  0
VERTEX
  8
0
 10
6.539636
 20
5.60416
 42
-0.013347
  0
VERTEX
  8
0
 10
6.47871
 20
5.596145
 42
-0.048346
  0
VERTEX
  8
0
 10
6.422922
 20
5.595413
 42
-0.021119
  0
VERTEX
  8
0
 10
6.406168
 20
5.58708
 42
0.039521
  0
VERTEX
  8
0
 10
6.381084
 20
5.573777
 42
0.100571
  0
VERTEX
  8
0
 10
6.358756
 20
5.551662
 42
0.034978
  0
VERTEX
  8
0
 10
6.051669
 20
5.595947
 42
-0.030664
  0
VERTEX
  8
0
 10
5.760838
 20
5.636246
 42
-0.190577
  0
VERTEX
  8
0
 10
5.77688
 20
5.763851
 42
-0.065373
  0
VERTEX
  8
0
 10
5.854171
 20
5.876142
 42
-0.021133
  0
VERTEX
  8
0
 10
5.927642
 20
5.863246
 42
0.018769
  0
SEQEND
  8
0
  0
POLYLINE
  8
0
 66
1
 70
1
  0
VERTEX
  8
0
 10
5.127918
 20
6.487186
 42
0.000219
  0
VERTEX
  8
0
 10
5.193511
 20
6.41836
 42
-0.000767
  0
VERTEX
  8
0
 10
5.601149
 20
5.989893
 42
-0.109155
  0
VERTEX
  8
0
 10
5.585559
 20
5.979271
 42
-0.026548
  0
VERTEX
  8
0
 10
5.564633
 20
5.971718
 42
0.044586
  0
VERTEX
  8
0
 10
5.536952
 20
5.960982
 42
0.178922
  0
VERTEX
  8
0
 10
5.518753
 20
5.942497
 42
0.19409
  0
VERTEX
  8
0
 10
5.521894
 20
5.930382
 42
0.091639
  0
VERTEX
  8
0
 10
5.532937
 20
5.920121
 42
0.045007
  0
VERTEX
  8
0
 10
5.565869
 20
5.903685
 42
-0.024031
  0
VERTEX
  8
0
 10
5.585458
 20
5.894615
 42
-0.20633
  0
VERTEX
  8
0
 10
5.594481
 20
5.885995
 42
-0.241987
  0
VERTEX
  8
0
 10
5.592688
 20
5.881586
 42
-0.088077
  0
VERTEX
  8
0
 10
5.585441
 20
5.876966
 42
-0.048507
  0
VERTEX
  8
0
 10
5.550836
 20
5.866665
 42
-0.219833
  0
VERTEX
  8
0
 10
5.336278
 20
5.94219
 42
-0.094954
  0
VERTEX
  8
0
 10
5.180419
 20
6.15186
 42
-0.074199
  0
VERTEX
  8
0
 10
5.104038
 20
6.374063
 42
-0.083019
  0
VERTEX
  8
0
 10
5.102147
 20
6.45186
 42
-0.307512
  0
SEQEND
  8
0
  0
POLYLINE
  8
0
 66
1
 70
1
  0
VERTEX
  8
0
 10
2.149993
 20
6.245832
 42
-0.068317
  0
VERTEX
  8
0
 10
2.195469
 20
6.177448
 42
-0.099445
  0
VERTEX
  8
0
 10
2.21082
 20
6.11698
 42
-0.153718
  0
VERTEX
  8
0
 10
2.175029
 20
6.006979
 42
-0.215723
  0
VERTEX
  8
0
 10
1.96916
 20
5.878331
 42
-0.169543
  0
VERTEX
  8
0
 10
1.875097
 20
5.888539
 42
-0.112827
  0
VERTEX
  8
0
 10
1.802908
 20
5.951247
 42
-0.057848
  0
SEQEND
  8
0
  0
POLYLINE
  8
0
 66
1
 70
1
  0
VERTEX
  8
0
 10
1.782493
 20
5.930831
 42
0.12936
  0
VERTEX
  8
0
 10
1.895878
 20
5.848069
 42
0.173576
  0
VERTEX
  8
0
 10
2.033326
 20
5.846249
 42
0.092133
  0
VERTEX
  8
0
 10
2.158014
 20
5.918071
 42
0.130001
  0
VERTEX
  8
0
 10
2.243326
 20
6.035832
 42
0.225027
  0
VERTEX
  8
0
 10
2.218797
 20
6.286464
 42
-0.011021
  0
VERTEX
  8
0
 10
2.214013
 20
6.295262
 42
-0.096424
  0
VERTEX
  8
0
 10
2.212217
 20
6.300276
 42
-0.116461
  0
VERTEX
  8
0
 10
3.265525
 20
6.625085
 42
-0.034699
  0
VERTEX
  8
0
 10
4.389832
 20
6.631142
 42
0.000738
  0
VERTEX
  8
0
 10
4.541667
 20
6.625
 42
0.004652
  0
VERTEX
  8
0
 10
4.691568
 20
6.60723
 42
-0.031878
  0
VERTEX
  8
0
 10
5.066668
 20
6.549165
 42
0.192349
  0
VERTEX
  8
0
 10
5.042355
 20
6.483893
 42
0.067971
  0
VERTEX
  8
0
 10
5.052815
 20
6.375532
 42
0.077503
  0
VERTEX
  8
0
 10
5.16219
 20
6.103644
 42
0.116497
  0
VERTEX
  8
0
 10
5.363076
 20
5.881703
 42
0.262839
  0
VERTEX
  8
0
 10
5.623753
 20
5.857912
 42
-0.147256
  0
VERTEX
  8
0
 10
5.671138
 20
5.871172
 42
-0.059509
  0
VERTEX
  8
0
 10
5.715511
 20
5.863318
 42
0.055297
  0
VERTEX
  8
0
 10
5.761291
 20
5.855038
 42
0.129459
  0
VERTEX
  8
0
 10
5.813337
 20
5.866665
 42
0.044364
  0
VERTEX
  8
0
 10
5.751359
 20
5.766768
 42
0.120457
  0
VERTEX
  8
0
 10
5.720006
 20
5.636246
 42
0.003027
  0
VERTEX
  8
0
 10
5.540547
 20
5.652296
 42
-0.003022
  0
VERTEX
  8
0
 10
5.361253
 20
5.668329
 42
-0.018738
  0
VERTEX
  8
0
 10
5.235276
 20
5.893383
 42
0.028551
  0
VERTEX
  8
0
 10
5.075534
 20
6.170214
 42
0.085799
  0
VERTEX
  8
0
 10
4.856668
 20
6.403332
 42
0.061281
  0
VERTEX
  8
0
 10
3.598852
 20
6.492655
 42
0.140202
  0
VERTEX
  8
0
 10
2.441661
 20
6.120414
 42
0.045481
  0
VERTEX
  8
0
 10
2.137947
 20
5.850117
 42
0.014275
  0
VERTEX
  8
0
 10
1.857863
 20
5.534122
 42
-0.000001
  0
VERTEX
  8
0
 10
1.85541
 20
5.531247
 42
0.200163
  0
VERTEX
  8
0
 10
1.821014
 20
5.624774
 42
0.049918
  0
VERTEX
  8
0
 10
1.738532
 20
5.700702
 42
-0.032425
  0
VERTEX
  8
0
 10
1.678704
 20
5.75311
 42
-0.161733
  0
VERTEX
  8
0
 10
1.649288
 20
5.805886
 42
-0.237451
  0
VERTEX
  8
0
 10
1.675483
 20
5.863603
 42
-0.080837
  0
SEQEND
  8
0
  0
POLYLINE
  8
0
 66
1
 70
1
  0
VERTEX
  8
0
 10
5.329169
 20
5.668329
 42
-0.005606
  0
VERTEX
  8
0
 10
4.830706
 20
5.689697
 42
0.022863
  0
VERTEX
  8
0
 10
3.818332
 20
5.709162
 42
-0.001561
  0
VERTEX
  8
0
 10
3.82403
 20
6.071617
 42
0.002094
  0
VERTEX
  8
0
 10
3.829999
 20
6.467499
 42
-0.055919
  0
VERTEX
  8
0
 10
4.847918
 20
6.37125
 42
-0.092545
  0
VERTEX
  8
0
 10
5.087448
 20
6.114316
 42
-0.029998
  0
VERTEX
  8
0
 10
5.257056
 20
5.808475
 42
0.006959
  0
SEQEND
  8
0
  0
POLYLINE
  8
0
 66
1
 70
1
  0
VERTEX
  8
0
 10
3.797914
 20
6.467499
 42
0.001042
  0
VERTEX
  8
0
 10
3.796077
 20
6.271724
 42
-0.006844
  0
VERTEX
  8
0
 10
3.786247
 20
5.709162
 42
-0.000698
  0
VERTEX
  8
0
 10
3.637097
 20
5.708837
 42
0.032829
  0
VERTEX
  8
0
 10
2.646931
 20
5.66491
 42
0.110172
  0
VERTEX
  8
0
 10
1.759158
 20
5.364997
 42
0.000492
  0
VERTEX
  8
0
 10
1.805032
 20
5.421535
 42
-0.079787
  0
VERTEX
  8
0
 10
2.526805
 20
6.135608
 42
-0.152574
  0
SEQEND
  8
0
  0
POLYLINE
  8
0
 66
1
 70
1
  0
VERTEX
  8
0
 10
1.225407
 20
5.070411
 42
0.176066
  0
VERTEX
  8
0
 10
1.209371
 20
5.082927
 42
0.193213
  0
VERTEX
  8
0
 10
1.193336
 20
5.08014
 42
0.072301
  0
VERTEX
  8
0
 10
1.1773
 20
5.067149
 42
0.017541
  0
VERTEX
  8
0
 10
1.161265
 20
5.049052
 42
-0.017464
  0
VERTEX
  8
0
 10
1.145211
 20
5.030928
 42
-0.07227
  0
VERTEX
  8
0
 10
1.129157
 20
5.017911
 42
-0.176846
  0
VERTEX
  8
0
 10
1.197773
 20
5.31943
 42
-0.055273
  0
VERTEX
  8
0
 10
1.40287
 20
5.564082
 42
0.045306
  0
VERTEX
  8
0
 10
1.59291
 20
5.784996
 42
0.095177
  0
VERTEX
  8
0
 10
1.63744
 20
5.735298
 42
0.025492
  0
VERTEX
  8
0
 10
1.698509
 20
5.692555
 42
-0.021079
  0
VERTEX
  8
0
 10
1.755238
 20
5.653316
 42
-0.075201
  0
VERTEX
  8
0
 10
1.799847
 20
5.608307
 42
-0.141088
  0
VERTEX
  8
0
 10
1.819887
 20
5.551969
 42
-0.126485
  0
VERTEX
  8
0
 10
1.802908
 20
5.478746
 42
0.000271
  0
VERTEX
  8
0
 10
1.795676
 20
5.469088
 42
-0.070774
  0
VERTEX
  8
0
 10
1.669272
 20
5.329084
 42
-0.22721
  0
VERTEX
  8
0
 10
1.487908
 20
5.289161
 42
0.122003
  0
VERTEX
  8
0
 10
1.390506
 20
5.281427
 42
0.183463
  0
VERTEX
  8
0
 10
1.340216
 20
5.236848
 42
0.096297
  0
VERTEX
  8
0
 10
1.321329
 20
5.167039
 42
0.024368
  0
VERTEX
  8
0
 10
1.318136
 20
5.083615
 42
-0.011424
  0
VERTEX
  8
0
 10
1.316809
 20
5.02298
 42
-0.037859
  0
VERTEX
  8
0
 10
1.30999
 20
4.96541
 42
-0.019157
  0
VERTEX
  8
0
 10
1.314368
 20
4.923097
 42
0.01913
  0
VERTEX
  8
0
 10
1.31874
 20
4.880826
  0
VERTEX
  8
0
 10
1.035824
 20
4.880826
 42
-0.104709
  0
VERTEX
  8
0
 10
1.08352
 20
4.949265
 42
-0.028562
  0
VERTEX
  8
0
 10
1.153842
 20
5.009296
 42
0.02851
  0
SEQEND
  8
0
  0
POLYLINE
  8
0
 66
1
 70
1
  0
VERTEX
  8
0
 10
1.645408
 20
5.259994
 42
0.044102
  0
VERTEX
  8
0
 10
1.581675
 20
5.184459
 42
0.014086
  0
VERTEX
  8
0
 10
1.525999
 20
5.100504
 42
-0.019927
  0
VERTEX
  8
0
 10
1.460383
 20
5.003165
 42
-0.064805
  0
VERTEX
  8
0
 10
1.382908
 20
4.92166
 42
0.042743
  0
VERTEX
  8
0
 10
1.415647
 20
5.036308
 42
-0.078124
  0
VERTEX
  8
0
 10
1.468693
 20
5.194738
 42
-0.309714
  0
VERTEX
  8
0
 10
1.601658
 20
5.259994
  0
SEQEND
  8
0
  0
POLYLINE
  8
0
 66
1
 70
1
  0
VERTEX
  8
0
 10
1.54916
 20
4.839996
 42
-0.196138
  0
VERTEX
  8
0
 10
1.589263
 20
4.781297
 42
-0.164103
  0
VERTEX
  8
0
 10
1.581242
 20
4.71166
 42
0.000813
  0
VERTEX
  8
0
 10
1.576613
 20
4.707011
 42
-0.053401
  0
VERTEX
  8
0
 10
1.53739
 20
4.672713
 42
-0.16815
  0
VERTEX
  8
0
 10
1.487908
 20
4.65916
 42
0.088751
  0
VERTEX
  8
0
 10
1.509895
 20
4.702718
 42
0.030293
  0
VERTEX
  8
0
 10
1.520692
 20
4.749794
 42
-0.018831
  0
VERTEX
  8
0
 10
1.528742
 20
4.787494
 42
-0.019405
  0
VERTEX
  8
0
 10
1.530506
 20
4.797011
 42
0.094111
  0
VERTEX
  8
0
 10
1.53204
 20
4.813567
 42
0.113966
  0
VERTEX
  8
0
 10
1.528903
 20
4.821042
 42
0.091564
  0
VERTEX
  8
0
 10
1.521208
 20
4.828156
 42
0.157177
  0
VERTEX
  8
0
 10
1.505427
 20
4.80645
 42
0.035187
  0
VERTEX
  8
0
 10
1.496397
 20
4.774784
 42
-0.025092
  0
VERTEX
  8
0
 10
1.488657
 20
4.746342
 42
-0.096845
  0
VERTEX
  8
0
 10
1.476243
 20
4.723328
 42
-0.005705
  0
VERTEX
  8
0
 10
1.289162
 20
4.72344
 42
0.027853
  0
VERTEX
  8
0
 10
0.878324
 20
4.71166
 42
0.238101
  0
VERTEX
  8
0
 10
0.879714
 20
4.702006
 42
0.063681
  0
VERTEX
  8
0
 10
0.886943
 20
4.694131
 42
-0.009711
  0
VERTEX
  8
0
 10
0.88999
 20
4.691243
 42
0.006235
  0
VERTEX
  8
0
 10
1.084041
 20
4.691564
 42
-0.025984
  0
VERTEX
  8
0
 10
1.467492
 20
4.682493
 42
-0.041389
  0
VERTEX
  8
0
 10
1.134626
 20
4.65916
 42
-0.01694
  0
VERTEX
  8
0
 10
0.825822
 20
4.670828
 42
-0.145047
  0
VERTEX
  8
0
 10
0.78827
 20
4.758692
 42
-0.205659
  0
VERTEX
  8
0
 10
0.814156
 20
4.848743
 42
0.005008
  0
VERTEX
  8
0
 10
1.054335
 20
4.849056
 42
-0.019921
  0
SEQEND
  8
0
  0
POLYLINE
  8
0
 66
1
 70
1
  0
VERTEX
  8
0
 10
0.724226
 20
4.739856
 42
-0.081874
  0
VERTEX
  8
0
 10
0.75716
 20
4.933936
 42
-0.138305
  0
VERTEX
  8
0
 10
0.866656
 20
5.090828
 42
0.051369
  0
VERTEX
  8
0
 10
0.864802
 20
5.055846
 42
0.013186
  0
VERTEX
  8
0
 10
0.867494
 20
5.016011
 42
-0.066902
  0
VERTEX
  8
0
 10
0.867756
 20
4.937207
 42
-0.153171
  0
VERTEX
  8
0
 10
0.854705
 20
4.911144
 42
-0.196999
  0
VERTEX
  8
0
 10
0.825822
 20
4.901244
 42
0.262636
  0
VERTEX
  8
0
 10
0.756491
 20
4.792052
 42
0.14583
  0
VERTEX
  8
0
 10
0.771379
 20
4.689785
 42
-0.075924
  0
VERTEX
  8
0
 10
0.844471
 20
4.621935
 42
-0.851358
  0
VERTEX
  8
0
 10
0.841696
 20
4.615009
 42
-0.093916
  0
VERTEX
  8
0
 10
0.822361
 20
4.622399
 42
-0.075135
  0
VERTEX
  8
0
 10
0.762972
 20
4.669074
 42
-0.154454
  0
SEQEND
  8
0
  0
POLYLINE
  8
0
 66
1
 70
1
  0
VERTEX
  8
0
 10
2.599162
 20
5.175413
 42
0.117527
  0
VERTEX
  8
0
 10
2.403015
 20
5.23411
 42
0.094406
  0
VERTEX
  8
0
 10
2.158743
 20
5.216244
 42
0.154523
  0
VERTEX
  8
0
 10
1.851399
 20
4.981088
 42
0.090067
  0
VERTEX
  8
0
 10
1.686242
 20
4.629993
 42
-0.218158
  0
VERTEX
  8
0
 10
1.43462
 20
4.503182
 42
-0.054924
  0
VERTEX
  8
0
 10
1.129508
 20
4.518563
 42
0.002072
  0
VERTEX
  8
0
 10
1.076657
 20
4.524994
 42
0.005787
  0
VERTEX
  8
0
 10
1.050611
 20
4.537511
 42
-0.019877
  0
VERTEX
  8
0
 10
0.999526
 20
4.563279
 42
-0.05688
  0
VERTEX
  8
0
 10
0.951242
 20
4.597911
 42
-0.026482
  0
VERTEX
  8
0
 10
1.37708
 20
4.630608
 42
0.004291
  0
VERTEX
  8
0
 10
1.54916
 20
4.638743
 42
0.199415
  0
VERTEX
  8
0
 10
1.618065
 20
4.722597
 42
0.238052
  0
VERTEX
  8
0
 10
1.601658
 20
4.828328
 42
0.178986
  0
VERTEX
  8
0
 10
1.532343
 20
4.877316
 42
0.055452
  0
VERTEX
  8
0
 10
1.456847
 20
4.889693
 42
-0.03703
  0
VERTEX
  8
0
 10
1.429492
 20
4.89304
 42
-0.15404
  0
VERTEX
  8
0
 10
1.423385
 20
4.896165
 42
-0.340306
  0
VERTEX
  8
0
 10
1.42374
 20
4.901244
 42
-0.111125
  0
VERTEX
  8
0
 10
1.760253
 20
5.323797
 42
-0.137513
  0
VERTEX
  8
0
 10
2.243326
 20
5.542912
 42
-0.26657
  0
VERTEX
  8
0
 10
2.998746
 20
5.207494
 42
-0.090439
  0
VERTEX
  8
0
 10
3.167914
 20
4.796246
 42
-0.024483
  0
VERTEX
  8
0
 10
2.996109
 20
4.779837
 42
0.004387
  0
VERTEX
  8
0
 10
2.937496
 20
4.775826
 42
0.19359
  0
SEQEND
  8
0
  0
POLYLINE
  8
0
 66
1
 70
1
  0
VERTEX
  8
0
 10
3.135829
 20
4.533744
 42
-0.158439
  0
VERTEX
  8
0
 10
3.039721
 20
4.522792
 42
-0.194702
  0
VERTEX
  8
0
 10
2.984096
 20
4.566423
 42
-0.08369
  0
VERTEX
  8
0
 10
2.956019
 20
4.642058
 42
-0.022504
  0
VERTEX
  8
0
 10
2.942553
 20
4.727117
 42
0.001035
  0
VERTEX
  8
0
 10
2.940412
 20
4.743744
 42
-0.00752
  0
VERTEX
  8
0
 10
3.04766
 20
4.753236
 42
0.009098
  0
VERTEX
  8
0
 10
3.167914
 20
4.76416
 42
0.014198
  0
VERTEX
  8
0
 10
3.173363
 20
4.72068
 42
-0.056928
  0
VERTEX
  8
0
 10
3.180458
 20
4.615163
 42
-0.093893
  0
VERTEX
  8
0
 10
3.168057
 20
4.568434
 42
-0.144203
  0
SEQEND
  8
0
  0
POLYLINE
  8
0
 66
1
 70
1
  0
VERTEX
  8
0
 10
3.765832
 20
4.577494
 42
0.006534
  0
VERTEX
  8
0
 10
3.580496
 20
4.577171
 42
-0.027884
  0
VERTEX
  8
0
 10
3.220412
 20
4.586243
 42
0.311907
  0
VERTEX
  8
0
 10
2.622494
 20
5.531247
 42
-0.007483
  0
VERTEX
  8
0
 10
2.557383
 20
5.548334
 42
0.015327
  0
VERTEX
  8
0
 10
2.465196
 20
5.571502
 42
0.043675
  0
VERTEX
  8
0
 10
2.368743
 20
5.583747
 42
-0.040271
  0
VERTEX
  8
0
 10
3.053525
 20
5.661353
 42
-0.012444
  0
VERTEX
  8
0
 10
3.750764
 20
5.668557
 42
0.000036
  0
VERTEX
  8
0
 10
3.786247
 20
5.668329
 42
-0.014299
  0
VERTEX
  8
0
 10
3.774795
 20
4.868849
 42
0.002132
  0
SEQEND
  8
0
  0
POLYLINE
  8
0
 66
1
 70
1
  0
VERTEX
  8
0
 10
5.340838
 20
4.670828
 42
0.118961
  0
VERTEX
  8
0
 10
5.313001
 20
4.666332
 42
0.158446
  0
VERTEX
  8
0
 10
5.297948
 20
4.652421
 42
0.088805
  0
VERTEX
  8
0
 10
5.291421
 20
4.632275
 42
0.024343
  0
VERTEX
  8
0
 10
5.28916
 20
4.609073
 42
-0.052967
  0
VERTEX
  8
0
 10
5.284843
 20
4.576775
 42
-0.2104
  0
VERTEX
  8
0
 10
5.267921
 20
4.554161
 42
-0.001266
  0
VERTEX
  8
0
 10
4.825754
 20
4.563562
 42
0.007152
  0
VERTEX
  8
0
 10
3.797914
 20
4.577494
 42
0.006019
  0
VERTEX
  8
0
 10
3.805405
 20
5.057601
 42
-0.010224
  0
VERTEX
  8
0
 10
3.818332
 20
5.669058
 42
0.000517
  0
VERTEX
  8
0
 10
4.009665
 20
5.670413
 42
-0.02605
  0
VERTEX
  8
0
 10
5.288336
 20
5.636246
 42
0.134127
  0
VERTEX
  8
0
 10
5.293805
 20
5.565153
 42
0.132215
  0
VERTEX
  8
0
 10
5.311716
 20
5.53904
 42
0.208206
  0
VERTEX
  8
0
 10
5.340838
 20
5.531247
  0
SEQEND
  8
0
  0
POLYLINE
  8
0
 66
1
 70
1
  0
VERTEX
  8
0
 10
5.361253
 20
4.565826
  0
VERTEX
  8
0
 10
5.361253
 20
5.627497
 42
-0.025196
  0
VERTEX
  8
0
 10
6.265422
 20
5.531247
 42
0.224101
  0
VERTEX
  8
0
 10
5.550836
 20
5.049996
 42
0.083273
  0
VERTEX
  8
0
 10
5.381669
 20
4.554161
 42
-0.152748
  0
VERTEX
  8
0
 10
5.370367
 20
4.557806
 42
-0.048719
  0
SEQEND
  8
0
  0
POLYLINE
  8
0
 66
1
 70
1
  0
VERTEX
  8
0
 10
7.198758
 20
4.50166
 42
-0.012675
  0
VERTEX
  8
0
 10
7.10421
 20
4.516609
 42
-0.019031
  0
VERTEX
  8
0
 10
7.047
 20
4.529141
 42
-0.098985
  0
VERTEX
  8
0
 10
7.014035
 20
4.542493
 42
0.165971
  0
VERTEX
  8
0
 10
6.83624
 20
5.023624
 42
0.20815
  0
VERTEX
  8
0
 10
6.366047
 20
5.23569
 42
0.273522
  0
VERTEX
  8
0
 10
5.836914
 20
4.94451
 42
-0.000213
  0
VERTEX
  8
0
 10
5.834201
 20
4.940468
 42
0.089493
  0
VERTEX
  8
0
 10
5.774273
 20
4.816702
 42
0.054781
  0
VERTEX
  8
0
 10
5.735317
 20
4.516972
 42
-0.053143
  0
VERTEX
  8
0
 10
5.571071
 20
4.502754
 42
-0.059714
  0
VERTEX
  8
0
 10
5.491683
 20
4.513896
 42
-0.132633
  0
VERTEX
  8
0
 10
5.434169
 20
4.54541
 42
-0.268106
  0
VERTEX
  8
0
 10
5.982506
 20
5.405828
 42
-0.140369
  0
VERTEX
  8
0
 10
6.498027
 20
5.502444
 42
-0.092771
  0
VERTEX
  8
0
 10
7.009174
 20
5.373744
 42
-0.043568
  0
VERTEX
  8
0
 10
7.046644
 20
5.262844
 42
-0.01416
  0
VERTEX
  8
0
 10
7.07145
 20
5.146966
 42
0.030498
  0
VERTEX
  8
0
 10
7.111095
 20
4.979468
 42
0.093142
  0
VERTEX
  8
0
 10
7.190008
 20
4.828328
 42
0.085642
  0
VERTEX
  8
0
 10
7.103601
 20
4.806816
 42
0.187475
  0
VERTEX
  8
0
 10
7.041257
 20
4.743744
 42
0.224753
  0
VERTEX
  8
0
 10
7.043809
 20
4.647494
 42
0.169472
  0
VERTEX
  8
0
 10
7.114175
 20
4.577494
 42
0.015628
  0
VERTEX
  8
0
 10
7.138586
 20
4.572842
 42
-0.015366
  0
VERTEX
  8
0
 10
7.181722
 20
4.564444
 42
-0.06698
  0
VERTEX
  8
0
 10
7.219436
 20
4.551284
 42
-0.115153
  0
VERTEX
  8
0
 10
7.230022
 20
4.542213
 42
-0.229149
  0
VERTEX
  8
0
 10
7.231768
 20
4.531107
 42
-0.136167
  0
VERTEX
  8
0
 10
7.222178
 20
4.517683
 42
-0.055932
  0
SEQEND
  8
0
  0
POLYLINE
  8
0
 66
1
 70
1
  0
VERTEX
  8
0
 10
7.178343
 20
4.618326
  0
VERTEX
  8
0
 10
7.178343
 20
4.650411
 42
-0.056363
  0
VERTEX
  8
0
 10
7.289561
 20
4.662089
 42
-0.022986
  0
VERTEX
  8
0
 10
7.390478
 20
4.655791
 42
0.021567
  0
VERTEX
  8
0
 10
7.488593
 20
4.649483
 42
0.053217
  0
VERTEX
  8
0
 10
7.596703
 20
4.659536
 42
0.061808
  0
VERTEX
  8
0
 10
7.464822
 20
4.681555
 42
0.019906
  0
VERTEX
  8
0
 10
7.327649
 20
4.681852
 42
-0.021095
  0
VERTEX
  8
0
 10
7.178343
 20
4.682493
 42
-0.210528
  0
VERTEX
  8
0
 10
7.158337
 20
4.71408
 42
-0.064407
  0
VERTEX
  8
0
 10
7.158463
 20
4.753202
 42
0.018129
  0
VERTEX
  8
0
 10
7.159831
 20
4.775237
 42
0.059783
  0
VERTEX
  8
0
 10
7.157925
 20
4.796246
 42
0.0087
  0
VERTEX
  8
0
 10
7.300468
 20
4.796592
 42
-0.035968
  0
VERTEX
  8
0
 10
7.56626
 20
4.787494
 42
-0.101728
  0
VERTEX
  8
0
 10
7.612926
 20
4.716399
 42
-0.288119
  0
VERTEX
  8
0
 10
7.598343
 20
4.638743
 42
-0.106819
  0
VERTEX
  8
0
 10
7.431711
 20
4.604766
 42
-0.026973
  0
VERTEX
  8
0
 10
7.243862
 20
4.613318
 42
0.004037
  0
SEQEND
  8
0
  0
POLYLINE
  8
0
 66
1
 70
1
  0
VERTEX
  8
0
 10
7.67126
 20
4.606661
 42
-0.178955
  0
VERTEX
  8
0
 10
7.606364
 20
4.5414
 42
-0.178161
  0
VERTEX
  8
0
 10
7.5679
 20
4.535703
 42
-0.30323
  0
VERTEX
  8
0
 10
7.545842
 20
4.565826
 42
0.182105
  0
VERTEX
  8
0
 10
7.615364
 20
4.592674
 42
0.078737
  0
VERTEX
  8
0
 10
7.640461
 20
4.620639
 42
0.130778
  0
VERTEX
  8
0
 10
7.650843
 20
4.650411
 42
-0.003113
  0
VERTEX
  8
0
 10
7.651006
 20
4.669962
 42
0.071496
  0
VERTEX
  8
0
 10
7.643833
 20
4.759279
 42
0.218136
  0
VERTEX
  8
0
 10
7.586676
 20
4.828328
 42
-0.184385
  0
VERTEX
  8
0
 10
7.565699
 20
4.842779
 42
-0.11183
  0
VERTEX
  8
0
 10
7.556304
 20
4.868729
 42
-0.054242
  0
VERTEX
  8
0
 10
7.556785
 20
4.939309
 42
0.011447
  0
VERTEX
  8
0
 10
7.558885
 20
4.974709
 42
0.043182
  0
VERTEX
  8
0
 10
7.55751
 20
5.006246
 42
-0.281846
  0
SEQEND
  8
0
  0
POLYLINE
  8
0
 66
1
 70
1
  0
VERTEX
  8
0
 10
2.537911
 20
5.761662
 42
0.033251
  0
VERTEX
  8
0
 10
2.564633
 20
5.747667
 42
-0.000881
  0
VERTEX
  8
0
 10
2.567494
 20
5.746346
 42
0.076504
  0
VERTEX
  8
0
 10
2.589237
 20
5.738843
 42
0.452825
  0
VERTEX
  8
0
 10
2.596943
 20
5.743238
 42
0.114897
  0
VERTEX
  8
0
 10
2.59421
 20
5.75814
 42
0.015259
  0
VERTEX
  8
0
 10
2.584638
 20
5.782159
 42
-0.00004
  0
VERTEX
  8
0
 10
2.583925
 20
5.783858
 42
-0.075454
  0
VERTEX
  8
0
 10
2.55034
 20
5.899846
 42
-0.192202
  0
VERTEX
  8
0
 10
2.590411
 20
6.047497
 42
-0.016792
  0
VERTEX
  8
0
 10
2.618377
 20
6.078974
 42
0.011579
  0
VERTEX
  8
0
 10
2.641514
 20
6.104669
 42
0.061025
  0
VERTEX
  8
0
 10
2.65647
 20
6.126042
 42
0.115869
  0
VERTEX
  8
0
 10
2.658489
 20
6.133936
 42
0.246046
  0
VERTEX
  8
0
 10
2.655595
 20
6.139344
 42
0.134116
  0
VERTEX
  8
0
 10
2.646832
 20
6.141799
 42
0.051923
  0
VERTEX
  8
0
 10
2.631244
 20
6.140831
 42
0.081566
  0
VERTEX
  8
0
 10
2.504369
 20
6.029997
 42
0.232058
  0
VERTEX
  8
0
 10
2.464994
 20
5.866665
 42
0.146532
  0
SEQEND
  8
0
  0
POLYLINE
  8
0
 66
1
 70
1
  0
VERTEX
  8
0
 10
4.710835
 20
6.309997
 42
-0.018709
  0
VERTEX
  8
0
 10
4.814333
 20
5.891052
 42
0.002335
  0
VERTEX
  8
0
 10
4.847918
 20
5.741246
 42
-0.009183
  0
VERTEX
  8
0
 10
4.938546
 20
5.741731
 42
0.047041
  0
VERTEX
  8
0
 10
5.142501
 20
5.752912
 42
0.152581
  0
VERTEX
  8
0
 10
5.17536
 20
5.766995
 42
0.183425
  0
VERTEX
  8
0
 10
5.188075
 20
5.793382
 42
0.110643
  0
VERTEX
  8
0
 10
5.183108
 20
5.827972
 42
0.065767
  0
VERTEX
  8
0
 10
5.162919
 20
5.866665
 42
-0.027379
  0
VERTEX
  8
0
 10
5.077508
 20
6.002443
 42
0.060018
  0
VERTEX
  8
0
 10
4.92981
 20
6.216049
 42
0.225435
  0
SEQEND
  8
0
  0
POLYLINE
  8
0
 66
1
 70
1
  0
VERTEX
  8
0
 10
5.139535
 20
5.849233
 42
-0.078915
  0
VERTEX
  8
0
 10
5.157024
 20
5.814069
 42
-0.061239
  0
VERTEX
  8
0
 10
5.15928
 20
5.800953
 42
-0.108476
  0
VERTEX
  8
0
 10
5.157889
 20
5.79176
 42
-0.120706
  0
VERTEX
  8
0
 10
5.154703
 20
5.787724
 42
-0.070089
  0
VERTEX
  8
0
 10
5.149696
 20
5.784822
 42
-0.060379
  0
VERTEX
  8
0
 10
5.137126
 20
5.781581
 42
-0.04652
  0
VERTEX
  8
0
 10
4.938725
 20
5.770897
 42
0.004915
  0
VERTEX
  8
0
 10
4.871193
 20
5.770751
  0
VERTEX
  8
0
 10
4.842812
 20
5.89735
 42
0.015262
  0
VERTEX
  8
0
 10
4.750044
 20
6.279693
 42
-0.191976
  0
VERTEX
  8
0
 10
4.924416
 20
6.179123
 42
-0.048247
  0
VERTEX
  8
0
 10
5.052296
 20
5.987779
 42
0.027684
  0
SEQEND
  8
0
  0
POLYLINE
  8
0
 66
1
 70
1
  0
VERTEX
  8
0
 10
3.874235
 20
6.390207
 42
0.018764
  0
VERTEX
  8
0
 10
3.877394
 20
5.763121
 42
0.007337
  0
VERTEX
  8
0
 10
4.331801
 20
5.752632
 42
-0.009236
  0
VERTEX
  8
0
 10
4.783751
 20
5.741246
 42
0.008048
  0
VERTEX
  8
0
 10
4.670001
 20
6.318749
 42
0.027171
  0
SEQEND
  8
0
  0
POLYLINE
  8
0
 66
1
 70
1
  0
VERTEX
  8
0
 10
4.332168
 20
5.781797
 42
-0.006581
  0
VERTEX
  8
0
 10
3.905258
 20
5.791243
 42
-0.016712
  0
VERTEX
  8
0
 10
3.902589
 20
6.359497
 42
-0.025888
  0
VERTEX
  8
0
 10
4.645732
 20
6.29291
 42
-0.006581
  0
VERTEX
  8
0
 10
4.748894
 20
5.771879
 42
0.007865
  0
SEQEND
  8
0
  0
POLYLINE
  8
0
 66
1
 70
1
  0
VERTEX
  8
0
 10
2.715829
 20
5.784996
 42
0.010691
  0
VERTEX
  8
0
 10
3.695715
 20
5.759152
 42
-0.000007
  0
VERTEX
  8
0
 10
3.723053
 20
5.758749
 42
0.010181
  0
VERTEX
  8
0
 10
3.731859
 20
6.319948
 42
-0.000096
  0
VERTEX
  8
0
 10
3.732047
 20
6.391667
 42
0.073915
  0
VERTEX
  8
0
 10
3.404772
 20
6.380364
 42
0.024526
  0
VERTEX
  8
0
 10
3.094997
 20
6.309997
 42
0.063941
  0
VERTEX
  8
0
 10
2.794579
 20
6.179476
 42
0.197755
  0
VERTEX
  8
0
 10
2.599162
 20
5.930831
 42
0.220654
  0
VERTEX
  8
0
 10
2.630152
 20
5.837095
 42
0.164382
  0
SEQEND
  8
0
  0
POLYLINE
  8
0
 66
1
  0
VERTEX
  8
0
 10
2.63319
 20
5.935278
 42
-0.200603
  0
VERTEX
  8
0
 10
2.81305
 20
6.159309
 42
-0.060639
  0
VERTEX
  8
0
 10
3.10384
 20
6.282206
 42
-0.021837
  0
VERTEX
  8
0
 10
3.385452
 20
6.347429
 42
-0.067481
  0
VERTEX
  8
0
 10
3.702811
 20
6.365553
  0
VERTEX
  8
0
 10
3.702693
 20
6.319996
 42
-0.009265
  0
VERTEX
  8
0
 10
3.694985
 20
5.788117
 42
0.000485
  0
VERTEX
  8
0
 10
3.5436
 20
5.789254
 42
-0.000313
  0
VERTEX
  8
0
 10
3.422397
 20
5.790136
 42
-0.014741
  0
VERTEX
  8
0
 10
2.725465
 20
5.812525
 42
-0.250531
  0
VERTEX
  8
0
 10
2.641697
 20
5.874514
 42
-0.159502
  0
VERTEX
  8
0
 10
2.63319
 20
5.935278
  0
SEQEND
  8
0
  0
POLYLINE
  8
0
 66
1
 70
1
  0
VERTEX
  8
0
 10
2.328776
 20
5.155822
 42
0.200331
  0
VERTEX
  8
0
 10
1.945101
 20
4.996897
 42
0.200328
  0
VERTEX
  8
0
 10
1.786176
 20
4.613222
 42
0.200332
  0
VERTEX
  8
0
 10
1.945104
 20
4.229547
 42
0.200331
  0
VERTEX
  8
0
 10
2.328776
 20
4.070622
 42
0.413553
  0
VERTEX
  8
0
 10
2.871376
 20
4.613222
 42
0.200328
  0
VERTEX
  8
0
 10
2.712453
 20
4.996897
 42
0.200329
  0
SEQEND
  8
0
  0
POLYLINE
  8
0
 66
1
 70
1
  0
VERTEX
  8
0
 10
2.328776
 20
4.245622
 42
-0.20324
  0
VERTEX
  8
0
 10
2.068847
 20
4.353292
 42
-0.203242
  0
VERTEX
  8
0
 10
1.961176
 20
4.613222
 42
-0.203246
  0
VERTEX
  8
0
 10
2.068847
 20
4.873151
 42
-0.203237
  0
VERTEX
  8
0
 10
2.328776
 20
4.980821
 42
-0.203236
  0
VERTEX
  8
0
 10
2.588707
 20
4.87315
 42
-0.203234
  0
VERTEX
  8
0
 10
2.696376
 20
4.613222
 42
-0.413551
  0
SEQEND
  8
0
  0
POLYLINE
  8
0
 66
1
 70
1
  0
VERTEX
  8
0
 10
2.328776
 20
4.951656
 42
0.203227
  0
VERTEX
  8
0
 10
2.089471
 20
4.852529
 42
0.203235
  0
VERTEX
  8
0
 10
1.990343
 20
4.613222
 42
0.203236
  0
VERTEX
  8
0
 10
2.089471
 20
4.373917
 42
0.203238
  0
VERTEX
  8
0
 10
2.328776
 20
4.274789
 42
0.413554
  0
VERTEX
  8
0
 10
2.66721
 20
4.613222
 42
0.203235
  0
VERTEX
  8
0
 10
2.568083
 20
4.852526
 42
0.203236
  0
SEQEND
  8
0
  0
POLYLINE
  8
0
 66
1
 70
1
  0
VERTEX
  8
0
 10
2.328776
 20
4.387383
 42
-0.203233
  0
VERTEX
  8
0
 10
2.169087
 20
4.453532
 42
-0.203237
  0
VERTEX
  8
0
 10
2.10294
 20
4.613222
 42
-0.203243
  0
VERTEX
  8
0
 10
2.169087
 20
4.772911
 42
-0.203239
  0
VERTEX
  8
0
 10
2.328778
 20
4.83906
 42
-0.203236
  0
VERTEX
  8
0
 10
2.488467
 20
4.772911
 42
-0.203241
  0
VERTEX
  8
0
 10
2.554615
 20
4.613222
 42
-0.413546
  0
SEQEND
  8
0
  0
POLYLINE
  8
0
 66
1
 70
1
  0
VERTEX
  8
0
 10
6.385385
 20
5.171621
 42
0.200333
  0
VERTEX
  8
0
 10
6.001712
 20
5.012694
 42
0.200336
  0
VERTEX
  8
0
 10
5.842788
 20
4.629021
 42
0.200334
  0
VERTEX
  8
0
 10
6.001712
 20
4.245346
 42
0.200334
  0
VERTEX
  8
0
 10
6.385385
 20
4.086421
 42
0.413551
  0
VERTEX
  8
0
 10
6.927986
 20
4.629021
 42
0.200334
  0
VERTEX
  8
0
 10
6.76906
 20
5.012694
 42
0.200331
  0
SEQEND
  8
0
  0
POLYLINE
  8
0
 66
1
 70
1
  0
VERTEX
  8
0
 10
6.385385
 20
4.261422
 42
-0.20324
  0
VERTEX
  8
0
 10
6.125454
 20
4.36909
 42
-0.203235
  0
VERTEX
  8
0
 10
6.017787
 20
4.629021
 42
-0.203233
  0
VERTEX
  8
0
 10
6.125454
 20
4.88895
 42
-0.20324
  0
VERTEX
  8
0
 10
6.385385
 20
4.996621
 42
-0.203236
  0
VERTEX
  8
0
 10
6.645315
 20
4.88895
 42
-0.203239
  0
VERTEX
  8
0
 10
6.752985
 20
4.629021
 42
-0.413553
  0
SEQEND
  8
0
  0
POLYLINE
  8
0
 66
1
 70
1
  0
VERTEX
  8
0
 10
6.385385
 20
4.967454
 42
0.203234
  0
VERTEX
  8
0
 10
6.146079
 20
4.868326
 42
0.203239
  0
VERTEX
  8
0
 10
6.046954
 20
4.629021
 42
0.203241
  0
VERTEX
  8
0
 10
6.146079
 20
4.389714
 42
0.203239
  0
VERTEX
  8
0
 10
6.385385
 20
4.290589
 42
0.413552
  0
VERTEX
  8
0
 10
6.723818
 20
4.629021
 42
0.203238
  0
VERTEX
  8
0
 10
6.624692
 20
4.868326
 42
0.203236
  0
SEQEND
  8
0
  0
POLYLINE
  8
0
 66
1
 70
1
  0
VERTEX
  8
0
 10
6.385385
 20
4.403183
 42
-0.203238
  0
VERTEX
  8
0
 10
6.225697
 20
4.469331
 42
-0.203237
  0
VERTEX
  8
0
 10
6.159549
 20
4.629021
 42
-0.203237
  0
VERTEX
  8
0
 10
6.225697
 20
4.788711
 42
-0.203229
  0
VERTEX
  8
0
 10
6.385388
 20
4.854857
 42
-0.203235
  0
VERTEX
  8
0
 10
6.545075
 20
4.788708
 42
-0.203239
  0
VERTEX
  8
0
 10
6.611224
 20
4.629021
 42
-0.413552
  0
SEQEND
  8
0
  0
ENDSEC
  0
EOF
