  0
SECTION
  2
HEADER
  9
$ACADVER
  1
AC1006
  9
$EXTMIN
 10
-11.771843
 20
-14.870299
  9
$EXTMAX
 10
12.242047
 20
-5.856437
  9
$LTSCALE
 40
0.000394
  9
$PDMODE
 70
    35
  9
$PDSIZE
 40
0.000315
  0
ENDSEC
  0
SECTION
  2
TABLES
  0
TABLE
  2
LTYPE
 70
     9
  0
LTYPE
  2
CONTINUOUS
 70
    64
  3
Solid line
 72
    65
 73
     0
 40
0.000000
  0
LTYPE
  2
DASHED
 70
    64
  3
__ __ __ __ __ __ __ __ __ __ __ __ __ __ __
 72
    65
 73
     2
 40
0.000003
 49
0.000002
 49
-0.000001
  0
LTYPE
  2
HIDDEN
 70
    64
  3
 _ _ _ _ _ _ _ _ _ _ _ _ _ _ _ _ _ _ _ _ _ _
 72
    65
 73
     2
 40
0.000001
 49
0.000001
 49
-0.000000
  0
LTYPE
  2
CENTER
 70
    64
  3
____ _ ____ _ ____ _ ____ _ ____ _ ____ _ ____
 72
    65
 73
     4
 40
0.000008
 49
0.000005
 49
-0.000001
 49
0.000001
 49
-0.000001
  0
LTYPE
  2
PHANTOM
 70
    64
  3
_____ _ _ _____ _ _ _____ _ _ _____ _ _ ____
 72
    65
 73
     6
 40
0.000010
 49
0.000005
 49
-0.000001
 49
0.000001
 49
-0.000001
 49
0.000001
 49
-0.000001
  0
LTYPE
  2
DOT
 70
    64
  3
...............................................
 72
    65
 73
     2
 40
0.000001
 49
0.000000
 49
-0.000001
  0
LTYPE
  2
DASHDOT
 70
    64
  3
__ . __ . __ . __ . __ . __ . __ . __ . __ . __
 72
    65
 73
     4
 40
0.000004
 49
0.000002
 49
-0.000001
 49
0.000000
 49
-0.000001
  0
LTYPE
  2
BORDER
 70
    64
  3
__ __ . __ __ . __ __ . __ __ . __ __ . __ __
 72
    65
 73
     6
 40
0.000007
 49
0.000002
 49
-0.000001
 49
0.000002
 49
-0.000001
 49
0.000000
 49
-0.000001
  0
LTYPE
  2
DIVIDE
 70
    64
  3
__ . . __ . . __ . . __ . . __ . . __ . . __
 72
    65
 73
     6
 40
0.000005
 49
0.000002
 49
-0.000001
 49
0.000000
 49
-0.000001
 49
0.000000
 49
-0.000001
  0
LTYPE
  2
DOTDOT
 70
    64
  3
 . .  . .  . .  . .  . .  . . 
 72
    65
 73
     5
 40
0.000002
 49
-0.000001
 49
0.000000
 49
-0.000001
 49
0.000000
 49
-0.000001
  0
ENDTAB
  0
TABLE
  2
STYLE
 70
     0
  0
ENDTAB
  0
TABLE
  2
LAYER
 70
     3
  0
LAYER
  2
FOREGROUND
 70
    64
 62
     7
  6
CONTINUOUS
  0
LAYER
  2
BACKGROUND
 70
    65
 62
    -7
  6
CONTINUOUS
  0
LAYER
  2
LAYER_1
 70
    64
 62
     7
  6
CONTINUOUS
  0
ENDTAB
  0
ENDSEC
  0
SECTION
  2
ENTITIES
  0
POLYLINE
  8
LAYER_1
 62
    39
  6
CONTINUOUS
 66
     1
 40
0.013890
 41
0.013890
  0
VERTEX
  8
LAYER_1
 62
    39
  6
CONTINUOUS
 10
-11.299299
 20
-6.935406
  0
VERTEX
  8
LAYER_1
 62
    39
  6
CONTINUOUS
 10
-11.219505
 20
-6.800061
  0
VERTEX
  8
LAYER_1
 62
    39
  6
CONTINUOUS
 10
-11.132088
 20
-6.680345
  0
VERTEX
  8
LAYER_1
 62
    39
  6
CONTINUOUS
 10
-11.038085
 20
-6.577631
  0
VERTEX
  8
LAYER_1
 62
    39
  6
CONTINUOUS
 10
-10.938537
 20
-6.493293
  0
VERTEX
  8
LAYER_1
 62
    39
  6
CONTINUOUS
 10
-10.834482
 20
-6.428704
  0
VERTEX
  8
LAYER_1
 62
    39
  6
CONTINUOUS
 10
-10.726959
 20
-6.385238
  0
VERTEX
  8
LAYER_1
 62
    39
  6
CONTINUOUS
 10
-10.617008
 20
-6.364269
  0
VERTEX
  8
LAYER_1
 62
    39
  6
CONTINUOUS
 10
-10.505667
 20
-6.367170
  0
VERTEX
  8
LAYER_1
 62
    39
  6
CONTINUOUS
 10
-10.393975
 20
-6.395315
  0
VERTEX
  8
LAYER_1
 62
    39
  6
CONTINUOUS
 10
-10.282972
 20
-6.450077
  0
VERTEX
  8
LAYER_1
 62
    39
  6
CONTINUOUS
 10
-10.173697
 20
-6.532831
  0
VERTEX
  8
LAYER_1
 62
    39
  6
CONTINUOUS
 10
-10.073585
 20
-6.621326
  0
VERTEX
  8
LAYER_1
 62
    39
  6
CONTINUOUS
 10
-9.974108
 20
-6.706164
  0
VERTEX
  8
LAYER_1
 62
    39
  6
CONTINUOUS
 10
-9.875246
 20
-6.787396
  0
VERTEX
  8
LAYER_1
 62
    39
  6
CONTINUOUS
 10
-9.776981
 20
-6.865077
  0
VERTEX
  8
LAYER_1
 62
    39
  6
CONTINUOUS
 10
-9.679297
 20
-6.939260
  0
VERTEX
  8
LAYER_1
 62
    39
  6
CONTINUOUS
 10
-9.582175
 20
-7.009997
  0
VERTEX
  8
LAYER_1
 62
    39
  6
CONTINUOUS
 10
-9.485597
 20
-7.077344
  0
VERTEX
  8
LAYER_1
 62
    39
  6
CONTINUOUS
 10
-9.389545
 20
-7.141353
  0
VERTEX
  8
LAYER_1
 62
    39
  6
CONTINUOUS
 10
-9.294002
 20
-7.202077
  0
VERTEX
  8
LAYER_1
 62
    39
  6
CONTINUOUS
 10
-9.198949
 20
-7.259570
  0
VERTEX
  8
LAYER_1
 62
    39
  6
CONTINUOUS
 10
-9.104369
 20
-7.313886
  0
VERTEX
  8
LAYER_1
 62
    39
  6
CONTINUOUS
 10
-9.010243
 20
-7.365077
  0
VERTEX
  8
LAYER_1
 62
    39
  6
CONTINUOUS
 10
-8.916555
 20
-7.413197
  0
VERTEX
  8
LAYER_1
 62
    39
  6
CONTINUOUS
 10
-8.823285
 20
-7.458300
  0
VERTEX
  8
LAYER_1
 62
    39
  6
CONTINUOUS
 10
-8.730416
 20
-7.500439
  0
VERTEX
  8
LAYER_1
 62
    39
  6
CONTINUOUS
 10
-8.637930
 20
-7.539668
  0
VERTEX
  8
LAYER_1
 62
    39
  6
CONTINUOUS
 10
-8.545810
 20
-7.576039
  0
VERTEX
  8
LAYER_1
 62
    39
  6
CONTINUOUS
 10
-8.454037
 20
-7.609606
  0
VERTEX
  8
LAYER_1
 62
    39
  6
CONTINUOUS
 10
-8.362593
 20
-7.640424
  0
VERTEX
  8
LAYER_1
 62
    39
  6
CONTINUOUS
 10
-8.271461
 20
-7.668544
  0
VERTEX
  8
LAYER_1
 62
    39
  6
CONTINUOUS
 10
-8.180622
 20
-7.694021
  0
VERTEX
  8
LAYER_1
 62
    39
  6
CONTINUOUS
 10
-8.090060
 20
-7.716907
  0
VERTEX
  8
LAYER_1
 62
    39
  6
CONTINUOUS
 10
-7.999755
 20
-7.737257
  0
VERTEX
  8
LAYER_1
 62
    39
  6
CONTINUOUS
 10
-7.909690
 20
-7.755124
  0
VERTEX
  8
LAYER_1
 62
    39
  6
CONTINUOUS
 10
-7.819847
 20
-7.770561
  0
VERTEX
  8
LAYER_1
 62
    39
  6
CONTINUOUS
 10
-7.730209
 20
-7.783622
  0
VERTEX
  8
LAYER_1
 62
    39
  6
CONTINUOUS
 10
-7.640756
 20
-7.794359
  0
VERTEX
  8
LAYER_1
 62
    39
  6
CONTINUOUS
 10
-7.551472
 20
-7.802827
  0
VERTEX
  8
LAYER_1
 62
    39
  6
CONTINUOUS
 10
-7.462339
 20
-7.809079
  0
VERTEX
  8
LAYER_1
 62
    39
  6
CONTINUOUS
 10
-7.373338
 20
-7.813168
  0
VERTEX
  8
LAYER_1
 62
    39
  6
CONTINUOUS
 10
-7.284452
 20
-7.815148
  0
VERTEX
  8
LAYER_1
 62
    39
  6
CONTINUOUS
 10
-7.195663
 20
-7.815072
  0
VERTEX
  8
LAYER_1
 62
    39
  6
CONTINUOUS
 10
-7.106953
 20
-7.812993
  0
VERTEX
  8
LAYER_1
 62
    39
  6
CONTINUOUS
 10
-7.018303
 20
-7.808965
  0
VERTEX
  8
LAYER_1
 62
    39
  6
CONTINUOUS
 10
-6.929697
 20
-7.803042
  0
VERTEX
  8
LAYER_1
 62
    39
  6
CONTINUOUS
 10
-6.841116
 20
-7.795276
  0
VERTEX
  8
LAYER_1
 62
    39
  6
CONTINUOUS
 10
-6.752543
 20
-7.785721
  0
VERTEX
  8
LAYER_1
 62
    39
  6
CONTINUOUS
 10
-6.663959
 20
-7.774431
  0
VERTEX
  8
LAYER_1
 62
    39
  6
CONTINUOUS
 10
-6.575346
 20
-7.761459
  0
VERTEX
  8
LAYER_1
 62
    39
  6
CONTINUOUS
 10
-6.486688
 20
-7.746859
  0
VERTEX
  8
LAYER_1
 62
    39
  6
CONTINUOUS
 10
-6.397965
 20
-7.730683
  0
VERTEX
  8
LAYER_1
 62
    39
  6
CONTINUOUS
 10
-6.309159
 20
-7.712985
  0
VERTEX
  8
LAYER_1
 62
    39
  6
CONTINUOUS
 10
-6.220254
 20
-7.693819
  0
VERTEX
  8
LAYER_1
 62
    39
  6
CONTINUOUS
 10
-6.131231
 20
-7.673239
  0
VERTEX
  8
LAYER_1
 62
    39
  6
CONTINUOUS
 10
-6.042072
 20
-7.651296
  0
VERTEX
  8
LAYER_1
 62
    39
  6
CONTINUOUS
 10
-5.952760
 20
-7.628046
  0
VERTEX
  8
LAYER_1
 62
    39
  6
CONTINUOUS
 10
-5.863276
 20
-7.603541
  0
VERTEX
  8
LAYER_1
 62
    39
  6
CONTINUOUS
 10
-5.773602
 20
-7.577834
  0
VERTEX
  8
LAYER_1
 62
    39
  6
CONTINUOUS
 10
-5.683721
 20
-7.550980
  0
VERTEX
  8
LAYER_1
 62
    39
  6
CONTINUOUS
 10
-5.593615
 20
-7.523032
  0
VERTEX
  8
LAYER_1
 62
    39
  6
CONTINUOUS
 10
-5.503266
 20
-7.494042
  0
VERTEX
  8
LAYER_1
 62
    39
  6
CONTINUOUS
 10
-5.412655
 20
-7.464065
  0
VERTEX
  8
LAYER_1
 62
    39
  6
CONTINUOUS
 10
-5.321766
 20
-7.433153
  0
VERTEX
  8
LAYER_1
 62
    39
  6
CONTINUOUS
 10
-5.230580
 20
-7.401361
  0
VERTEX
  8
LAYER_1
 62
    39
  6
CONTINUOUS
 10
-5.139079
 20
-7.368742
  0
VERTEX
  8
LAYER_1
 62
    39
  6
CONTINUOUS
 10
-5.047245
 20
-7.335348
  0
VERTEX
  8
LAYER_1
 62
    39
  6
CONTINUOUS
 10
-4.955061
 20
-7.301234
  0
VERTEX
  8
LAYER_1
 62
    39
  6
CONTINUOUS
 10
-4.862509
 20
-7.266453
  0
VERTEX
  8
LAYER_1
 62
    39
  6
CONTINUOUS
 10
-4.769570
 20
-7.231058
  0
VERTEX
  8
LAYER_1
 62
    39
  6
CONTINUOUS
 10
-4.676227
 20
-7.195103
  0
VERTEX
  8
LAYER_1
 62
    39
  6
CONTINUOUS
 10
-4.582462
 20
-7.158641
  0
VERTEX
  8
LAYER_1
 62
    39
  6
CONTINUOUS
 10
-4.488257
 20
-7.121726
  0
VERTEX
  8
LAYER_1
 62
    39
  6
CONTINUOUS
 10
-4.393594
 20
-7.084410
  0
VERTEX
  8
LAYER_1
 62
    39
  6
CONTINUOUS
 10
-4.298455
 20
-7.046748
  0
VERTEX
  8
LAYER_1
 62
    39
  6
CONTINUOUS
 10
-4.202823
 20
-7.008793
  0
VERTEX
  8
LAYER_1
 62
    39
  6
CONTINUOUS
 10
-4.106679
 20
-6.970598
  0
VERTEX
  8
LAYER_1
 62
    39
  6
CONTINUOUS
 10
-4.010005
 20
-6.932217
  0
VERTEX
  8
LAYER_1
 62
    39
  6
CONTINUOUS
 10
-3.912785
 20
-6.893702
  0
VERTEX
  8
LAYER_1
 62
    39
  6
CONTINUOUS
 10
-3.814999
 20
-6.855109
  0
VERTEX
  8
LAYER_1
 62
    39
  6
CONTINUOUS
 10
-3.716629
 20
-6.816489
  0
VERTEX
  8
LAYER_1
 62
    39
  6
CONTINUOUS
 10
-3.617659
 20
-6.777896
  0
VERTEX
  8
LAYER_1
 62
    39
  6
CONTINUOUS
 10
-3.518070
 20
-6.739384
  0
VERTEX
  8
LAYER_1
 62
    39
  6
CONTINUOUS
 10
-3.417844
 20
-6.701006
  0
VERTEX
  8
LAYER_1
 62
    39
  6
CONTINUOUS
 10
-3.316964
 20
-6.662816
  0
VERTEX
  8
LAYER_1
 62
    39
  6
CONTINUOUS
 10
-3.215410
 20
-6.624867
  0
VERTEX
  8
LAYER_1
 62
    39
  6
CONTINUOUS
 10
-3.113167
 20
-6.587212
  0
VERTEX
  8
LAYER_1
 62
    39
  6
CONTINUOUS
 10
-3.010215
 20
-6.549905
  0
VERTEX
  8
LAYER_1
 62
    39
  6
CONTINUOUS
 10
-2.906536
 20
-6.512999
  0
VERTEX
  8
LAYER_1
 62
    39
  6
CONTINUOUS
 10
-2.802114
 20
-6.476548
  0
VERTEX
  8
LAYER_1
 62
    39
  6
CONTINUOUS
 10
-2.696929
 20
-6.440605
  0
VERTEX
  8
LAYER_1
 62
    39
  6
CONTINUOUS
 10
-2.590964
 20
-6.405223
  0
VERTEX
  8
LAYER_1
 62
    39
  6
CONTINUOUS
 10
-2.484202
 20
-6.370456
  0
VERTEX
  8
LAYER_1
 62
    39
  6
CONTINUOUS
 10
-2.376624
 20
-6.336357
  0
VERTEX
  8
LAYER_1
 62
    39
  6
CONTINUOUS
 10
-2.268212
 20
-6.302981
  0
VERTEX
  8
LAYER_1
 62
    39
  6
CONTINUOUS
 10
-2.158948
 20
-6.270379
  0
VERTEX
  8
LAYER_1
 62
    39
  6
CONTINUOUS
 10
-2.048815
 20
-6.238606
  0
VERTEX
  8
LAYER_1
 62
    39
  6
CONTINUOUS
 10
-1.937795
 20
-6.207715
  0
VERTEX
  8
LAYER_1
 62
    39
  6
CONTINUOUS
 10
-1.825870
 20
-6.177759
  0
VERTEX
  8
LAYER_1
 62
    39
  6
CONTINUOUS
 10
-1.713021
 20
-6.148792
  0
VERTEX
  8
LAYER_1
 62
    39
  6
CONTINUOUS
 10
-1.599232
 20
-6.120867
  0
VERTEX
  8
LAYER_1
 62
    39
  6
CONTINUOUS
 10
-1.484483
 20
-6.094038
  0
VERTEX
  8
LAYER_1
 62
    39
  6
CONTINUOUS
 10
-1.368758
 20
-6.068357
  0
VERTEX
  8
LAYER_1
 62
    39
  6
CONTINUOUS
 10
-1.252038
 20
-6.043880
  0
VERTEX
  8
LAYER_1
 62
    39
  6
CONTINUOUS
 10
-1.134305
 20
-6.020658
  0
VERTEX
  8
LAYER_1
 62
    39
  6
CONTINUOUS
 10
-1.015542
 20
-5.998745
  0
VERTEX
  8
LAYER_1
 62
    39
  6
CONTINUOUS
 10
-0.895731
 20
-5.978195
  0
VERTEX
  8
LAYER_1
 62
    39
  6
CONTINUOUS
 10
-0.774853
 20
-5.959062
  0
VERTEX
  8
LAYER_1
 62
    39
  6
CONTINUOUS
 10
-0.652892
 20
-5.941397
  0
VERTEX
  8
LAYER_1
 62
    39
  6
CONTINUOUS
 10
-0.529828
 20
-5.925256
  0
VERTEX
  8
LAYER_1
 62
    39
  6
CONTINUOUS
 10
-0.405644
 20
-5.910691
  0
VERTEX
  8
LAYER_1
 62
    39
  6
CONTINUOUS
 10
-0.280322
 20
-5.897756
  0
VERTEX
  8
LAYER_1
 62
    39
  6
CONTINUOUS
 10
-0.153845
 20
-5.886504
  0
VERTEX
  8
LAYER_1
 62
    39
  6
CONTINUOUS
 10
-0.026194
 20
-5.876989
  0
VERTEX
  8
LAYER_1
 62
    39
  6
CONTINUOUS
 10
0.102649
 20
-5.869264
  0
VERTEX
  8
LAYER_1
 62
    39
  6
CONTINUOUS
 10
0.232701
 20
-5.863382
  0
VERTEX
  8
LAYER_1
 62
    39
  6
CONTINUOUS
 10
0.232701
 20
-5.863382
  0
VERTEX
  8
LAYER_1
 62
    39
  6
CONTINUOUS
 10
0.353731
 20
-5.859884
  0
VERTEX
  8
LAYER_1
 62
    39
  6
CONTINUOUS
 10
0.473799
 20
-5.858547
  0
VERTEX
  8
LAYER_1
 62
    39
  6
CONTINUOUS
 10
0.592920
 20
-5.859316
  0
VERTEX
  8
LAYER_1
 62
    39
  6
CONTINUOUS
 10
0.711107
 20
-5.862135
  0
VERTEX
  8
LAYER_1
 62
    39
  6
CONTINUOUS
 10
0.828374
 20
-5.866949
  0
VERTEX
  8
LAYER_1
 62
    39
  6
CONTINUOUS
 10
0.944735
 20
-5.873702
  0
VERTEX
  8
LAYER_1
 62
    39
  6
CONTINUOUS
 10
1.060202
 20
-5.882341
  0
VERTEX
  8
LAYER_1
 62
    39
  6
CONTINUOUS
 10
1.174791
 20
-5.892808
  0
VERTEX
  8
LAYER_1
 62
    39
  6
CONTINUOUS
 10
1.288514
 20
-5.905050
  0
VERTEX
  8
LAYER_1
 62
    39
  6
CONTINUOUS
 10
1.401385
 20
-5.919010
  0
VERTEX
  8
LAYER_1
 62
    39
  6
CONTINUOUS
 10
1.513418
 20
-5.934635
  0
VERTEX
  8
LAYER_1
 62
    39
  6
CONTINUOUS
 10
1.624627
 20
-5.951867
  0
VERTEX
  8
LAYER_1
 62
    39
  6
CONTINUOUS
 10
1.735025
 20
-5.970653
  0
VERTEX
  8
LAYER_1
 62
    39
  6
CONTINUOUS
 10
1.844627
 20
-5.990936
  0
VERTEX
  8
LAYER_1
 62
    39
  6
CONTINUOUS
 10
1.953445
 20
-6.012663
  0
VERTEX
  8
LAYER_1
 62
    39
  6
CONTINUOUS
 10
2.061493
 20
-6.035776
  0
VERTEX
  8
LAYER_1
 62
    39
  6
CONTINUOUS
 10
2.168785
 20
-6.060222
  0
VERTEX
  8
LAYER_1
 62
    39
  6
CONTINUOUS
 10
2.275336
 20
-6.085946
  0
VERTEX
  8
LAYER_1
 62
    39
  6
CONTINUOUS
 10
2.381158
 20
-6.112890
  0
VERTEX
  8
LAYER_1
 62
    39
  6
CONTINUOUS
 10
2.486265
 20
-6.141002
  0
VERTEX
  8
LAYER_1
 62
    39
  6
CONTINUOUS
 10
2.590671
 20
-6.170224
  0
VERTEX
  8
LAYER_1
 62
    39
  6
CONTINUOUS
 10
2.694389
 20
-6.200503
  0
VERTEX
  8
LAYER_1
 62
    39
  6
CONTINUOUS
 10
2.797434
 20
-6.231783
  0
VERTEX
  8
LAYER_1
 62
    39
  6
CONTINUOUS
 10
2.899819
 20
-6.264008
  0
VERTEX
  8
LAYER_1
 62
    39
  6
CONTINUOUS
 10
3.001557
 20
-6.297124
  0
VERTEX
  8
LAYER_1
 62
    39
  6
CONTINUOUS
 10
3.102663
 20
-6.331075
  0
VERTEX
  8
LAYER_1
 62
    39
  6
CONTINUOUS
 10
3.203150
 20
-6.365805
  0
VERTEX
  8
LAYER_1
 62
    39
  6
CONTINUOUS
 10
3.303031
 20
-6.401261
  0
VERTEX
  8
LAYER_1
 62
    39
  6
CONTINUOUS
 10
3.402321
 20
-6.437386
  0
VERTEX
  8
LAYER_1
 62
    39
  6
CONTINUOUS
 10
3.501033
 20
-6.474125
  0
VERTEX
  8
LAYER_1
 62
    39
  6
CONTINUOUS
 10
3.599181
 20
-6.511423
  0
VERTEX
  8
LAYER_1
 62
    39
  6
CONTINUOUS
 10
3.696779
 20
-6.549225
  0
VERTEX
  8
LAYER_1
 62
    39
  6
CONTINUOUS
 10
3.793839
 20
-6.587476
  0
VERTEX
  8
LAYER_1
 62
    39
  6
CONTINUOUS
 10
3.890377
 20
-6.626119
  0
VERTEX
  8
LAYER_1
 62
    39
  6
CONTINUOUS
 10
3.986405
 20
-6.665101
  0
VERTEX
  8
LAYER_1
 62
    39
  6
CONTINUOUS
 10
4.081937
 20
-6.704366
  0
VERTEX
  8
LAYER_1
 62
    39
  6
CONTINUOUS
 10
4.176988
 20
-6.743859
  0
VERTEX
  8
LAYER_1
 62
    39
  6
CONTINUOUS
 10
4.271570
 20
-6.783523
  0
VERTEX
  8
LAYER_1
 62
    39
  6
CONTINUOUS
 10
4.365697
 20
-6.823305
  0
VERTEX
  8
LAYER_1
 62
    39
  6
CONTINUOUS
 10
4.459384
 20
-6.863149
  0
VERTEX
  8
LAYER_1
 62
    39
  6
CONTINUOUS
 10
4.552643
 20
-6.903000
  0
VERTEX
  8
LAYER_1
 62
    39
  6
CONTINUOUS
 10
4.645489
 20
-6.942802
  0
VERTEX
  8
LAYER_1
 62
    39
  6
CONTINUOUS
 10
4.737935
 20
-6.982500
  0
VERTEX
  8
LAYER_1
 62
    39
  6
CONTINUOUS
 10
4.829994
 20
-7.022039
  0
VERTEX
  8
LAYER_1
 62
    39
  6
CONTINUOUS
 10
4.921681
 20
-7.061364
  0
VERTEX
  8
LAYER_1
 62
    39
  6
CONTINUOUS
 10
5.013010
 20
-7.100420
  0
VERTEX
  8
LAYER_1
 62
    39
  6
CONTINUOUS
 10
5.103993
 20
-7.139151
  0
VERTEX
  8
LAYER_1
 62
    39
  6
CONTINUOUS
 10
5.194645
 20
-7.177502
  0
VERTEX
  8
LAYER_1
 62
    39
  6
CONTINUOUS
 10
5.284979
 20
-7.215418
  0
VERTEX
  8
LAYER_1
 62
    39
  6
CONTINUOUS
 10
5.375009
 20
-7.252843
  0
VERTEX
  8
LAYER_1
 62
    39
  6
CONTINUOUS
 10
5.464749
 20
-7.289723
  0
VERTEX
  8
LAYER_1
 62
    39
  6
CONTINUOUS
 10
5.554212
 20
-7.326002
  0
VERTEX
  8
LAYER_1
 62
    39
  6
CONTINUOUS
 10
5.643413
 20
-7.361625
  0
VERTEX
  8
LAYER_1
 62
    39
  6
CONTINUOUS
 10
5.732364
 20
-7.396536
  0
VERTEX
  8
LAYER_1
 62
    39
  6
CONTINUOUS
 10
5.821079
 20
-7.430681
  0
VERTEX
  8
LAYER_1
 62
    39
  6
CONTINUOUS
 10
5.909573
 20
-7.464005
  0
VERTEX
  8
LAYER_1
 62
    39
  6
CONTINUOUS
 10
5.997858
 20
-7.496451
  0
VERTEX
  8
LAYER_1
 62
    39
  6
CONTINUOUS
 10
6.085949
 20
-7.527965
  0
VERTEX
  8
LAYER_1
 62
    39
  6
CONTINUOUS
 10
6.173860
 20
-7.558492
  0
VERTEX
  8
LAYER_1
 62
    39
  6
CONTINUOUS
 10
6.261603
 20
-7.587976
  0
VERTEX
  8
LAYER_1
 62
    39
  6
CONTINUOUS
 10
6.349192
 20
-7.616362
  0
VERTEX
  8
LAYER_1
 62
    39
  6
CONTINUOUS
 10
6.436643
 20
-7.643595
  0
VERTEX
  8
LAYER_1
 62
    39
  6
CONTINUOUS
 10
6.523967
 20
-7.669619
  0
VERTEX
  8
LAYER_1
 62
    39
  6
CONTINUOUS
 10
6.611178
 20
-7.694380
  0
VERTEX
  8
LAYER_1
 62
    39
  6
CONTINUOUS
 10
6.698292
 20
-7.717822
  0
VERTEX
  8
LAYER_1
 62
    39
  6
CONTINUOUS
 10
6.785320
 20
-7.739890
  0
VERTEX
  8
LAYER_1
 62
    39
  6
CONTINUOUS
 10
6.872277
 20
-7.760528
  0
VERTEX
  8
LAYER_1
 62
    39
  6
CONTINUOUS
 10
6.959176
 20
-7.779682
  0
VERTEX
  8
LAYER_1
 62
    39
  6
CONTINUOUS
 10
7.046032
 20
-7.797297
  0
VERTEX
  8
LAYER_1
 62
    39
  6
CONTINUOUS
 10
7.132857
 20
-7.813316
  0
VERTEX
  8
LAYER_1
 62
    39
  6
CONTINUOUS
 10
7.219666
 20
-7.827685
  0
VERTEX
  8
LAYER_1
 62
    39
  6
CONTINUOUS
 10
7.306472
 20
-7.840349
  0
VERTEX
  8
LAYER_1
 62
    39
  6
CONTINUOUS
 10
7.393290
 20
-7.851252
  0
VERTEX
  8
LAYER_1
 62
    39
  6
CONTINUOUS
 10
7.480131
 20
-7.860339
  0
VERTEX
  8
LAYER_1
 62
    39
  6
CONTINUOUS
 10
7.567011
 20
-7.867554
  0
VERTEX
  8
LAYER_1
 62
    39
  6
CONTINUOUS
 10
7.653944
 20
-7.872844
  0
VERTEX
  8
LAYER_1
 62
    39
  6
CONTINUOUS
 10
7.740941
 20
-7.876152
  0
VERTEX
  8
LAYER_1
 62
    39
  6
CONTINUOUS
 10
7.828019
 20
-7.877423
  0
VERTEX
  8
LAYER_1
 62
    39
  6
CONTINUOUS
 10
7.915189
 20
-7.876602
  0
VERTEX
  8
LAYER_1
 62
    39
  6
CONTINUOUS
 10
8.002466
 20
-7.873633
  0
VERTEX
  8
LAYER_1
 62
    39
  6
CONTINUOUS
 10
8.089863
 20
-7.868462
  0
VERTEX
  8
LAYER_1
 62
    39
  6
CONTINUOUS
 10
8.177395
 20
-7.861034
  0
VERTEX
  8
LAYER_1
 62
    39
  6
CONTINUOUS
 10
8.265075
 20
-7.851292
  0
VERTEX
  8
LAYER_1
 62
    39
  6
CONTINUOUS
 10
8.352916
 20
-7.839182
  0
VERTEX
  8
LAYER_1
 62
    39
  6
CONTINUOUS
 10
8.440932
 20
-7.824648
  0
VERTEX
  8
LAYER_1
 62
    39
  6
CONTINUOUS
 10
8.529137
 20
-7.807636
  0
VERTEX
  8
LAYER_1
 62
    39
  6
CONTINUOUS
 10
8.617545
 20
-7.788090
  0
VERTEX
  8
LAYER_1
 62
    39
  6
CONTINUOUS
 10
8.706170
 20
-7.765955
  0
VERTEX
  8
LAYER_1
 62
    39
  6
CONTINUOUS
 10
8.795024
 20
-7.741175
  0
VERTEX
  8
LAYER_1
 62
    39
  6
CONTINUOUS
 10
8.884122
 20
-7.713696
  0
VERTEX
  8
LAYER_1
 62
    39
  6
CONTINUOUS
 10
8.973477
 20
-7.683462
  0
VERTEX
  8
LAYER_1
 62
    39
  6
CONTINUOUS
 10
9.063104
 20
-7.650418
  0
VERTEX
  8
LAYER_1
 62
    39
  6
CONTINUOUS
 10
9.153015
 20
-7.614508
  0
VERTEX
  8
LAYER_1
 62
    39
  6
CONTINUOUS
 10
9.243225
 20
-7.575678
  0
VERTEX
  8
LAYER_1
 62
    39
  6
CONTINUOUS
 10
9.333747
 20
-7.533872
  0
VERTEX
  8
LAYER_1
 62
    39
  6
CONTINUOUS
 10
9.424594
 20
-7.489035
  0
VERTEX
  8
LAYER_1
 62
    39
  6
CONTINUOUS
 10
9.515782
 20
-7.441112
  0
VERTEX
  8
LAYER_1
 62
    39
  6
CONTINUOUS
 10
9.607322
 20
-7.390048
  0
VERTEX
  8
LAYER_1
 62
    39
  6
CONTINUOUS
 10
9.699230
 20
-7.335787
  0
VERTEX
  8
LAYER_1
 62
    39
  6
CONTINUOUS
 10
9.791518
 20
-7.278273
  0
VERTEX
  8
LAYER_1
 62
    39
  6
CONTINUOUS
 10
9.884201
 20
-7.217453
  0
VERTEX
  8
LAYER_1
 62
    39
  6
CONTINUOUS
 10
9.977291
 20
-7.153270
  0
VERTEX
  8
LAYER_1
 62
    39
  6
CONTINUOUS
 10
10.070803
 20
-7.085670
  0
VERTEX
  8
LAYER_1
 62
    39
  6
CONTINUOUS
 10
10.164751
 20
-7.014597
  0
VERTEX
  8
LAYER_1
 62
    39
  6
CONTINUOUS
 10
10.259148
 20
-6.939995
  0
VERTEX
  8
LAYER_1
 62
    39
  6
CONTINUOUS
 10
10.354008
 20
-6.861811
  0
VERTEX
  8
LAYER_1
 62
    39
  6
CONTINUOUS
 10
10.449344
 20
-6.779988
  0
VERTEX
  8
LAYER_1
 62
    39
  6
CONTINUOUS
 10
10.545170
 20
-6.694471
  0
VERTEX
  8
LAYER_1
 62
    39
  6
CONTINUOUS
 10
10.641500
 20
-6.605205
  0
VERTEX
  8
LAYER_1
 62
    39
  6
CONTINUOUS
 10
10.641500
 20
-6.605205
  0
VERTEX
  8
LAYER_1
 62
    39
  6
CONTINUOUS
 10
10.751652
 20
-6.516364
  0
VERTEX
  8
LAYER_1
 62
    39
  6
CONTINUOUS
 10
10.863032
 20
-6.455199
  0
VERTEX
  8
LAYER_1
 62
    39
  6
CONTINUOUS
 10
10.974695
 20
-6.420490
  0
VERTEX
  8
LAYER_1
 62
    39
  6
CONTINUOUS
 10
11.085696
 20
-6.411018
  0
VERTEX
  8
LAYER_1
 62
    39
  6
CONTINUOUS
 10
11.195088
 20
-6.425565
  0
VERTEX
  8
LAYER_1
 62
    39
  6
CONTINUOUS
 10
11.301926
 20
-6.462911
  0
VERTEX
  8
LAYER_1
 62
    39
  6
CONTINUOUS
 10
11.405264
 20
-6.521838
  0
VERTEX
  8
LAYER_1
 62
    39
  6
CONTINUOUS
 10
11.504157
 20
-6.601127
  0
VERTEX
  8
LAYER_1
 62
    39
  6
CONTINUOUS
 10
11.597657
 20
-6.699559
  0
VERTEX
  8
LAYER_1
 62
    39
  6
CONTINUOUS
 10
11.684821
 20
-6.815915
  0
VERTEX
  8
LAYER_1
 62
    39
  6
CONTINUOUS
 10
11.764701
 20
-6.948976
  0
VERTEX
  8
LAYER_1
 62
    39
  6
CONTINUOUS
 10
11.815931
 20
-7.049428
  0
VERTEX
  8
LAYER_1
 62
    39
  6
CONTINUOUS
 10
11.864508
 20
-7.155487
  0
VERTEX
  8
LAYER_1
 62
    39
  6
CONTINUOUS
 10
11.910372
 20
-7.266936
  0
VERTEX
  8
LAYER_1
 62
    39
  6
CONTINUOUS
 10
11.953466
 20
-7.383559
  0
VERTEX
  8
LAYER_1
 62
    39
  6
CONTINUOUS
 10
11.993732
 20
-7.505138
  0
VERTEX
  8
LAYER_1
 62
    39
  6
CONTINUOUS
 10
12.031110
 20
-7.631456
  0
VERTEX
  8
LAYER_1
 62
    39
  6
CONTINUOUS
 10
12.065544
 20
-7.762296
  0
VERTEX
  8
LAYER_1
 62
    39
  6
CONTINUOUS
 10
12.096974
 20
-7.897442
  0
VERTEX
  8
LAYER_1
 62
    39
  6
CONTINUOUS
 10
12.125343
 20
-8.036677
  0
VERTEX
  8
LAYER_1
 62
    39
  6
CONTINUOUS
 10
12.150593
 20
-8.179782
  0
VERTEX
  8
LAYER_1
 62
    39
  6
CONTINUOUS
 10
12.172665
 20
-8.326542
  0
VERTEX
  8
LAYER_1
 62
    39
  6
CONTINUOUS
 10
12.191500
 20
-8.476740
  0
VERTEX
  8
LAYER_1
 62
    39
  6
CONTINUOUS
 10
12.207042
 20
-8.630157
  0
VERTEX
  8
LAYER_1
 62
    39
  6
CONTINUOUS
 10
12.219231
 20
-8.786579
  0
VERTEX
  8
LAYER_1
 62
    39
  6
CONTINUOUS
 10
12.228010
 20
-8.945786
  0
VERTEX
  8
LAYER_1
 62
    39
  6
CONTINUOUS
 10
12.233319
 20
-9.107563
  0
VERTEX
  8
LAYER_1
 62
    39
  6
CONTINUOUS
 10
12.235102
 20
-9.271693
  0
VERTEX
  8
LAYER_1
 62
    39
  6
CONTINUOUS
 10
12.233511
 20
-9.419335
  0
VERTEX
  8
LAYER_1
 62
    39
  6
CONTINUOUS
 10
12.228800
 20
-9.565800
  0
VERTEX
  8
LAYER_1
 62
    39
  6
CONTINUOUS
 10
12.221067
 20
-9.710991
  0
VERTEX
  8
LAYER_1
 62
    39
  6
CONTINUOUS
 10
12.210407
 20
-9.854810
  0
VERTEX
  8
LAYER_1
 62
    39
  6
CONTINUOUS
 10
12.196916
 20
-9.997159
  0
VERTEX
  8
LAYER_1
 62
    39
  6
CONTINUOUS
 10
12.180691
 20
-10.137940
  0
VERTEX
  8
LAYER_1
 62
    39
  6
CONTINUOUS
 10
12.161828
 20
-10.277056
  0
VERTEX
  8
LAYER_1
 62
    39
  6
CONTINUOUS
 10
12.140422
 20
-10.414409
  0
VERTEX
  8
LAYER_1
 62
    39
  6
CONTINUOUS
 10
12.116571
 20
-10.549901
  0
VERTEX
  8
LAYER_1
 62
    39
  6
CONTINUOUS
 10
12.090371
 20
-10.683435
  0
VERTEX
  8
LAYER_1
 62
    39
  6
CONTINUOUS
 10
12.061917
 20
-10.814914
  0
VERTEX
  8
LAYER_1
 62
    39
  6
CONTINUOUS
 10
12.031305
 20
-10.944238
  0
VERTEX
  8
LAYER_1
 62
    39
  6
CONTINUOUS
 10
11.998633
 20
-11.071311
  0
VERTEX
  8
LAYER_1
 62
    39
  6
CONTINUOUS
 10
11.963996
 20
-11.196035
  0
VERTEX
  8
LAYER_1
 62
    39
  6
CONTINUOUS
 10
11.927489
 20
-11.318312
  0
VERTEX
  8
LAYER_1
 62
    39
  6
CONTINUOUS
 10
11.889211
 20
-11.438045
  0
VERTEX
  8
LAYER_1
 62
    39
  6
CONTINUOUS
 10
11.849256
 20
-11.555136
  0
VERTEX
  8
LAYER_1
 62
    39
  6
CONTINUOUS
 10
11.807720
 20
-11.669487
  0
VERTEX
  8
LAYER_1
 62
    39
  6
CONTINUOUS
 10
11.764701
 20
-11.781000
  0
VERTEX
  8
LAYER_1
 62
    39
  6
CONTINUOUS
 10
11.764701
 20
-11.781000
  0
VERTEX
  8
LAYER_1
 62
    39
  6
CONTINUOUS
 10
11.703534
 20
-11.930273
  0
VERTEX
  8
LAYER_1
 62
    39
  6
CONTINUOUS
 10
11.639780
 20
-12.076782
  0
VERTEX
  8
LAYER_1
 62
    39
  6
CONTINUOUS
 10
11.573581
 20
-12.220274
  0
VERTEX
  8
LAYER_1
 62
    39
  6
CONTINUOUS
 10
11.505085
 20
-12.360493
  0
VERTEX
  8
LAYER_1
 62
    39
  6
CONTINUOUS
 10
11.434436
 20
-12.497185
  0
VERTEX
  8
LAYER_1
 62
    39
  6
CONTINUOUS
 10
11.361779
 20
-12.630094
  0
VERTEX
  8
LAYER_1
 62
    39
  6
CONTINUOUS
 10
11.287260
 20
-12.758968
  0
VERTEX
  8
LAYER_1
 62
    39
  6
CONTINUOUS
 10
11.211024
 20
-12.883550
  0
VERTEX
  8
LAYER_1
 62
    39
  6
CONTINUOUS
 10
11.133217
 20
-13.003586
  0
VERTEX
  8
LAYER_1
 62
    39
  6
CONTINUOUS
 10
11.053983
 20
-13.118821
  0
VERTEX
  8
LAYER_1
 62
    39
  6
CONTINUOUS
 10
10.973468
 20
-13.229000
  0
VERTEX
  8
LAYER_1
 62
    39
  6
CONTINUOUS
 10
10.891816
 20
-13.333870
  0
VERTEX
  8
LAYER_1
 62
    39
  6
CONTINUOUS
 10
10.809175
 20
-13.433175
  0
VERTEX
  8
LAYER_1
 62
    39
  6
CONTINUOUS
 10
10.725687
 20
-13.526660
  0
VERTEX
  8
LAYER_1
 62
    39
  6
CONTINUOUS
 10
10.641500
 20
-13.614071
  0
VERTEX
  8
LAYER_1
 62
    39
  6
CONTINUOUS
 10
10.549139
 20
-13.704413
  0
VERTEX
  8
LAYER_1
 62
    39
  6
CONTINUOUS
 10
10.457097
 20
-13.790867
  0
VERTEX
  8
LAYER_1
 62
    39
  6
CONTINUOUS
 10
10.365367
 20
-13.873491
  0
VERTEX
  8
LAYER_1
 62
    39
  6
CONTINUOUS
 10
10.273939
 20
-13.952342
  0
VERTEX
  8
LAYER_1
 62
    39
  6
CONTINUOUS
 10
10.182805
 20
-14.027477
  0
VERTEX
  8
LAYER_1
 62
    39
  6
CONTINUOUS
 10
10.091957
 20
-14.098954
  0
VERTEX
  8
LAYER_1
 62
    39
  6
CONTINUOUS
 10
10.001386
 20
-14.166831
  0
VERTEX
  8
LAYER_1
 62
    39
  6
CONTINUOUS
 10
9.911084
 20
-14.231165
  0
VERTEX
  8
LAYER_1
 62
    39
  6
CONTINUOUS
 10
9.821041
 20
-14.292014
  0
VERTEX
  8
LAYER_1
 62
    39
  6
CONTINUOUS
 10
9.731251
 20
-14.349434
  0
VERTEX
  8
LAYER_1
 62
    39
  6
CONTINUOUS
 10
9.641703
 20
-14.403484
  0
VERTEX
  8
LAYER_1
 62
    39
  6
CONTINUOUS
 10
9.552389
 20
-14.454221
  0
VERTEX
  8
LAYER_1
 62
    39
  6
CONTINUOUS
 10
9.463302
 20
-14.501703
  0
VERTEX
  8
LAYER_1
 62
    39
  6
CONTINUOUS
 10
9.374432
 20
-14.545986
  0
VERTEX
  8
LAYER_1
 62
    39
  6
CONTINUOUS
 10
9.285770
 20
-14.587129
  0
VERTEX
  8
LAYER_1
 62
    39
  6
CONTINUOUS
 10
9.197310
 20
-14.625189
  0
VERTEX
  8
LAYER_1
 62
    39
  6
CONTINUOUS
 10
9.109041
 20
-14.660224
  0
VERTEX
  8
LAYER_1
 62
    39
  6
CONTINUOUS
 10
9.020955
 20
-14.692290
  0
VERTEX
  8
LAYER_1
 62
    39
  6
CONTINUOUS
 10
8.933044
 20
-14.721446
  0
VERTEX
  8
LAYER_1
 62
    39
  6
CONTINUOUS
 10
8.845300
 20
-14.747749
  0
VERTEX
  8
LAYER_1
 62
    39
  6
CONTINUOUS
 10
8.757713
 20
-14.771256
  0
VERTEX
  8
LAYER_1
 62
    39
  6
CONTINUOUS
 10
8.670276
 20
-14.792025
  0
VERTEX
  8
LAYER_1
 62
    39
  6
CONTINUOUS
 10
8.582979
 20
-14.810114
  0
VERTEX
  8
LAYER_1
 62
    39
  6
CONTINUOUS
 10
8.495815
 20
-14.825579
  0
VERTEX
  8
LAYER_1
 62
    39
  6
CONTINUOUS
 10
8.408774
 20
-14.838479
  0
VERTEX
  8
LAYER_1
 62
    39
  6
CONTINUOUS
 10
8.321849
 20
-14.848871
  0
VERTEX
  8
LAYER_1
 62
    39
  6
CONTINUOUS
 10
8.235030
 20
-14.856812
  0
VERTEX
  8
LAYER_1
 62
    39
  6
CONTINUOUS
 10
8.148309
 20
-14.862361
  0
VERTEX
  8
LAYER_1
 62
    39
  6
CONTINUOUS
 10
8.061678
 20
-14.865573
  0
VERTEX
  8
LAYER_1
 62
    39
  6
CONTINUOUS
 10
7.975129
 20
-14.866507
  0
VERTEX
  8
LAYER_1
 62
    39
  6
CONTINUOUS
 10
7.888651
 20
-14.865221
  0
VERTEX
  8
LAYER_1
 62
    39
  6
CONTINUOUS
 10
7.802238
 20
-14.861772
  0
VERTEX
  8
LAYER_1
 62
    39
  6
CONTINUOUS
 10
7.715880
 20
-14.856217
  0
VERTEX
  8
LAYER_1
 62
    39
  6
CONTINUOUS
 10
7.629569
 20
-14.848614
  0
VERTEX
  8
LAYER_1
 62
    39
  6
CONTINUOUS
 10
7.543297
 20
-14.839020
  0
VERTEX
  8
LAYER_1
 62
    39
  6
CONTINUOUS
 10
7.457055
 20
-14.827493
  0
VERTEX
  8
LAYER_1
 62
    39
  6
CONTINUOUS
 10
7.370834
 20
-14.814090
  0
VERTEX
  8
LAYER_1
 62
    39
  6
CONTINUOUS
 10
7.284627
 20
-14.798870
  0
VERTEX
  8
LAYER_1
 62
    39
  6
CONTINUOUS
 10
7.198423
 20
-14.781888
  0
VERTEX
  8
LAYER_1
 62
    39
  6
CONTINUOUS
 10
7.112216
 20
-14.763203
  0
VERTEX
  8
LAYER_1
 62
    39
  6
CONTINUOUS
 10
7.025996
 20
-14.742873
  0
VERTEX
  8
LAYER_1
 62
    39
  6
CONTINUOUS
 10
6.939755
 20
-14.720954
  0
VERTEX
  8
LAYER_1
 62
    39
  6
CONTINUOUS
 10
6.853484
 20
-14.697505
  0
VERTEX
  8
LAYER_1
 62
    39
  6
CONTINUOUS
 10
6.767175
 20
-14.672583
  0
VERTEX
  8
LAYER_1
 62
    39
  6
CONTINUOUS
 10
6.680819
 20
-14.646244
  0
VERTEX
  8
LAYER_1
 62
    39
  6
CONTINUOUS
 10
6.594408
 20
-14.618548
  0
VERTEX
  8
LAYER_1
 62
    39
  6
CONTINUOUS
 10
6.507933
 20
-14.589551
  0
VERTEX
  8
LAYER_1
 62
    39
  6
CONTINUOUS
 10
6.421387
 20
-14.559310
  0
VERTEX
  8
LAYER_1
 62
    39
  6
CONTINUOUS
 10
6.334759
 20
-14.527884
  0
VERTEX
  8
LAYER_1
 62
    39
  6
CONTINUOUS
 10
6.248042
 20
-14.495330
  0
VERTEX
  8
LAYER_1
 62
    39
  6
CONTINUOUS
 10
6.161227
 20
-14.461705
  0
VERTEX
  8
LAYER_1
 62
    39
  6
CONTINUOUS
 10
6.074306
 20
-14.427066
  0
VERTEX
  8
LAYER_1
 62
    39
  6
CONTINUOUS
 10
5.987270
 20
-14.391472
  0
VERTEX
  8
LAYER_1
 62
    39
  6
CONTINUOUS
 10
5.900111
 20
-14.354979
  0
VERTEX
  8
LAYER_1
 62
    39
  6
CONTINUOUS
 10
5.812819
 20
-14.317646
  0
VERTEX
  8
LAYER_1
 62
    39
  6
CONTINUOUS
 10
5.725388
 20
-14.279529
  0
VERTEX
  8
LAYER_1
 62
    39
  6
CONTINUOUS
 10
5.637807
 20
-14.240687
  0
VERTEX
  8
LAYER_1
 62
    39
  6
CONTINUOUS
 10
5.550069
 20
-14.201176
  0
VERTEX
  8
LAYER_1
 62
    39
  6
CONTINUOUS
 10
5.462165
 20
-14.161055
  0
VERTEX
  8
LAYER_1
 62
    39
  6
CONTINUOUS
 10
5.374087
 20
-14.120380
  0
VERTEX
  8
LAYER_1
 62
    39
  6
CONTINUOUS
 10
5.285825
 20
-14.079209
  0
VERTEX
  8
LAYER_1
 62
    39
  6
CONTINUOUS
 10
5.197372
 20
-14.037600
  0
VERTEX
  8
LAYER_1
 62
    39
  6
CONTINUOUS
 10
5.108719
 20
-13.995610
  0
VERTEX
  8
LAYER_1
 62
    39
  6
CONTINUOUS
 10
5.019857
 20
-13.953297
  0
VERTEX
  8
LAYER_1
 62
    39
  6
CONTINUOUS
 10
4.930778
 20
-13.910718
  0
VERTEX
  8
LAYER_1
 62
    39
  6
CONTINUOUS
 10
4.841474
 20
-13.867930
  0
VERTEX
  8
LAYER_1
 62
    39
  6
CONTINUOUS
 10
4.751936
 20
-13.824992
  0
VERTEX
  8
LAYER_1
 62
    39
  6
CONTINUOUS
 10
4.662154
 20
-13.781960
  0
VERTEX
  8
LAYER_1
 62
    39
  6
CONTINUOUS
 10
4.572122
 20
-13.738893
  0
VERTEX
  8
LAYER_1
 62
    39
  6
CONTINUOUS
 10
4.481830
 20
-13.695847
  0
VERTEX
  8
LAYER_1
 62
    39
  6
CONTINUOUS
 10
4.391270
 20
-13.652880
  0
VERTEX
  8
LAYER_1
 62
    39
  6
CONTINUOUS
 10
4.300433
 20
-13.610050
  0
VERTEX
  8
LAYER_1
 62
    39
  6
CONTINUOUS
 10
4.209310
 20
-13.567413
  0
VERTEX
  8
LAYER_1
 62
    39
  6
CONTINUOUS
 10
4.117894
 20
-13.525029
  0
VERTEX
  8
LAYER_1
 62
    39
  6
CONTINUOUS
 10
4.026176
 20
-13.482953
  0
VERTEX
  8
LAYER_1
 62
    39
  6
CONTINUOUS
 10
3.934147
 20
-13.441244
  0
VERTEX
  8
LAYER_1
 62
    39
  6
CONTINUOUS
 10
3.841799
 20
-13.399959
  0
VERTEX
  8
LAYER_1
 62
    39
  6
CONTINUOUS
 10
3.749122
 20
-13.359156
  0
VERTEX
  8
LAYER_1
 62
    39
  6
CONTINUOUS
 10
3.656109
 20
-13.318892
  0
VERTEX
  8
LAYER_1
 62
    39
  6
CONTINUOUS
 10
3.562752
 20
-13.279224
  0
VERTEX
  8
LAYER_1
 62
    39
  6
CONTINUOUS
 10
3.469041
 20
-13.240210
  0
VERTEX
  8
LAYER_1
 62
    39
  6
CONTINUOUS
 10
3.374968
 20
-13.201908
  0
VERTEX
  8
LAYER_1
 62
    39
  6
CONTINUOUS
 10
3.280525
 20
-13.164375
  0
VERTEX
  8
LAYER_1
 62
    39
  6
CONTINUOUS
 10
3.185702
 20
-13.127668
  0
VERTEX
  8
LAYER_1
 62
    39
  6
CONTINUOUS
 10
3.090492
 20
-13.091845
  0
VERTEX
  8
LAYER_1
 62
    39
  6
CONTINUOUS
 10
2.994886
 20
-13.056964
  0
VERTEX
  8
LAYER_1
 62
    39
  6
CONTINUOUS
 10
2.898876
 20
-13.023082
  0
VERTEX
  8
LAYER_1
 62
    39
  6
CONTINUOUS
 10
2.802452
 20
-12.990256
  0
VERTEX
  8
LAYER_1
 62
    39
  6
CONTINUOUS
 10
2.705607
 20
-12.958544
  0
VERTEX
  8
LAYER_1
 62
    39
  6
CONTINUOUS
 10
2.608332
 20
-12.928004
  0
VERTEX
  8
LAYER_1
 62
    39
  6
CONTINUOUS
 10
2.510618
 20
-12.898693
  0
VERTEX
  8
LAYER_1
 62
    39
  6
CONTINUOUS
 10
2.412458
 20
-12.870668
  0
VERTEX
  8
LAYER_1
 62
    39
  6
CONTINUOUS
 10
2.313841
 20
-12.843987
  0
VERTEX
  8
LAYER_1
 62
    39
  6
CONTINUOUS
 10
2.214760
 20
-12.818707
  0
VERTEX
  8
LAYER_1
 62
    39
  6
CONTINUOUS
 10
2.115207
 20
-12.794887
  0
VERTEX
  8
LAYER_1
 62
    39
  6
CONTINUOUS
 10
2.015172
 20
-12.772583
  0
VERTEX
  8
LAYER_1
 62
    39
  6
CONTINUOUS
 10
1.914648
 20
-12.751853
  0
VERTEX
  8
LAYER_1
 62
    39
  6
CONTINUOUS
 10
1.813625
 20
-12.732754
  0
VERTEX
  8
LAYER_1
 62
    39
  6
CONTINUOUS
 10
1.712096
 20
-12.715344
  0
VERTEX
  8
LAYER_1
 62
    39
  6
CONTINUOUS
 10
1.610051
 20
-12.699681
  0
VERTEX
  8
LAYER_1
 62
    39
  6
CONTINUOUS
 10
1.507482
 20
-12.685821
  0
VERTEX
  8
LAYER_1
 62
    39
  6
CONTINUOUS
 10
1.404381
 20
-12.673823
  0
VERTEX
  8
LAYER_1
 62
    39
  6
CONTINUOUS
 10
1.300740
 20
-12.663744
  0
VERTEX
  8
LAYER_1
 62
    39
  6
CONTINUOUS
 10
1.196549
 20
-12.655641
  0
VERTEX
  8
LAYER_1
 62
    39
  6
CONTINUOUS
 10
1.091800
 20
-12.649572
  0
VERTEX
  8
LAYER_1
 62
    39
  6
CONTINUOUS
 10
0.986484
 20
-12.645594
  0
VERTEX
  8
LAYER_1
 62
    39
  6
CONTINUOUS
 10
0.880594
 20
-12.643765
  0
VERTEX
  8
LAYER_1
 62
    39
  6
CONTINUOUS
 10
0.774120
 20
-12.644143
  0
VERTEX
  8
LAYER_1
 62
    39
  6
CONTINUOUS
 10
0.667054
 20
-12.646784
  0
VERTEX
  8
LAYER_1
 62
    39
  6
CONTINUOUS
 10
0.559388
 20
-12.651747
  0
VERTEX
  8
LAYER_1
 62
    39
  6
CONTINUOUS
 10
0.451113
 20
-12.659088
  0
VERTEX
  8
LAYER_1
 62
    39
  6
CONTINUOUS
 10
0.342220
 20
-12.668866
  0
VERTEX
  8
LAYER_1
 62
    39
  6
CONTINUOUS
 10
0.232701
 20
-12.681138
  0
VERTEX
  8
LAYER_1
 62
    39
  6
CONTINUOUS
 10
0.232701
 20
-12.681138
  0
VERTEX
  8
LAYER_1
 62
    39
  6
CONTINUOUS
 10
0.097155
 20
-12.698665
  0
VERTEX
  8
LAYER_1
 62
    39
  6
CONTINUOUS
 10
-0.037043
 20
-12.717633
  0
VERTEX
  8
LAYER_1
 62
    39
  6
CONTINUOUS
 10
-0.169913
 20
-12.737991
  0
VERTEX
  8
LAYER_1
 62
    39
  6
CONTINUOUS
 10
-0.301476
 20
-12.759689
  0
VERTEX
  8
LAYER_1
 62
    39
  6
CONTINUOUS
 10
-0.431751
 20
-12.782677
  0
VERTEX
  8
LAYER_1
 62
    39
  6
CONTINUOUS
 10
-0.560761
 20
-12.806906
  0
VERTEX
  8
LAYER_1
 62
    39
  6
CONTINUOUS
 10
-0.688525
 20
-12.832326
  0
VERTEX
  8
LAYER_1
 62
    39
  6
CONTINUOUS
 10
-0.815064
 20
-12.858886
  0
VERTEX
  8
LAYER_1
 62
    39
  6
CONTINUOUS
 10
-0.940399
 20
-12.886537
  0
VERTEX
  8
LAYER_1
 62
    39
  6
CONTINUOUS
 10
-1.064549
 20
-12.915228
  0
VERTEX
  8
LAYER_1
 62
    39
  6
CONTINUOUS
 10
-1.187536
 20
-12.944911
  0
VERTEX
  8
LAYER_1
 62
    39
  6
CONTINUOUS
 10
-1.309379
 20
-12.975534
  0
VERTEX
  8
LAYER_1
 62
    39
  6
CONTINUOUS
 10
-1.430101
 20
-13.007049
  0
VERTEX
  8
LAYER_1
 62
    39
  6
CONTINUOUS
 10
-1.549720
 20
-13.039404
  0
VERTEX
  8
LAYER_1
 62
    39
  6
CONTINUOUS
 10
-1.668258
 20
-13.072551
  0
VERTEX
  8
LAYER_1
 62
    39
  6
CONTINUOUS
 10
-1.785735
 20
-13.106440
  0
VERTEX
  8
LAYER_1
 62
    39
  6
CONTINUOUS
 10
-1.902172
 20
-13.141019
  0
VERTEX
  8
LAYER_1
 62
    39
  6
CONTINUOUS
 10
-2.017590
 20
-13.176240
  0
VERTEX
  8
LAYER_1
 62
    39
  6
CONTINUOUS
 10
-2.132007
 20
-13.212053
  0
VERTEX
  8
LAYER_1
 62
    39
  6
CONTINUOUS
 10
-2.245447
 20
-13.248408
  0
VERTEX
  8
LAYER_1
 62
    39
  6
CONTINUOUS
 10
-2.357928
 20
-13.285254
  0
VERTEX
  8
LAYER_1
 62
    39
  6
CONTINUOUS
 10
-2.469471
 20
-13.322542
  0
VERTEX
  8
LAYER_1
 62
    39
  6
CONTINUOUS
 10
-2.580098
 20
-13.360222
  0
VERTEX
  8
LAYER_1
 62
    39
  6
CONTINUOUS
 10
-2.689827
 20
-13.398243
  0
VERTEX
  8
LAYER_1
 62
    39
  6
CONTINUOUS
 10
-2.798681
 20
-13.436557
  0
VERTEX
  8
LAYER_1
 62
    39
  6
CONTINUOUS
 10
-2.906679
 20
-13.475113
  0
VERTEX
  8
LAYER_1
 62
    39
  6
CONTINUOUS
 10
-3.013843
 20
-13.513862
  0
VERTEX
  8
LAYER_1
 62
    39
  6
CONTINUOUS
 10
-3.120192
 20
-13.552753
  0
VERTEX
  8
LAYER_1
 62
    39
  6
CONTINUOUS
 10
-3.225747
 20
-13.591736
  0
VERTEX
  8
LAYER_1
 62
    39
  6
CONTINUOUS
 10
-3.330529
 20
-13.630761
  0
VERTEX
  8
LAYER_1
 62
    39
  6
CONTINUOUS
 10
-3.434558
 20
-13.669780
  0
VERTEX
  8
LAYER_1
 62
    39
  6
CONTINUOUS
 10
-3.537854
 20
-13.708741
  0
VERTEX
  8
LAYER_1
 62
    39
  6
CONTINUOUS
 10
-3.640439
 20
-13.747594
  0
VERTEX
  8
LAYER_1
 62
    39
  6
CONTINUOUS
 10
-3.742333
 20
-13.786291
  0
VERTEX
  8
LAYER_1
 62
    39
  6
CONTINUOUS
 10
-3.843556
 20
-13.824780
  0
VERTEX
  8
LAYER_1
 62
    39
  6
CONTINUOUS
 10
-3.944129
 20
-13.863013
  0
VERTEX
  8
LAYER_1
 62
    39
  6
CONTINUOUS
 10
-4.044072
 20
-13.900939
  0
VERTEX
  8
LAYER_1
 62
    39
  6
CONTINUOUS
 10
-4.143407
 20
-13.938507
  0
VERTEX
  8
LAYER_1
 62
    39
  6
CONTINUOUS
 10
-4.242153
 20
-13.975670
  0
VERTEX
  8
LAYER_1
 62
    39
  6
CONTINUOUS
 10
-4.340330
 20
-14.012375
  0
VERTEX
  8
LAYER_1
 62
    39
  6
CONTINUOUS
 10
-4.437961
 20
-14.048574
  0
VERTEX
  8
LAYER_1
 62
    39
  6
CONTINUOUS
 10
-4.535064
 20
-14.084216
  0
VERTEX
  8
LAYER_1
 62
    39
  6
CONTINUOUS
 10
-4.631661
 20
-14.119253
  0
VERTEX
  8
LAYER_1
 62
    39
  6
CONTINUOUS
 10
-4.727773
 20
-14.153632
  0
VERTEX
  8
LAYER_1
 62
    39
  6
CONTINUOUS
 10
-4.823419
 20
-14.187306
  0
VERTEX
  8
LAYER_1
 62
    39
  6
CONTINUOUS
 10
-4.918620
 20
-14.220223
  0
VERTEX
  8
LAYER_1
 62
    39
  6
CONTINUOUS
 10
-5.013397
 20
-14.252335
  0
VERTEX
  8
LAYER_1
 62
    39
  6
CONTINUOUS
 10
-5.107770
 20
-14.283590
  0
VERTEX
  8
LAYER_1
 62
    39
  6
CONTINUOUS
 10
-5.201760
 20
-14.313940
  0
VERTEX
  8
LAYER_1
 62
    39
  6
CONTINUOUS
 10
-5.295388
 20
-14.343334
  0
VERTEX
  8
LAYER_1
 62
    39
  6
CONTINUOUS
 10
-5.388673
 20
-14.371722
  0
VERTEX
  8
LAYER_1
 62
    39
  6
CONTINUOUS
 10
-5.481637
 20
-14.399054
  0
VERTEX
  8
LAYER_1
 62
    39
  6
CONTINUOUS
 10
-5.574300
 20
-14.425281
  0
VERTEX
  8
LAYER_1
 62
    39
  6
CONTINUOUS
 10
-5.666682
 20
-14.450353
  0
VERTEX
  8
LAYER_1
 62
    39
  6
CONTINUOUS
 10
-5.758805
 20
-14.474219
  0
VERTEX
  8
LAYER_1
 62
    39
  6
CONTINUOUS
 10
-5.850688
 20
-14.496830
  0
VERTEX
  8
LAYER_1
 62
    39
  6
CONTINUOUS
 10
-5.942352
 20
-14.518136
  0
VERTEX
  8
LAYER_1
 62
    39
  6
CONTINUOUS
 10
-6.033818
 20
-14.538087
  0
VERTEX
  8
LAYER_1
 62
    39
  6
CONTINUOUS
 10
-6.125106
 20
-14.556632
  0
VERTEX
  8
LAYER_1
 62
    39
  6
CONTINUOUS
 10
-6.216237
 20
-14.573723
  0
VERTEX
  8
LAYER_1
 62
    39
  6
CONTINUOUS
 10
-6.307231
 20
-14.589309
  0
VERTEX
  8
LAYER_1
 62
    39
  6
CONTINUOUS
 10
-6.398109
 20
-14.603340
  0
VERTEX
  8
LAYER_1
 62
    39
  6
CONTINUOUS
 10
-6.488891
 20
-14.615767
  0
VERTEX
  8
LAYER_1
 62
    39
  6
CONTINUOUS
 10
-6.579598
 20
-14.626538
  0
VERTEX
  8
LAYER_1
 62
    39
  6
CONTINUOUS
 10
-6.670250
 20
-14.635606
  0
VERTEX
  8
LAYER_1
 62
    39
  6
CONTINUOUS
 10
-6.760869
 20
-14.642919
  0
VERTEX
  8
LAYER_1
 62
    39
  6
CONTINUOUS
 10
-6.851474
 20
-14.648427
  0
VERTEX
  8
LAYER_1
 62
    39
  6
CONTINUOUS
 10
-6.942086
 20
-14.652082
  0
VERTEX
  8
LAYER_1
 62
    39
  6
CONTINUOUS
 10
-7.032725
 20
-14.653832
  0
VERTEX
  8
LAYER_1
 62
    39
  6
CONTINUOUS
 10
-7.123413
 20
-14.653628
  0
VERTEX
  8
LAYER_1
 62
    39
  6
CONTINUOUS
 10
-7.214169
 20
-14.651420
  0
VERTEX
  8
LAYER_1
 62
    39
  6
CONTINUOUS
 10
-7.305015
 20
-14.647159
  0
VERTEX
  8
LAYER_1
 62
    39
  6
CONTINUOUS
 10
-7.395970
 20
-14.640793
  0
VERTEX
  8
LAYER_1
 62
    39
  6
CONTINUOUS
 10
-7.487055
 20
-14.632274
  0
VERTEX
  8
LAYER_1
 62
    39
  6
CONTINUOUS
 10
-7.578291
 20
-14.621551
  0
VERTEX
  8
LAYER_1
 62
    39
  6
CONTINUOUS
 10
-7.669699
 20
-14.608574
  0
VERTEX
  8
LAYER_1
 62
    39
  6
CONTINUOUS
 10
-7.761298
 20
-14.593294
  0
VERTEX
  8
LAYER_1
 62
    39
  6
CONTINUOUS
 10
-7.853109
 20
-14.575661
  0
VERTEX
  8
LAYER_1
 62
    39
  6
CONTINUOUS
 10
-7.945154
 20
-14.555624
  0
VERTEX
  8
LAYER_1
 62
    39
  6
CONTINUOUS
 10
-8.037452
 20
-14.533135
  0
VERTEX
  8
LAYER_1
 62
    39
  6
CONTINUOUS
 10
-8.130024
 20
-14.508142
  0
VERTEX
  8
LAYER_1
 62
    39
  6
CONTINUOUS
 10
-8.222891
 20
-14.480595
  0
VERTEX
  8
LAYER_1
 62
    39
  6
CONTINUOUS
 10
-8.316072
 20
-14.450446
  0
VERTEX
  8
LAYER_1
 62
    39
  6
CONTINUOUS
 10
-8.409589
 20
-14.417645
  0
VERTEX
  8
LAYER_1
 62
    39
  6
CONTINUOUS
 10
-8.503463
 20
-14.382140
  0
VERTEX
  8
LAYER_1
 62
    39
  6
CONTINUOUS
 10
-8.597713
 20
-14.343882
  0
VERTEX
  8
LAYER_1
 62
    39
  6
CONTINUOUS
 10
-8.692360
 20
-14.302822
  0
VERTEX
  8
LAYER_1
 62
    39
  6
CONTINUOUS
 10
-8.787425
 20
-14.258910
  0
VERTEX
  8
LAYER_1
 62
    39
  6
CONTINUOUS
 10
-8.882928
 20
-14.212095
  0
VERTEX
  8
LAYER_1
 62
    39
  6
CONTINUOUS
 10
-8.978890
 20
-14.162327
  0
VERTEX
  8
LAYER_1
 62
    39
  6
CONTINUOUS
 10
-9.075332
 20
-14.109558
  0
VERTEX
  8
LAYER_1
 62
    39
  6
CONTINUOUS
 10
-9.172273
 20
-14.053736
  0
VERTEX
  8
LAYER_1
 62
    39
  6
CONTINUOUS
 10
-9.269735
 20
-13.994812
  0
VERTEX
  8
LAYER_1
 62
    39
  6
CONTINUOUS
 10
-9.367737
 20
-13.932736
  0
VERTEX
  8
LAYER_1
 62
    39
  6
CONTINUOUS
 10
-9.466301
 20
-13.867458
  0
VERTEX
  8
LAYER_1
 62
    39
  6
CONTINUOUS
 10
-9.565447
 20
-13.798928
  0
VERTEX
  8
LAYER_1
 62
    39
  6
CONTINUOUS
 10
-9.665196
 20
-13.727097
  0
VERTEX
  8
LAYER_1
 62
    39
  6
CONTINUOUS
 10
-9.765568
 20
-13.651913
  0
VERTEX
  8
LAYER_1
 62
    39
  6
CONTINUOUS
 10
-9.866583
 20
-13.573329
  0
VERTEX
  8
LAYER_1
 62
    39
  6
CONTINUOUS
 10
-9.968263
 20
-13.491292
  0
VERTEX
  8
LAYER_1
 62
    39
  6
CONTINUOUS
 10
-10.070627
 20
-13.405754
  0
VERTEX
  8
LAYER_1
 62
    39
  6
CONTINUOUS
 10
-10.173697
 20
-13.316665
  0
VERTEX
  8
LAYER_1
 62
    39
  6
CONTINUOUS
 10
-10.173697
 20
-13.316665
  0
VERTEX
  8
LAYER_1
 62
    39
  6
CONTINUOUS
 10
-10.258920
 20
-13.239682
  0
VERTEX
  8
LAYER_1
 62
    39
  6
CONTINUOUS
 10
-10.344910
 20
-13.157556
  0
VERTEX
  8
LAYER_1
 62
    39
  6
CONTINUOUS
 10
-10.431292
 20
-13.070216
  0
VERTEX
  8
LAYER_1
 62
    39
  6
CONTINUOUS
 10
-10.517686
 20
-12.977589
  0
VERTEX
  8
LAYER_1
 62
    39
  6
CONTINUOUS
 10
-10.603716
 20
-12.879605
  0
VERTEX
  8
LAYER_1
 62
    39
  6
CONTINUOUS
 10
-10.689004
 20
-12.776191
  0
VERTEX
  8
LAYER_1
 62
    39
  6
CONTINUOUS
 10
-10.773173
 20
-12.667276
  0
VERTEX
  8
LAYER_1
 62
    39
  6
CONTINUOUS
 10
-10.855844
 20
-12.552788
  0
VERTEX
  8
LAYER_1
 62
    39
  6
CONTINUOUS
 10
-10.936642
 20
-12.432655
  0
VERTEX
  8
LAYER_1
 62
    39
  6
CONTINUOUS
 10
-11.015187
 20
-12.306806
  0
VERTEX
  8
LAYER_1
 62
    39
  6
CONTINUOUS
 10
-11.091103
 20
-12.175169
  0
VERTEX
  8
LAYER_1
 62
    39
  6
CONTINUOUS
 10
-11.164012
 20
-12.037673
  0
VERTEX
  8
LAYER_1
 62
    39
  6
CONTINUOUS
 10
-11.233537
 20
-11.894245
  0
VERTEX
  8
LAYER_1
 62
    39
  6
CONTINUOUS
 10
-11.299299
 20
-11.744815
  0
VERTEX
  8
LAYER_1
 62
    39
  6
CONTINUOUS
 10
-11.299299
 20
-11.744815
  0
VERTEX
  8
LAYER_1
 62
    39
  6
CONTINUOUS
 10
-11.344858
 20
-11.631958
  0
VERTEX
  8
LAYER_1
 62
    39
  6
CONTINUOUS
 10
-11.388624
 20
-11.515488
  0
VERTEX
  8
LAYER_1
 62
    39
  6
CONTINUOUS
 10
-11.430500
 20
-11.395541
  0
VERTEX
  8
LAYER_1
 62
    39
  6
CONTINUOUS
 10
-11.470387
 20
-11.272252
  0
VERTEX
  8
LAYER_1
 62
    39
  6
CONTINUOUS
 10
-11.508187
 20
-11.145759
  0
VERTEX
  8
LAYER_1
 62
    39
  6
CONTINUOUS
 10
-11.543802
 20
-11.016198
  0
VERTEX
  8
LAYER_1
 62
    39
  6
CONTINUOUS
 10
-11.577132
 20
-10.883704
  0
VERTEX
  8
LAYER_1
 62
    39
  6
CONTINUOUS
 10
-11.608080
 20
-10.748414
  0
VERTEX
  8
LAYER_1
 62
    39
  6
CONTINUOUS
 10
-11.636548
 20
-10.610464
  0
VERTEX
  8
LAYER_1
 62
    39
  6
CONTINUOUS
 10
-11.662436
 20
-10.469990
  0
VERTEX
  8
LAYER_1
 62
    39
  6
CONTINUOUS
 10
-11.685647
 20
-10.327129
  0
VERTEX
  8
LAYER_1
 62
    39
  6
CONTINUOUS
 10
-11.706083
 20
-10.182016
  0
VERTEX
  8
LAYER_1
 62
    39
  6
CONTINUOUS
 10
-11.723644
 20
-10.034789
  0
VERTEX
  8
LAYER_1
 62
    39
  6
CONTINUOUS
 10
-11.738233
 20
-9.885582
  0
VERTEX
  8
LAYER_1
 62
    39
  6
CONTINUOUS
 10
-11.749751
 20
-9.734533
  0
VERTEX
  8
LAYER_1
 62
    39
  6
CONTINUOUS
 10
-11.758100
 20
-9.581778
  0
VERTEX
  8
LAYER_1
 62
    39
  6
CONTINUOUS
 10
-11.763182
 20
-9.427452
  0
VERTEX
  8
LAYER_1
 62
    39
  6
CONTINUOUS
 10
-11.764898
 20
-9.271693
  0
VERTEX
  8
LAYER_1
 62
    39
  6
CONTINUOUS
 10
-11.764898
 20
-9.271693
  0
VERTEX
  8
LAYER_1
 62
    39
  6
CONTINUOUS
 10
-11.763173
 20
-9.107533
  0
VERTEX
  8
LAYER_1
 62
    39
  6
CONTINUOUS
 10
-11.758028
 20
-8.945662
  0
VERTEX
  8
LAYER_1
 62
    39
  6
CONTINUOUS
 10
-11.749505
 20
-8.786290
  0
VERTEX
  8
LAYER_1
 62
    39
  6
CONTINUOUS
 10
-11.737646
 20
-8.629628
  0
VERTEX
  8
LAYER_1
 62
    39
  6
CONTINUOUS
 10
-11.722495
 20
-8.475885
  0
VERTEX
  8
LAYER_1
 62
    39
  6
CONTINUOUS
 10
-11.704092
 20
-8.325273
  0
VERTEX
  8
LAYER_1
 62
    39
  6
CONTINUOUS
 10
-11.682482
 20
-8.178003
  0
VERTEX
  8
LAYER_1
 62
    39
  6
CONTINUOUS
 10
-11.657707
 20
-8.034285
  0
VERTEX
  8
LAYER_1
 62
    39
  6
CONTINUOUS
 10
-11.629808
 20
-7.894329
  0
VERTEX
  8
LAYER_1
 62
    39
  6
CONTINUOUS
 10
-11.598829
 20
-7.758346
  0
VERTEX
  8
LAYER_1
 62
    39
  6
CONTINUOUS
 10
-11.564813
 20
-7.626547
  0
VERTEX
  8
LAYER_1
 62
    39
  6
CONTINUOUS
 10
-11.527801
 20
-7.499143
  0
VERTEX
  8
LAYER_1
 62
    39
  6
CONTINUOUS
 10
-11.487836
 20
-7.376343
  0
VERTEX
  8
LAYER_1
 62
    39
  6
CONTINUOUS
 10
-11.444961
 20
-7.258359
  0
VERTEX
  8
LAYER_1
 62
    39
  6
CONTINUOUS
 10
-11.399218
 20
-7.145401
  0
VERTEX
  8
LAYER_1
 62
    39
  6
CONTINUOUS
 10
-11.350650
 20
-7.037679
  0
VERTEX
  8
LAYER_1
 62
    39
  6
CONTINUOUS
 10
-11.299299
 20
-6.935406
  0
SEQEND
  8
0
  0
POLYLINE
  8
LAYER_1
 62
    39
  6
CONTINUOUS
 66
     1
 40
0.013890
 41
0.013890
  0
VERTEX
  8
LAYER_1
 62
    39
  6
CONTINUOUS
 10
5.094283
 20
-9.387102
  0
VERTEX
  8
LAYER_1
 62
    39
  6
CONTINUOUS
 10
5.109925
 20
-9.408154
  0
VERTEX
  8
LAYER_1
 62
    39
  6
CONTINUOUS
 10
5.130894
 20
-9.424990
  0
VERTEX
  8
LAYER_1
 62
    39
  6
CONTINUOUS
 10
5.156811
 20
-9.437024
  0
VERTEX
  8
LAYER_1
 62
    39
  6
CONTINUOUS
 10
5.193612
 20
-9.436246
  0
VERTEX
  8
LAYER_1
 62
    39
  6
CONTINUOUS
 10
5.264481
 20
-9.421023
  0
VERTEX
  8
LAYER_1
 62
    39
  6
CONTINUOUS
 10
5.369232
 20
-9.391752
  0
VERTEX
  8
LAYER_1
 62
    39
  6
CONTINUOUS
 10
5.488855
 20
-9.367716
  0
VERTEX
  8
LAYER_1
 62
    39
  6
CONTINUOUS
 10
5.606196
 20
-9.368507
  0
VERTEX
  8
LAYER_1
 62
    39
  6
CONTINUOUS
 10
5.721252
 20
-9.394122
  0
VERTEX
  8
LAYER_1
 62
    39
  6
CONTINUOUS
 10
5.836563
 20
-9.449948
  0
VERTEX
  8
LAYER_1
 62
    39
  6
CONTINUOUS
 10
5.957965
 20
-9.542618
  0
VERTEX
  8
LAYER_1
 62
    39
  6
CONTINUOUS
 10
6.085268
 20
-9.672299
  0
VERTEX
  8
LAYER_1
 62
    39
  6
CONTINUOUS
 10
6.196614
 20
-9.796193
  0
VERTEX
  8
LAYER_1
 62
    39
  6
CONTINUOUS
 10
6.270273
 20
-9.873152
  0
VERTEX
  8
LAYER_1
 62
    39
  6
CONTINUOUS
 10
6.306244
 20
-9.902720
  0
VERTEX
  8
LAYER_1
 62
    39
  6
CONTINUOUS
 10
6.343995
 20
-9.897764
  0
VERTEX
  8
LAYER_1
 62
    39
  6
CONTINUOUS
 10
6.426665
 20
-9.872995
  0
VERTEX
  8
LAYER_1
 62
    39
  6
CONTINUOUS
 10
6.554634
 20
-9.829000
  0
VERTEX
  8
LAYER_1
 62
    39
  6
CONTINUOUS
 10
6.704810
 20
-9.791954
  0
VERTEX
  8
LAYER_1
 62
    39
  6
CONTINUOUS
 10
6.853842
 20
-9.789572
  0
VERTEX
  8
LAYER_1
 62
    39
  6
CONTINUOUS
 10
7.001732
 20
-9.821618
  0
VERTEX
  8
LAYER_1
 62
    39
  6
CONTINUOUS
 10
7.138564
 20
-9.879925
  0
VERTEX
  8
LAYER_1
 62
    39
  6
CONTINUOUS
 10
7.263000
 20
-9.959366
  0
VERTEX
  8
LAYER_1
 62
    39
  6
CONTINUOUS
 10
7.375064
 20
-10.059979
  0
VERTEX
  8
LAYER_1
 62
    39
  6
CONTINUOUS
 10
7.474781
 20
-10.181799
  0
VERTEX
  8
LAYER_1
 62
    39
  6
CONTINUOUS
 10
7.562173
 20
-10.324863
  0
VERTEX
  8
LAYER_1
 62
    39
  6
CONTINUOUS
 10
7.637264
 20
-10.489209
  0
VERTEX
  8
LAYER_1
 62
    39
  6
CONTINUOUS
 10
7.676577
 20
-10.598436
  0
VERTEX
  8
LAYER_1
 62
    39
  6
CONTINUOUS
 10
7.711773
 20
-10.716111
  0
VERTEX
  8
LAYER_1
 62
    39
  6
CONTINUOUS
 10
7.742848
 20
-10.842220
  0
VERTEX
  8
LAYER_1
 62
    39
  6
CONTINUOUS
 10
7.769797
 20
-10.976748
  0
VERTEX
  8
LAYER_1
 62
    39
  6
CONTINUOUS
 10
7.792613
 20
-11.119682
  0
VERTEX
  8
LAYER_1
 62
    39
  6
CONTINUOUS
 10
7.811293
 20
-11.271007
  0
VERTEX
  8
LAYER_1
 62
    39
  6
CONTINUOUS
 10
7.825830
 20
-11.430709
  0
VERTEX
  8
LAYER_1
 62
    39
  6
CONTINUOUS
 10
7.836221
 20
-11.598774
  0
VERTEX
  8
LAYER_1
 62
    39
  6
CONTINUOUS
 10
7.842459
 20
-11.775188
  0
VERTEX
  8
LAYER_1
 62
    39
  6
CONTINUOUS
 10
7.844539
 20
-11.959937
  0
VERTEX
  8
LAYER_1
 62
    39
  6
CONTINUOUS
 10
7.843415
 20
-12.145710
  0
VERTEX
  8
LAYER_1
 62
    39
  6
CONTINUOUS
 10
7.840042
 20
-12.326452
  0
VERTEX
  8
LAYER_1
 62
    39
  6
CONTINUOUS
 10
7.834421
 20
-12.502164
  0
VERTEX
  8
LAYER_1
 62
    39
  6
CONTINUOUS
 10
7.826551
 20
-12.672846
  0
VERTEX
  8
LAYER_1
 62
    39
  6
CONTINUOUS
 10
7.813482
 20
-12.890798
  0
VERTEX
  8
LAYER_1
 62
    39
  6
CONTINUOUS
 10
7.796796
 20
-13.095551
  0
VERTEX
  8
LAYER_1
 62
    39
  6
CONTINUOUS
 10
7.776874
 20
-13.287004
  0
VERTEX
  8
LAYER_1
 62
    39
  6
CONTINUOUS
 10
7.775161
 20
-13.298496
  0
VERTEX
  8
LAYER_1
 62
    39
  6
CONTINUOUS
 10
7.773447
 20
-13.313215
  0
VERTEX
  8
LAYER_1
 62
    39
  6
CONTINUOUS
 10
7.771736
 20
-13.330933
  0
VERTEX
  8
LAYER_1
 62
    39
  6
CONTINUOUS
 10
7.725516
 20
-13.511610
  0
VERTEX
  8
LAYER_1
 62
    39
  6
CONTINUOUS
 10
7.640085
 20
-13.600585
  0
VERTEX
  8
LAYER_1
 62
    39
  6
CONTINUOUS
 10
7.515634
 20
-13.598150
  0
VERTEX
  8
LAYER_1
 62
    39
  6
CONTINUOUS
 10
7.472750
 20
-13.583488
  0
VERTEX
  8
LAYER_1
 62
    39
  6
CONTINUOUS
 10
7.420918
 20
-13.565146
  0
VERTEX
  8
LAYER_1
 62
    39
  6
CONTINUOUS
 10
7.359756
 20
-13.542996
  0
VERTEX
  8
LAYER_1
 62
    39
  6
CONTINUOUS
 10
7.301164
 20
-13.521706
  0
VERTEX
  8
LAYER_1
 62
    39
  6
CONTINUOUS
 10
7.255324
 20
-13.505365
  0
VERTEX
  8
LAYER_1
 62
    39
  6
CONTINUOUS
 10
7.221858
 20
-13.493846
  0
VERTEX
  8
LAYER_1
 62
    39
  6
CONTINUOUS
 10
7.108795
 20
-13.456102
  0
VERTEX
  8
LAYER_1
 62
    39
  6
CONTINUOUS
 10
7.072060
 20
-13.442800
  0
VERTEX
  8
LAYER_1
 62
    39
  6
CONTINUOUS
 10
7.044461
 20
-13.430475
  0
VERTEX
  8
LAYER_1
 62
    39
  6
CONTINUOUS
 10
7.026571
 20
-13.419319
  0
VERTEX
  8
LAYER_1
 62
    39
  6
CONTINUOUS
 10
7.015151
 20
-13.407819
  0
VERTEX
  8
LAYER_1
 62
    39
  6
CONTINUOUS
 10
7.008299
 20
-13.394619
  0
VERTEX
  8
LAYER_1
 62
    39
  6
CONTINUOUS
 10
7.006016
 20
-13.379256
  0
VERTEX
  8
LAYER_1
 62
    39
  6
CONTINUOUS
 10
7.010551
 20
-13.329247
  0
VERTEX
  8
LAYER_1
 62
    39
  6
CONTINUOUS
 10
7.024031
 20
-13.247643
  0
VERTEX
  8
LAYER_1
 62
    39
  6
CONTINUOUS
 10
7.046268
 20
-13.134382
  0
VERTEX
  8
LAYER_1
 62
    39
  6
CONTINUOUS
 10
7.074840
 20
-12.985601
  0
VERTEX
  8
LAYER_1
 62
    39
  6
CONTINUOUS
 10
7.100428
 20
-12.837865
  0
VERTEX
  8
LAYER_1
 62
    39
  6
CONTINUOUS
 10
7.123024
 20
-12.691160
  0
VERTEX
  8
LAYER_1
 62
    39
  6
CONTINUOUS
 10
7.142624
 20
-12.545471
  0
VERTEX
  8
LAYER_1
 62
    39
  6
CONTINUOUS
 10
7.159223
 20
-12.400784
  0
VERTEX
  8
LAYER_1
 62
    39
  6
CONTINUOUS
 10
7.172816
 20
-12.257086
  0
VERTEX
  8
LAYER_1
 62
    39
  6
CONTINUOUS
 10
7.183397
 20
-12.114361
  0
VERTEX
  8
LAYER_1
 62
    39
  6
CONTINUOUS
 10
7.190962
 20
-11.972597
  0
VERTEX
  8
LAYER_1
 62
    39
  6
CONTINUOUS
 10
7.195504
 20
-11.831778
  0
VERTEX
  8
LAYER_1
 62
    39
  6
CONTINUOUS
 10
7.197020
 20
-11.691890
  0
VERTEX
  8
LAYER_1
 62
    39
  6
CONTINUOUS
 10
7.193518
 20
-11.517043
  0
VERTEX
  8
LAYER_1
 62
    39
  6
CONTINUOUS
 10
7.182998
 20
-11.352475
  0
VERTEX
  8
LAYER_1
 62
    39
  6
CONTINUOUS
 10
7.165435
 20
-11.198177
  0
VERTEX
  8
LAYER_1
 62
    39
  6
CONTINUOUS
 10
7.140806
 20
-11.054142
  0
VERTEX
  8
LAYER_1
 62
    39
  6
CONTINUOUS
 10
7.109087
 20
-10.920361
  0
VERTEX
  8
LAYER_1
 62
    39
  6
CONTINUOUS
 10
7.070256
 20
-10.796827
  0
VERTEX
  8
LAYER_1
 62
    39
  6
CONTINUOUS
 10
6.975721
 20
-10.592365
  0
VERTEX
  8
LAYER_1
 62
    39
  6
CONTINUOUS
 10
6.861584
 20
-10.450519
  0
VERTEX
  8
LAYER_1
 62
    39
  6
CONTINUOUS
 10
6.727650
 20
-10.371224
  0
VERTEX
  8
LAYER_1
 62
    39
  6
CONTINUOUS
 10
6.626866
 20
-10.350333
  0
VERTEX
  8
LAYER_1
 62
    39
  6
CONTINUOUS
 10
6.545498
 20
-10.361283
  0
VERTEX
  8
LAYER_1
 62
    39
  6
CONTINUOUS
 10
6.483543
 20
-10.403843
  0
VERTEX
  8
LAYER_1
 62
    39
  6
CONTINUOUS
 10
6.439291
 20
-10.478939
  0
VERTEX
  8
LAYER_1
 62
    39
  6
CONTINUOUS
 10
6.412740
 20
-10.588072
  0
VERTEX
  8
LAYER_1
 62
    39
  6
CONTINUOUS
 10
6.403890
 20
-10.731008
  0
VERTEX
  8
LAYER_1
 62
    39
  6
CONTINUOUS
 10
6.404747
 20
-10.796265
  0
VERTEX
  8
LAYER_1
 62
    39
  6
CONTINUOUS
 10
6.407316
 20
-10.906818
  0
VERTEX
  8
LAYER_1
 62
    39
  6
CONTINUOUS
 10
6.411598
 20
-11.062437
  0
VERTEX
  8
LAYER_1
 62
    39
  6
CONTINUOUS
 10
6.415880
 20
-11.233347
  0
VERTEX
  8
LAYER_1
 62
    39
  6
CONTINUOUS
 10
6.418450
 20
-11.390083
  0
VERTEX
  8
LAYER_1
 62
    39
  6
CONTINUOUS
 10
6.419307
 20
-11.532878
  0
VERTEX
  8
LAYER_1
 62
    39
  6
CONTINUOUS
 10
6.418330
 20
-11.763471
  0
VERTEX
  8
LAYER_1
 62
    39
  6
CONTINUOUS
 10
6.415344
 20
-11.968301
  0
VERTEX
  8
LAYER_1
 62
    39
  6
CONTINUOUS
 10
6.410272
 20
-12.147535
  0
VERTEX
  8
LAYER_1
 62
    39
  6
CONTINUOUS
 10
6.403031
 20
-12.301343
  0
VERTEX
  8
LAYER_1
 62
    39
  6
CONTINUOUS
 10
6.389614
 20
-12.486249
  0
VERTEX
  8
LAYER_1
 62
    39
  6
CONTINUOUS
 10
6.371629
 20
-12.666169
  0
VERTEX
  8
LAYER_1
 62
    39
  6
CONTINUOUS
 10
6.349075
 20
-12.840413
  0
VERTEX
  8
LAYER_1
 62
    39
  6
CONTINUOUS
 10
6.347075
 20
-12.856307
  0
VERTEX
  8
LAYER_1
 62
    39
  6
CONTINUOUS
 10
6.344505
 20
-12.875928
  0
VERTEX
  8
LAYER_1
 62
    39
  6
CONTINUOUS
 10
6.341366
 20
-12.899047
  0
VERTEX
  8
LAYER_1
 62
    39
  6
CONTINUOUS
 10
6.294572
 20
-13.053867
  0
VERTEX
  8
LAYER_1
 62
    39
  6
CONTINUOUS
 10
6.207429
 20
-13.127209
  0
VERTEX
  8
LAYER_1
 62
    39
  6
CONTINUOUS
 10
6.080126
 20
-13.118906
  0
VERTEX
  8
LAYER_1
 62
    39
  6
CONTINUOUS
 10
6.032195
 20
-13.102555
  0
VERTEX
  8
LAYER_1
 62
    39
  6
CONTINUOUS
 10
5.974175
 20
-13.082147
  0
VERTEX
  8
LAYER_1
 62
    39
  6
CONTINUOUS
 10
5.906260
 20
-13.057744
  0
VERTEX
  8
LAYER_1
 62
    39
  6
CONTINUOUS
 10
5.840592
 20
-13.034092
  0
VERTEX
  8
LAYER_1
 62
    39
  6
CONTINUOUS
 10
5.789201
 20
-13.015898
  0
VERTEX
  8
LAYER_1
 62
    39
  6
CONTINUOUS
 10
5.752087
 20
-13.003161
  0
VERTEX
  8
LAYER_1
 62
    39
  6
CONTINUOUS
 10
5.681850
 20
-12.979713
  0
VERTEX
  8
LAYER_1
 62
    39
  6
CONTINUOUS
 10
5.642135
 20
-12.964725
  0
VERTEX
  8
LAYER_1
 62
    39
  6
CONTINUOUS
 10
5.613649
 20
-12.950027
  0
VERTEX
  8
LAYER_1
 62
    39
  6
CONTINUOUS
 10
5.596201
 20
-12.935559
  0
VERTEX
  8
LAYER_1
 62
    39
  6
CONTINUOUS
 10
5.586209
 20
-12.919157
  0
VERTEX
  8
LAYER_1
 62
    39
  6
CONTINUOUS
 10
5.580212
 20
-12.896944
  0
VERTEX
  8
LAYER_1
 62
    39
  6
CONTINUOUS
 10
5.578213
 20
-12.869382
  0
VERTEX
  8
LAYER_1
 62
    39
  6
CONTINUOUS
 10
5.583036
 20
-12.823618
  0
VERTEX
  8
LAYER_1
 62
    39
  6
CONTINUOUS
 10
5.597377
 20
-12.742301
  0
VERTEX
  8
LAYER_1
 62
    39
  6
CONTINUOUS
 10
5.621043
 20
-12.625366
  0
VERTEX
  8
LAYER_1
 62
    39
  6
CONTINUOUS
 10
5.651200
 20
-12.479693
  0
VERTEX
  8
LAYER_1
 62
    39
  6
CONTINUOUS
 10
5.678718
 20
-12.334948
  0
VERTEX
  8
LAYER_1
 62
    39
  6
CONTINUOUS
 10
5.703602
 20
-12.191124
  0
VERTEX
  8
LAYER_1
 62
    39
  6
CONTINUOUS
 10
5.725853
 20
-12.048216
  0
VERTEX
  8
LAYER_1
 62
    39
  6
CONTINUOUS
 10
5.745476
 20
-11.906216
  0
VERTEX
  8
LAYER_1
 62
    39
  6
CONTINUOUS
 10
5.762472
 20
-11.765119
  0
VERTEX
  8
LAYER_1
 62
    39
  6
CONTINUOUS
 10
5.776846
 20
-11.624919
  0
VERTEX
  8
LAYER_1
 62
    39
  6
CONTINUOUS
 10
5.788599
 20
-11.485608
  0
VERTEX
  8
LAYER_1
 62
    39
  6
CONTINUOUS
 10
5.797736
 20
-11.347182
  0
VERTEX
  8
LAYER_1
 62
    39
  6
CONTINUOUS
 10
5.804258
 20
-11.209634
  0
VERTEX
  8
LAYER_1
 62
    39
  6
CONTINUOUS
 10
5.808169
 20
-11.072957
  0
VERTEX
  8
LAYER_1
 62
    39
  6
CONTINUOUS
 10
5.809472
 20
-10.937146
  0
VERTEX
  8
LAYER_1
 62
    39
  6
CONTINUOUS
 10
5.803999
 20
-10.730302
  0
VERTEX
  8
LAYER_1
 62
    39
  6
CONTINUOUS
 10
5.787524
 20
-10.550127
  0
VERTEX
  8
LAYER_1
 62
    39
  6
CONTINUOUS
 10
5.759969
 20
-10.396598
  0
VERTEX
  8
LAYER_1
 62
    39
  6
CONTINUOUS
 10
5.721252
 20
-10.269689
  0
VERTEX
  8
LAYER_1
 62
    39
  6
CONTINUOUS
 10
5.650984
 20
-10.136304
  0
VERTEX
  8
LAYER_1
 62
    39
  6
CONTINUOUS
 10
5.556545
 20
-10.038653
  0
VERTEX
  8
LAYER_1
 62
    39
  6
CONTINUOUS
 10
5.437744
 20
-9.976898
  0
VERTEX
  8
LAYER_1
 62
    39
  6
CONTINUOUS
 10
5.287350
 20
-9.959845
  0
VERTEX
  8
LAYER_1
 62
    39
  6
CONTINUOUS
 10
5.163601
 20
-10.017852
  0
VERTEX
  8
LAYER_1
 62
    39
  6
CONTINUOUS
 10
5.066878
 20
-10.150815
  0
VERTEX
  8
LAYER_1
 62
    39
  6
CONTINUOUS
 10
5.021552
 20
-10.266530
  0
VERTEX
  8
LAYER_1
 62
    39
  6
CONTINUOUS
 10
4.986298
 20
-10.408313
  0
VERTEX
  8
LAYER_1
 62
    39
  6
CONTINUOUS
 10
4.961117
 20
-10.576216
  0
VERTEX
  8
LAYER_1
 62
    39
  6
CONTINUOUS
 10
4.946009
 20
-10.770286
  0
VERTEX
  8
LAYER_1
 62
    39
  6
CONTINUOUS
 10
4.940972
 20
-10.990575
  0
VERTEX
  8
LAYER_1
 62
    39
  6
CONTINUOUS
 10
4.942026
 20
-11.121609
  0
VERTEX
  8
LAYER_1
 62
    39
  6
CONTINUOUS
 10
4.945187
 20
-11.255780
  0
VERTEX
  8
LAYER_1
 62
    39
  6
CONTINUOUS
 10
4.950454
 20
-11.393095
  0
VERTEX
  8
LAYER_1
 62
    39
  6
CONTINUOUS
 10
4.957829
 20
-11.533559
  0
VERTEX
  8
LAYER_1
 62
    39
  6
CONTINUOUS
 10
4.967311
 20
-11.677179
  0
VERTEX
  8
LAYER_1
 62
    39
  6
CONTINUOUS
 10
4.978899
 20
-11.823961
  0
VERTEX
  8
LAYER_1
 62
    39
  6
CONTINUOUS
 10
4.992595
 20
-11.973912
  0
VERTEX
  8
LAYER_1
 62
    39
  6
CONTINUOUS
 10
5.008397
 20
-12.127036
  0
VERTEX
  8
LAYER_1
 62
    39
  6
CONTINUOUS
 10
5.026307
 20
-12.283342
  0
VERTEX
  8
LAYER_1
 62
    39
  6
CONTINUOUS
 10
5.046323
 20
-12.442835
  0
VERTEX
  8
LAYER_1
 62
    39
  6
CONTINUOUS
 10
5.064276
 20
-12.579847
  0
VERTEX
  8
LAYER_1
 62
    39
  6
CONTINUOUS
 10
5.075190
 20
-12.677625
  0
VERTEX
  8
LAYER_1
 62
    39
  6
CONTINUOUS
 10
5.078870
 20
-12.735874
  0
VERTEX
  8
LAYER_1
 62
    39
  6
CONTINUOUS
 10
5.075445
 20
-12.749330
  0
VERTEX
  8
LAYER_1
 62
    39
  6
CONTINUOUS
 10
5.065167
 20
-12.756811
  0
VERTEX
  8
LAYER_1
 62
    39
  6
CONTINUOUS
 10
5.048035
 20
-12.758780
  0
VERTEX
  8
LAYER_1
 62
    39
  6
CONTINUOUS
 10
5.019454
 20
-12.754421
  0
VERTEX
  8
LAYER_1
 62
    39
  6
CONTINUOUS
 10
4.976407
 20
-12.743160
  0
VERTEX
  8
LAYER_1
 62
    39
  6
CONTINUOUS
 10
4.918705
 20
-12.724933
  0
VERTEX
  8
LAYER_1
 62
    39
  6
CONTINUOUS
 10
4.815921
 20
-12.690618
  0
VERTEX
  8
LAYER_1
 62
    39
  6
CONTINUOUS
 10
4.652331
 20
-12.636004
  0
VERTEX
  8
LAYER_1
 62
    39
  6
CONTINUOUS
 10
4.570102
 20
-12.608551
  0
VERTEX
  8
LAYER_1
 62
    39
  6
CONTINUOUS
 10
4.503042
 20
-12.583706
  0
VERTEX
  8
LAYER_1
 62
    39
  6
CONTINUOUS
 10
4.452731
 20
-12.559380
  0
VERTEX
  8
LAYER_1
 62
    39
  6
CONTINUOUS
 10
4.419358
 20
-12.535406
  0
VERTEX
  8
LAYER_1
 62
    39
  6
CONTINUOUS
 10
4.396011
 20
-12.507938
  0
VERTEX
  8
LAYER_1
 62
    39
  6
CONTINUOUS
 10
4.375899
 20
-12.471407
  0
VERTEX
  8
LAYER_1
 62
    39
  6
CONTINUOUS
 10
4.359402
 20
-12.426173
  0
VERTEX
  8
LAYER_1
 62
    39
  6
CONTINUOUS
 10
4.342525
 20
-12.350032
  0
VERTEX
  8
LAYER_1
 62
    39
  6
CONTINUOUS
 10
4.329454
 20
-12.240122
  0
VERTEX
  8
LAYER_1
 62
    39
  6
CONTINUOUS
 10
4.320000
 20
-12.096610
  0
VERTEX
  8
LAYER_1
 62
    39
  6
CONTINUOUS
 10
4.315009
 20
-11.960178
  0
VERTEX
  8
LAYER_1
 62
    39
  6
CONTINUOUS
 10
4.311544
 20
-11.791383
  0
VERTEX
  8
LAYER_1
 62
    39
  6
CONTINUOUS
 10
4.309525
 20
-11.590392
  0
VERTEX
  8
LAYER_1
 62
    39
  6
CONTINUOUS
 10
4.308870
 20
-11.357374
  0
VERTEX
  8
LAYER_1
 62
    39
  6
CONTINUOUS
 10
4.309093
 20
-11.190468
  0
VERTEX
  8
LAYER_1
 62
    39
  6
CONTINUOUS
 10
4.309767
 20
-11.027265
  0
VERTEX
  8
LAYER_1
 62
    39
  6
CONTINUOUS
 10
4.310899
 20
-10.867784
  0
VERTEX
  8
LAYER_1
 62
    39
  6
CONTINUOUS
 10
4.312497
 20
-10.712044
  0
VERTEX
  8
LAYER_1
 62
    39
  6
CONTINUOUS
 10
4.314566
 20
-10.560066
  0
VERTEX
  8
LAYER_1
 62
    39
  6
CONTINUOUS
 10
4.317115
 20
-10.411867
  0
VERTEX
  8
LAYER_1
 62
    39
  6
CONTINUOUS
 10
4.320150
 20
-10.267468
  0
VERTEX
  8
LAYER_1
 62
    39
  6
CONTINUOUS
 10
4.323679
 20
-10.126888
  0
VERTEX
  8
LAYER_1
 62
    39
  6
CONTINUOUS
 10
4.327709
 20
-9.990146
  0
VERTEX
  8
LAYER_1
 62
    39
  6
CONTINUOUS
 10
4.334491
 20
-9.795223
  0
VERTEX
  8
LAYER_1
 62
    39
  6
CONTINUOUS
 10
4.341986
 20
-9.615955
  0
VERTEX
  8
LAYER_1
 62
    39
  6
CONTINUOUS
 10
4.350194
 20
-9.452370
  0
VERTEX
  8
LAYER_1
 62
    39
  6
CONTINUOUS
 10
4.359117
 20
-9.304498
  0
VERTEX
  8
LAYER_1
 62
    39
  6
CONTINUOUS
 10
4.368753
 20
-9.172368
  0
VERTEX
  8
LAYER_1
 62
    39
  6
CONTINUOUS
 10
4.379102
 20
-9.056008
  0
VERTEX
  8
LAYER_1
 62
    39
  6
CONTINUOUS
 10
4.398294
 20
-8.933434
  0
VERTEX
  8
LAYER_1
 62
    39
  6
CONTINUOUS
 10
4.425290
 20
-8.852192
  0
VERTEX
  8
LAYER_1
 62
    39
  6
CONTINUOUS
 10
4.460469
 20
-8.812413
  0
VERTEX
  8
LAYER_1
 62
    39
  6
CONTINUOUS
 10
4.523883
 20
-8.806651
  0
VERTEX
  8
LAYER_1
 62
    39
  6
CONTINUOUS
 10
4.635451
 20
-8.827569
  0
VERTEX
  8
LAYER_1
 62
    39
  6
CONTINUOUS
 10
4.795366
 20
-8.875461
  0
VERTEX
  8
LAYER_1
 62
    39
  6
CONTINUOUS
 10
4.863028
 20
-8.898051
  0
VERTEX
  8
LAYER_1
 62
    39
  6
CONTINUOUS
 10
4.961494
 20
-8.933305
  0
VERTEX
  8
LAYER_1
 62
    39
  6
CONTINUOUS
 10
5.032364
 20
-8.963957
  0
VERTEX
  8
LAYER_1
 62
    39
  6
CONTINUOUS
 10
5.075445
 20
-8.989713
  0
VERTEX
  8
LAYER_1
 62
    39
  6
CONTINUOUS
 10
5.099714
 20
-9.016796
  0
VERTEX
  8
LAYER_1
 62
    39
  6
CONTINUOUS
 10
5.114274
 20
-9.049399
  0
VERTEX
  8
LAYER_1
 62
    39
  6
CONTINUOUS
 10
5.119126
 20
-9.087291
  0
VERTEX
  8
LAYER_1
 62
    39
  6
CONTINUOUS
 10
5.116589
 20
-9.117563
  0
VERTEX
  8
LAYER_1
 62
    39
  6
CONTINUOUS
 10
5.109104
 20
-9.152410
  0
VERTEX
  8
LAYER_1
 62
    39
  6
CONTINUOUS
 10
5.096858
 20
-9.191890
  0
VERTEX
  8
LAYER_1
 62
    39
  6
CONTINUOUS
 10
5.084009
 20
-9.230482
  0
VERTEX
  8
LAYER_1
 62
    39
  6
CONTINUOUS
 10
5.076299
 20
-9.263180
  0
VERTEX
  8
LAYER_1
 62
    39
  6
CONTINUOUS
 10
5.073728
 20
-9.289984
  0
VERTEX
  8
LAYER_1
 62
    39
  6
CONTINUOUS
 10
5.076012
 20
-9.327747
  0
VERTEX
  8
LAYER_1
 62
    39
  6
CONTINUOUS
 10
5.082863
 20
-9.360120
  0
VERTEX
  8
LAYER_1
 62
    39
  6
CONTINUOUS
 10
5.094283
 20
-9.387102
  0
SEQEND
  8
0
  0
POLYLINE
  8
LAYER_1
 62
    39
  6
CONTINUOUS
 66
     1
 40
0.013890
 41
0.013890
  0
VERTEX
  8
LAYER_1
 62
    39
  6
CONTINUOUS
 10
-0.889157
 20
-9.720417
  0
VERTEX
  8
LAYER_1
 62
    39
  6
CONTINUOUS
 10
-0.881801
 20
-9.901297
  0
VERTEX
  8
LAYER_1
 62
    39
  6
CONTINUOUS
 10
-0.859703
 20
-10.064243
  0
VERTEX
  8
LAYER_1
 62
    39
  6
CONTINUOUS
 10
-0.822821
 20
-10.209249
  0
VERTEX
  8
LAYER_1
 62
    39
  6
CONTINUOUS
 10
-0.771111
 20
-10.336313
  0
VERTEX
  8
LAYER_1
 62
    39
  6
CONTINUOUS
 10
-0.704531
 20
-10.445429
  0
VERTEX
  8
LAYER_1
 62
    39
  6
CONTINUOUS
 10
-0.565731
 20
-10.581714
  0
VERTEX
  8
LAYER_1
 62
    39
  6
CONTINUOUS
 10
-0.395963
 20
-10.654675
  0
VERTEX
  8
LAYER_1
 62
    39
  6
CONTINUOUS
 10
-0.195031
 20
-10.664291
  0
VERTEX
  8
LAYER_1
 62
    39
  6
CONTINUOUS
 10
-0.094070
 20
-10.647477
  0
VERTEX
  8
LAYER_1
 62
    39
  6
CONTINUOUS
 10
-0.000408
 20
-10.618494
  0
VERTEX
  8
LAYER_1
 62
    39
  6
CONTINUOUS
 10
0.086354
 20
-10.577535
  0
VERTEX
  8
LAYER_1
 62
    39
  6
CONTINUOUS
 10
0.165842
 20
-10.524754
  0
VERTEX
  8
LAYER_1
 62
    39
  6
CONTINUOUS
 10
0.238823
 20
-10.459726
  0
VERTEX
  8
LAYER_1
 62
    39
  6
CONTINUOUS
 10
0.304705
 20
-10.382047
  0
VERTEX
  8
LAYER_1
 62
    39
  6
CONTINUOUS
 10
0.343828
 20
-10.325503
  0
VERTEX
  8
LAYER_1
 62
    39
  6
CONTINUOUS
 10
0.378020
 20
-10.263925
  0
VERTEX
  8
LAYER_1
 62
    39
  6
CONTINUOUS
 10
0.407673
 20
-10.197276
  0
VERTEX
  8
LAYER_1
 62
    39
  6
CONTINUOUS
 10
0.431048
 20
-10.140300
  0
VERTEX
  8
LAYER_1
 62
    39
  6
CONTINUOUS
 10
0.447912
 20
-10.105654
  0
VERTEX
  8
LAYER_1
 62
    39
  6
CONTINUOUS
 10
0.458264
 20
-10.093571
  0
VERTEX
  8
LAYER_1
 62
    39
  6
CONTINUOUS
 10
0.487230
 20
-10.101302
  0
VERTEX
  8
LAYER_1
 62
    39
  6
CONTINUOUS
 10
0.511855
 20
-10.130685
  0
VERTEX
  8
LAYER_1
 62
    39
  6
CONTINUOUS
 10
0.531945
 20
-10.181508
  0
VERTEX
  8
LAYER_1
 62
    39
  6
CONTINUOUS
 10
0.547361
 20
-10.251595
  0
VERTEX
  8
LAYER_1
 62
    39
  6
CONTINUOUS
 10
0.556466
 20
-10.337309
  0
VERTEX
  8
LAYER_1
 62
    39
  6
CONTINUOUS
 10
0.559457
 20
-10.439094
  0
VERTEX
  8
LAYER_1
 62
    39
  6
CONTINUOUS
 10
0.549438
 20
-10.626963
  0
VERTEX
  8
LAYER_1
 62
    39
  6
CONTINUOUS
 10
0.519351
 20
-10.799646
  0
VERTEX
  8
LAYER_1
 62
    39
  6
CONTINUOUS
 10
0.469155
 20
-10.957098
  0
VERTEX
  8
LAYER_1
 62
    39
  6
CONTINUOUS
 10
0.398806
 20
-11.099274
  0
VERTEX
  8
LAYER_1
 62
    39
  6
CONTINUOUS
 10
0.308260
 20
-11.226130
  0
VERTEX
  8
LAYER_1
 62
    39
  6
CONTINUOUS
 10
0.200146
 20
-11.335123
  0
VERTEX
  8
LAYER_1
 62
    39
  6
CONTINUOUS
 10
0.076055
 20
-11.423884
  0
VERTEX
  8
LAYER_1
 62
    39
  6
CONTINUOUS
 10
-0.064013
 20
-11.492462
  0
VERTEX
  8
LAYER_1
 62
    39
  6
CONTINUOUS
 10
-0.220059
 20
-11.540907
  0
VERTEX
  8
LAYER_1
 62
    39
  6
CONTINUOUS
 10
-0.392083
 20
-11.569268
  0
VERTEX
  8
LAYER_1
 62
    39
  6
CONTINUOUS
 10
-0.559041
 20
-11.573134
  0
VERTEX
  8
LAYER_1
 62
    39
  6
CONTINUOUS
 10
-0.714656
 20
-11.549565
  0
VERTEX
  8
LAYER_1
 62
    39
  6
CONTINUOUS
 10
-0.858979
 20
-11.498563
  0
VERTEX
  8
LAYER_1
 62
    39
  6
CONTINUOUS
 10
-0.992059
 20
-11.420136
  0
VERTEX
  8
LAYER_1
 62
    39
  6
CONTINUOUS
 10
-1.113944
 20
-11.314288
  0
VERTEX
  8
LAYER_1
 62
    39
  6
CONTINUOUS
 10
-1.224685
 20
-11.181024
  0
VERTEX
  8
LAYER_1
 62
    39
  6
CONTINUOUS
 10
-1.290632
 20
-11.078969
  0
VERTEX
  8
LAYER_1
 62
    39
  6
CONTINUOUS
 10
-1.348821
 20
-10.968141
  0
VERTEX
  8
LAYER_1
 62
    39
  6
CONTINUOUS
 10
-1.399251
 20
-10.848547
  0
VERTEX
  8
LAYER_1
 62
    39
  6
CONTINUOUS
 10
-1.441922
 20
-10.720198
  0
VERTEX
  8
LAYER_1
 62
    39
  6
CONTINUOUS
 10
-1.476835
 20
-10.583100
  0
VERTEX
  8
LAYER_1
 62
    39
  6
CONTINUOUS
 10
-1.503989
 20
-10.437264
  0
VERTEX
  8
LAYER_1
 62
    39
  6
CONTINUOUS
 10
-1.523385
 20
-10.282696
  0
VERTEX
  8
LAYER_1
 62
    39
  6
CONTINUOUS
 10
-1.535022
 20
-10.119406
  0
VERTEX
  8
LAYER_1
 62
    39
  6
CONTINUOUS
 10
-1.538902
 20
-9.947402
  0
VERTEX
  8
LAYER_1
 62
    39
  6
CONTINUOUS
 10
-1.535755
 20
-9.784937
  0
VERTEX
  8
LAYER_1
 62
    39
  6
CONTINUOUS
 10
-1.526314
 20
-9.627439
  0
VERTEX
  8
LAYER_1
 62
    39
  6
CONTINUOUS
 10
-1.510579
 20
-9.474907
  0
VERTEX
  8
LAYER_1
 62
    39
  6
CONTINUOUS
 10
-1.488550
 20
-9.327341
  0
VERTEX
  8
LAYER_1
 62
    39
  6
CONTINUOUS
 10
-1.460227
 20
-9.184741
  0
VERTEX
  8
LAYER_1
 62
    39
  6
CONTINUOUS
 10
-1.425610
 20
-9.047107
  0
VERTEX
  8
LAYER_1
 62
    39
  6
CONTINUOUS
 10
-1.384698
 20
-8.914439
  0
VERTEX
  8
LAYER_1
 62
    39
  6
CONTINUOUS
 10
-1.337492
 20
-8.786738
  0
VERTEX
  8
LAYER_1
 62
    39
  6
CONTINUOUS
 10
-1.283991
 20
-8.664002
  0
VERTEX
  8
LAYER_1
 62
    39
  6
CONTINUOUS
 10
-1.224196
 20
-8.546233
  0
VERTEX
  8
LAYER_1
 62
    39
  6
CONTINUOUS
 10
-1.158106
 20
-8.433429
  0
VERTEX
  8
LAYER_1
 62
    39
  6
CONTINUOUS
 10
-1.059582
 20
-8.290637
  0
VERTEX
  8
LAYER_1
 62
    39
  6
CONTINUOUS
 10
-0.954411
 20
-8.164870
  0
VERTEX
  8
LAYER_1
 62
    39
  6
CONTINUOUS
 10
-0.842603
 20
-8.056127
  0
VERTEX
  8
LAYER_1
 62
    39
  6
CONTINUOUS
 10
-0.724169
 20
-7.964411
  0
VERTEX
  8
LAYER_1
 62
    39
  6
CONTINUOUS
 10
-0.599119
 20
-7.889721
  0
VERTEX
  8
LAYER_1
 62
    39
  6
CONTINUOUS
 10
-0.467463
 20
-7.832060
  0
VERTEX
  8
LAYER_1
 62
    39
  6
CONTINUOUS
 10
-0.329213
 20
-7.791426
  0
VERTEX
  8
LAYER_1
 62
    39
  6
CONTINUOUS
 10
-0.184378
 20
-7.767823
  0
VERTEX
  8
LAYER_1
 62
    39
  6
CONTINUOUS
 10
0.013071
 20
-7.768419
  0
VERTEX
  8
LAYER_1
 62
    39
  6
CONTINUOUS
 10
0.185074
 20
-7.812874
  0
VERTEX
  8
LAYER_1
 62
    39
  6
CONTINUOUS
 10
0.332224
 20
-7.900898
  0
VERTEX
  8
LAYER_1
 62
    39
  6
CONTINUOUS
 10
0.444033
 20
-8.024061
  0
VERTEX
  8
LAYER_1
 62
    39
  6
CONTINUOUS
 10
0.511263
 20
-8.174129
  0
VERTEX
  8
LAYER_1
 62
    39
  6
CONTINUOUS
 10
0.533717
 20
-8.351350
  0
VERTEX
  8
LAYER_1
 62
    39
  6
CONTINUOUS
 10
0.522802
 20
-8.460775
  0
VERTEX
  8
LAYER_1
 62
    39
  6
CONTINUOUS
 10
0.490190
 20
-8.565263
  0
VERTEX
  8
LAYER_1
 62
    39
  6
CONTINUOUS
 10
0.436079
 20
-8.665252
  0
VERTEX
  8
LAYER_1
 62
    39
  6
CONTINUOUS
 10
0.371019
 20
-8.747957
  0
VERTEX
  8
LAYER_1
 62
    39
  6
CONTINUOUS
 10
0.305563
 20
-8.800272
  0
VERTEX
  8
LAYER_1
 62
    39
  6
CONTINUOUS
 10
0.239909
 20
-8.822177
  0
VERTEX
  8
LAYER_1
 62
    39
  6
CONTINUOUS
 10
0.208812
 20
-8.814239
  0
VERTEX
  8
LAYER_1
 62
    39
  6
CONTINUOUS
 10
0.179291
 20
-8.783781
  0
VERTEX
  8
LAYER_1
 62
    39
  6
CONTINUOUS
 10
0.151146
 20
-8.730591
  0
VERTEX
  8
LAYER_1
 62
    39
  6
CONTINUOUS
 10
0.124287
 20
-8.672501
  0
VERTEX
  8
LAYER_1
 62
    39
  6
CONTINUOUS
 10
0.099007
 20
-8.625549
  0
VERTEX
  8
LAYER_1
 62
    39
  6
CONTINUOUS
 10
0.075697
 20
-8.589921
  0
VERTEX
  8
LAYER_1
 62
    39
  6
CONTINUOUS
 10
0.032763
 20
-8.541658
  0
VERTEX
  8
LAYER_1
 62
    39
  6
CONTINUOUS
 10
-0.016287
 20
-8.502545
  0
VERTEX
  8
LAYER_1
 62
    39
  6
CONTINUOUS
 10
-0.071646
 20
-8.472146
  0
VERTEX
  8
LAYER_1
 62
    39
  6
CONTINUOUS
 10
-0.129903
 20
-8.452145
  0
VERTEX
  8
LAYER_1
 62
    39
  6
CONTINUOUS
 10
-0.189144
 20
-8.442618
  0
VERTEX
  8
LAYER_1
 62
    39
  6
CONTINUOUS
 10
-0.249173
 20
-8.443543
  0
VERTEX
  8
LAYER_1
 62
    39
  6
CONTINUOUS
 10
-0.377977
 20
-8.478240
  0
VERTEX
  8
LAYER_1
 62
    39
  6
CONTINUOUS
 10
-0.496712
 20
-8.554996
  0
VERTEX
  8
LAYER_1
 62
    39
  6
CONTINUOUS
 10
-0.605295
 20
-8.673703
  0
VERTEX
  8
LAYER_1
 62
    39
  6
CONTINUOUS
 10
-0.703642
 20
-8.834256
  0
VERTEX
  8
LAYER_1
 62
    39
  6
CONTINUOUS
 10
-0.760225
 20
-8.960021
  0
VERTEX
  8
LAYER_1
 62
    39
  6
CONTINUOUS
 10
-0.806575
 20
-9.094484
  0
VERTEX
  8
LAYER_1
 62
    39
  6
CONTINUOUS
 10
-0.842668
 20
-9.237700
  0
VERTEX
  8
LAYER_1
 62
    39
  6
CONTINUOUS
 10
-0.868479
 20
-9.389724
  0
VERTEX
  8
LAYER_1
 62
    39
  6
CONTINUOUS
 10
-0.883984
 20
-9.550612
  0
VERTEX
  8
LAYER_1
 62
    39
  6
CONTINUOUS
 10
-0.889157
 20
-9.720417
  0
SEQEND
  8
0
  0
POLYLINE
  8
LAYER_1
 62
    39
  6
CONTINUOUS
 66
     1
 40
0.013890
 41
0.013890
  0
VERTEX
  8
LAYER_1
 62
    39
  6
CONTINUOUS
 10
-2.380437
 20
-9.535890
  0
VERTEX
  8
LAYER_1
 62
    39
  6
CONTINUOUS
 10
-2.379763
 20
-9.676170
  0
VERTEX
  8
LAYER_1
 62
    39
  6
CONTINUOUS
 10
-2.377744
 20
-9.816081
  0
VERTEX
  8
LAYER_1
 62
    39
  6
CONTINUOUS
 10
-2.374380
 20
-9.955618
  0
VERTEX
  8
LAYER_1
 62
    39
  6
CONTINUOUS
 10
-2.369672
 20
-10.094778
  0
VERTEX
  8
LAYER_1
 62
    39
  6
CONTINUOUS
 10
-2.363624
 20
-10.233559
  0
VERTEX
  8
LAYER_1
 62
    39
  6
CONTINUOUS
 10
-2.356235
 20
-10.371957
  0
VERTEX
  8
LAYER_1
 62
    39
  6
CONTINUOUS
 10
-2.347508
 20
-10.509969
  0
VERTEX
  8
LAYER_1
 62
    39
  6
CONTINUOUS
 10
-2.337444
 20
-10.647591
  0
VERTEX
  8
LAYER_1
 62
    39
  6
CONTINUOUS
 10
-2.326045
 20
-10.784822
  0
VERTEX
  8
LAYER_1
 62
    39
  6
CONTINUOUS
 10
-2.313312
 20
-10.921656
  0
VERTEX
  8
LAYER_1
 62
    39
  6
CONTINUOUS
 10
-2.299247
 20
-11.058093
  0
VERTEX
  8
LAYER_1
 62
    39
  6
CONTINUOUS
 10
-2.283850
 20
-11.194127
  0
VERTEX
  8
LAYER_1
 62
    39
  6
CONTINUOUS
 10
-2.267125
 20
-11.329756
  0
VERTEX
  8
LAYER_1
 62
    39
  6
CONTINUOUS
 10
-2.249072
 20
-11.464978
  0
VERTEX
  8
LAYER_1
 62
    39
  6
CONTINUOUS
 10
-2.229693
 20
-11.599787
  0
VERTEX
  8
LAYER_1
 62
    39
  6
CONTINUOUS
 10
-2.217445
 20
-11.695713
  0
VERTEX
  8
LAYER_1
 62
    39
  6
CONTINUOUS
 10
-2.209956
 20
-11.761183
  0
VERTEX
  8
LAYER_1
 62
    39
  6
CONTINUOUS
 10
-2.207417
 20
-11.796720
  0
VERTEX
  8
LAYER_1
 62
    39
  6
CONTINUOUS
 10
-2.208021
 20
-11.826700
  0
VERTEX
  8
LAYER_1
 62
    39
  6
CONTINUOUS
 10
-2.209957
 20
-11.848364
  0
VERTEX
  8
LAYER_1
 62
    39
  6
CONTINUOUS
 10
-2.213413
 20
-11.862008
  0
VERTEX
  8
LAYER_1
 62
    39
  6
CONTINUOUS
 10
-2.220585
 20
-11.871316
  0
VERTEX
  8
LAYER_1
 62
    39
  6
CONTINUOUS
 10
-2.233654
 20
-11.879828
  0
VERTEX
  8
LAYER_1
 62
    39
  6
CONTINUOUS
 10
-2.252815
 20
-11.887606
  0
VERTEX
  8
LAYER_1
 62
    39
  6
CONTINUOUS
 10
-2.335043
 20
-11.915059
  0
VERTEX
  8
LAYER_1
 62
    39
  6
CONTINUOUS
 10
-2.787276
 20
-12.066039
  0
VERTEX
  8
LAYER_1
 62
    39
  6
CONTINUOUS
 10
-2.831023
 20
-12.077567
  0
VERTEX
  8
LAYER_1
 62
    39
  6
CONTINUOUS
 10
-2.864872
 20
-12.079799
  0
VERTEX
  8
LAYER_1
 62
    39
  6
CONTINUOUS
 10
-2.889205
 20
-12.073091
  0
VERTEX
  8
LAYER_1
 62
    39
  6
CONTINUOUS
 10
-2.907189
 20
-12.054161
  0
VERTEX
  8
LAYER_1
 62
    39
  6
CONTINUOUS
 10
-2.923462
 20
-12.021980
  0
VERTEX
  8
LAYER_1
 62
    39
  6
CONTINUOUS
 10
-2.938024
 20
-11.976315
  0
VERTEX
  8
LAYER_1
 62
    39
  6
CONTINUOUS
 10
-2.947967
 20
-11.896190
  0
VERTEX
  8
LAYER_1
 62
    39
  6
CONTINUOUS
 10
-2.958473
 20
-11.742725
  0
VERTEX
  8
LAYER_1
 62
    39
  6
CONTINUOUS
 10
-2.969461
 20
-11.515895
  0
VERTEX
  8
LAYER_1
 62
    39
  6
CONTINUOUS
 10
-2.980850
 20
-11.215673
  0
VERTEX
  8
LAYER_1
 62
    39
  6
CONTINUOUS
 10
-2.985012
 20
-11.079223
  0
VERTEX
  8
LAYER_1
 62
    39
  6
CONTINUOUS
 10
-2.988757
 20
-10.938961
  0
VERTEX
  8
LAYER_1
 62
    39
  6
CONTINUOUS
 10
-2.992081
 20
-10.794887
  0
VERTEX
  8
LAYER_1
 62
    39
  6
CONTINUOUS
 10
-2.994978
 20
-10.646998
  0
VERTEX
  8
LAYER_1
 62
    39
  6
CONTINUOUS
 10
-2.997444
 20
-10.495292
  0
VERTEX
  8
LAYER_1
 62
    39
  6
CONTINUOUS
 10
-2.999473
 20
-10.339768
  0
VERTEX
  8
LAYER_1
 62
    39
  6
CONTINUOUS
 10
-3.001060
 20
-10.180424
  0
VERTEX
  8
LAYER_1
 62
    39
  6
CONTINUOUS
 10
-3.002200
 20
-10.017259
  0
VERTEX
  8
LAYER_1
 62
    39
  6
CONTINUOUS
 10
-3.002888
 20
-9.850270
  0
VERTEX
  8
LAYER_1
 62
    39
  6
CONTINUOUS
 10
-3.003118
 20
-9.679457
  0
VERTEX
  8
LAYER_1
 62
    39
  6
CONTINUOUS
 10
-3.002799
 20
-9.494954
  0
VERTEX
  8
LAYER_1
 62
    39
  6
CONTINUOUS
 10
-3.001846
 20
-9.318033
  0
VERTEX
  8
LAYER_1
 62
    39
  6
CONTINUOUS
 10
-3.000272
 20
-9.148709
  0
VERTEX
  8
LAYER_1
 62
    39
  6
CONTINUOUS
 10
-2.998086
 20
-8.986997
  0
VERTEX
  8
LAYER_1
 62
    39
  6
CONTINUOUS
 10
-2.995297
 20
-8.832914
  0
VERTEX
  8
LAYER_1
 62
    39
  6
CONTINUOUS
 10
-2.991917
 20
-8.686474
  0
VERTEX
  8
LAYER_1
 62
    39
  6
CONTINUOUS
 10
-2.987955
 20
-8.547693
  0
VERTEX
  8
LAYER_1
 62
    39
  6
CONTINUOUS
 10
-2.983421
 20
-8.416587
  0
VERTEX
  8
LAYER_1
 62
    39
  6
CONTINUOUS
 10
-2.974278
 20
-8.221459
  0
VERTEX
  8
LAYER_1
 62
    39
  6
CONTINUOUS
 10
-2.963327
 20
-8.043703
  0
VERTEX
  8
LAYER_1
 62
    39
  6
CONTINUOUS
 10
-2.950609
 20
-7.883382
  0
VERTEX
  8
LAYER_1
 62
    39
  6
CONTINUOUS
 10
-2.936165
 20
-7.740561
  0
VERTEX
  8
LAYER_1
 62
    39
  6
CONTINUOUS
 10
-2.920035
 20
-7.615303
  0
VERTEX
  8
LAYER_1
 62
    39
  6
CONTINUOUS
 10
-2.899543
 20
-7.491311
  0
VERTEX
  8
LAYER_1
 62
    39
  6
CONTINUOUS
 10
-2.874294
 20
-7.401467
  0
VERTEX
  8
LAYER_1
 62
    39
  6
CONTINUOUS
 10
-2.844665
 20
-7.346354
  0
VERTEX
  8
LAYER_1
 62
    39
  6
CONTINUOUS
 10
-2.790958
 20
-7.305213
  0
VERTEX
  8
LAYER_1
 62
    39
  6
CONTINUOUS
 10
-2.693093
 20
-7.258784
  0
VERTEX
  8
LAYER_1
 62
    39
  6
CONTINUOUS
 10
-2.550882
 20
-7.206772
  0
VERTEX
  8
LAYER_1
 62
    39
  6
CONTINUOUS
 10
-2.401247
 20
-7.158546
  0
VERTEX
  8
LAYER_1
 62
    39
  6
CONTINUOUS
 10
-2.296530
 20
-7.128773
  0
VERTEX
  8
LAYER_1
 62
    39
  6
CONTINUOUS
 10
-2.236543
 20
-7.117390
  0
VERTEX
  8
LAYER_1
 62
    39
  6
CONTINUOUS
 10
-2.205136
 20
-7.119971
  0
VERTEX
  8
LAYER_1
 62
    39
  6
CONTINUOUS
 10
-2.186293
 20
-7.133889
  0
VERTEX
  8
LAYER_1
 62
    39
  6
CONTINUOUS
 10
-2.180012
 20
-7.158685
  0
VERTEX
  8
LAYER_1
 62
    39
  6
CONTINUOUS
 10
-2.182646
 20
-7.186537
  0
VERTEX
  8
LAYER_1
 62
    39
  6
CONTINUOUS
 10
-2.190799
 20
-7.241131
  0
VERTEX
  8
LAYER_1
 62
    39
  6
CONTINUOUS
 10
-2.204850
 20
-7.322594
  0
VERTEX
  8
LAYER_1
 62
    39
  6
CONTINUOUS
 10
-2.226160
 20
-7.455923
  0
VERTEX
  8
LAYER_1
 62
    39
  6
CONTINUOUS
 10
-2.246086
 20
-7.589910
  0
VERTEX
  8
LAYER_1
 62
    39
  6
CONTINUOUS
 10
-2.264630
 20
-7.724556
  0
VERTEX
  8
LAYER_1
 62
    39
  6
CONTINUOUS
 10
-2.281791
 20
-7.859864
  0
VERTEX
  8
LAYER_1
 62
    39
  6
CONTINUOUS
 10
-2.297573
 20
-7.995836
  0
VERTEX
  8
LAYER_1
 62
    39
  6
CONTINUOUS
 10
-2.311975
 20
-8.132473
  0
VERTEX
  8
LAYER_1
 62
    39
  6
CONTINUOUS
 10
-2.325000
 20
-8.269779
  0
VERTEX
  8
LAYER_1
 62
    39
  6
CONTINUOUS
 10
-2.336649
 20
-8.407753
  0
VERTEX
  8
LAYER_1
 62
    39
  6
CONTINUOUS
 10
-2.346922
 20
-8.546400
  0
VERTEX
  8
LAYER_1
 62
    39
  6
CONTINUOUS
 10
-2.355821
 20
-8.685720
  0
VERTEX
  8
LAYER_1
 62
    39
  6
CONTINUOUS
 10
-2.363348
 20
-8.825715
  0
VERTEX
  8
LAYER_1
 62
    39
  6
CONTINUOUS
 10
-2.369503
 20
-8.966387
  0
VERTEX
  8
LAYER_1
 62
    39
  6
CONTINUOUS
 10
-2.374289
 20
-9.107739
  0
VERTEX
  8
LAYER_1
 62
    39
  6
CONTINUOUS
 10
-2.377705
 20
-9.249772
  0
VERTEX
  8
LAYER_1
 62
    39
  6
CONTINUOUS
 10
-2.379754
 20
-9.392488
  0
VERTEX
  8
LAYER_1
 62
    39
  6
CONTINUOUS
 10
-2.380437
 20
-9.535890
  0
SEQEND
  8
0
  0
POLYLINE
  8
LAYER_1
 62
    39
  6
CONTINUOUS
 66
     1
 40
0.013890
 41
0.013890
  0
VERTEX
  8
LAYER_1
 62
    39
  6
CONTINUOUS
 10
-8.507780
 20
-11.749181
  0
VERTEX
  8
LAYER_1
 62
    39
  6
CONTINUOUS
 10
-8.548036
 20
-11.769630
  0
VERTEX
  8
LAYER_1
 62
    39
  6
CONTINUOUS
 10
-8.601996
 20
-11.853281
  0
VERTEX
  8
LAYER_1
 62
    39
  6
CONTINUOUS
 10
-8.669661
 20
-12.000134
  0
VERTEX
  8
LAYER_1
 62
    39
  6
CONTINUOUS
 10
-8.743924
 20
-12.170104
  0
VERTEX
  8
LAYER_1
 62
    39
  6
CONTINUOUS
 10
-8.817807
 20
-12.321297
  0
VERTEX
  8
LAYER_1
 62
    39
  6
CONTINUOUS
 10
-8.891500
 20
-12.454110
  0
VERTEX
  8
LAYER_1
 62
    39
  6
CONTINUOUS
 10
-8.914622
 20
-12.495146
  0
VERTEX
  8
LAYER_1
 62
    39
  6
CONTINUOUS
 10
-9.056910
 20
-12.724045
  0
VERTEX
  8
LAYER_1
 62
    39
  6
CONTINUOUS
 10
-9.172861
 20
-12.882765
  0
VERTEX
  8
LAYER_1
 62
    39
  6
CONTINUOUS
 10
-9.262473
 20
-12.971307
  0
VERTEX
  8
LAYER_1
 62
    39
  6
CONTINUOUS
 10
-9.325748
 20
-12.989669
  0
VERTEX
  8
LAYER_1
 62
    39
  6
CONTINUOUS
 10
-9.396870
 20
-12.937571
  0
VERTEX
  8
LAYER_1
 62
    39
  6
CONTINUOUS
 10
-9.480173
 20
-12.824693
  0
VERTEX
  8
LAYER_1
 62
    39
  6
CONTINUOUS
 10
-9.575846
 20
-12.650972
  0
VERTEX
  8
LAYER_1
 62
    39
  6
CONTINUOUS
 10
-9.637112
 20
-12.520604
  0
VERTEX
  8
LAYER_1
 62
    39
  6
CONTINUOUS
 10
-9.699652
 20
-12.374174
  0
VERTEX
  8
LAYER_1
 62
    39
  6
CONTINUOUS
 10
-9.763507
 20
-12.211721
  0
VERTEX
  8
LAYER_1
 62
    39
  6
CONTINUOUS
 10
-9.828719
 20
-12.033278
  0
VERTEX
  8
LAYER_1
 62
    39
  6
CONTINUOUS
 10
-9.895327
 20
-11.838882
  0
VERTEX
  8
LAYER_1
 62
    39
  6
CONTINUOUS
 10
-9.944051
 20
-11.687138
  0
VERTEX
  8
LAYER_1
 62
    39
  6
CONTINUOUS
 10
-9.989730
 20
-11.536564
  0
VERTEX
  8
LAYER_1
 62
    39
  6
CONTINUOUS
 10
-10.032365
 20
-11.387161
  0
VERTEX
  8
LAYER_1
 62
    39
  6
CONTINUOUS
 10
-10.071954
 20
-11.238928
  0
VERTEX
  8
LAYER_1
 62
    39
  6
CONTINUOUS
 10
-10.108498
 20
-11.091866
  0
VERTEX
  8
LAYER_1
 62
    39
  6
CONTINUOUS
 10
-10.141998
 20
-10.945974
  0
VERTEX
  8
LAYER_1
 62
    39
  6
CONTINUOUS
 10
-10.172452
 20
-10.801252
  0
VERTEX
  8
LAYER_1
 62
    39
  6
CONTINUOUS
 10
-10.199861
 20
-10.657701
  0
VERTEX
  8
LAYER_1
 62
    39
  6
CONTINUOUS
 10
-10.224224
 20
-10.515319
  0
VERTEX
  8
LAYER_1
 62
    39
  6
CONTINUOUS
 10
-10.245796
 20
-10.372217
  0
VERTEX
  8
LAYER_1
 62
    39
  6
CONTINUOUS
 10
-10.264830
 20
-10.226505
  0
VERTEX
  8
LAYER_1
 62
    39
  6
CONTINUOUS
 10
-10.281326
 20
-10.078182
  0
VERTEX
  8
LAYER_1
 62
    39
  6
CONTINUOUS
 10
-10.295283
 20
-9.927249
  0
VERTEX
  8
LAYER_1
 62
    39
  6
CONTINUOUS
 10
-10.306703
 20
-9.773705
  0
VERTEX
  8
LAYER_1
 62
    39
  6
CONTINUOUS
 10
-10.315585
 20
-9.617550
  0
VERTEX
  8
LAYER_1
 62
    39
  6
CONTINUOUS
 10
-10.321929
 20
-9.458785
  0
VERTEX
  8
LAYER_1
 62
    39
  6
CONTINUOUS
 10
-10.325735
 20
-9.297408
  0
VERTEX
  8
LAYER_1
 62
    39
  6
CONTINUOUS
 10
-10.327004
 20
-9.133421
  0
VERTEX
  8
LAYER_1
 62
    39
  6
CONTINUOUS
 10
-10.326320
 20
-8.895216
  0
VERTEX
  8
LAYER_1
 62
    39
  6
CONTINUOUS
 10
-10.324258
 20
-8.684783
  0
VERTEX
  8
LAYER_1
 62
    39
  6
CONTINUOUS
 10
-10.320803
 20
-8.502126
  0
VERTEX
  8
LAYER_1
 62
    39
  6
CONTINUOUS
 10
-10.315940
 20
-8.347251
  0
VERTEX
  8
LAYER_1
 62
    39
  6
CONTINUOUS
 10
-10.309653
 20
-8.220162
  0
VERTEX
  8
LAYER_1
 62
    39
  6
CONTINUOUS
 10
-10.301927
 20
-8.120864
  0
VERTEX
  8
LAYER_1
 62
    39
  6
CONTINUOUS
 10
-10.292748
 20
-8.049362
  0
VERTEX
  8
LAYER_1
 62
    39
  6
CONTINUOUS
 10
-10.261056
 20
-7.940642
  0
VERTEX
  8
LAYER_1
 62
    39
  6
CONTINUOUS
 10
-10.210521
 20
-7.885931
  0
VERTEX
  8
LAYER_1
 62
    39
  6
CONTINUOUS
 10
-10.141142
 20
-7.885232
  0
VERTEX
  8
LAYER_1
 62
    39
  6
CONTINUOUS
 10
-9.601543
 20
-8.065378
  0
VERTEX
  8
LAYER_1
 62
    39
  6
CONTINUOUS
 10
-9.544474
 20
-8.086852
  0
VERTEX
  8
LAYER_1
 62
    39
  6
CONTINUOUS
 10
-9.503584
 20
-8.107767
  0
VERTEX
  8
LAYER_1
 62
    39
  6
CONTINUOUS
 10
-9.479063
 20
-8.128055
  0
VERTEX
  8
LAYER_1
 62
    39
  6
CONTINUOUS
 10
-9.465008
 20
-8.150652
  0
VERTEX
  8
LAYER_1
 62
    39
  6
CONTINUOUS
 10
-9.456857
 20
-8.179808
  0
VERTEX
  8
LAYER_1
 62
    39
  6
CONTINUOUS
 10
-9.454224
 20
-8.215189
  0
VERTEX
  8
LAYER_1
 62
    39
  6
CONTINUOUS
 10
-9.455716
 20
-8.233942
  0
VERTEX
  8
LAYER_1
 62
    39
  6
CONTINUOUS
 10
-9.460442
 20
-8.266829
  0
VERTEX
  8
LAYER_1
 62
    39
  6
CONTINUOUS
 10
-9.468783
 20
-8.313031
  0
VERTEX
  8
LAYER_1
 62
    39
  6
CONTINUOUS
 10
-9.495282
 20
-8.450991
  0
VERTEX
  8
LAYER_1
 62
    39
  6
CONTINUOUS
 10
-9.518248
 20
-8.593509
  0
VERTEX
  8
LAYER_1
 62
    39
  6
CONTINUOUS
 10
-9.537681
 20
-8.740561
  0
VERTEX
  8
LAYER_1
 62
    39
  6
CONTINUOUS
 10
-9.553580
 20
-8.892124
  0
VERTEX
  8
LAYER_1
 62
    39
  6
CONTINUOUS
 10
-9.565947
 20
-9.048173
  0
VERTEX
  8
LAYER_1
 62
    39
  6
CONTINUOUS
 10
-9.574780
 20
-9.208683
  0
VERTEX
  8
LAYER_1
 62
    39
  6
CONTINUOUS
 10
-9.580080
 20
-9.373631
  0
VERTEX
  8
LAYER_1
 62
    39
  6
CONTINUOUS
 10
-9.581846
 20
-9.542992
  0
VERTEX
  8
LAYER_1
 62
    39
  6
CONTINUOUS
 10
-9.580546
 20
-9.704722
  0
VERTEX
  8
LAYER_1
 62
    39
  6
CONTINUOUS
 10
-9.576643
 20
-9.862086
  0
VERTEX
  8
LAYER_1
 62
    39
  6
CONTINUOUS
 10
-9.570140
 20
-10.015076
  0
VERTEX
  8
LAYER_1
 62
    39
  6
CONTINUOUS
 10
-9.561034
 20
-10.163683
  0
VERTEX
  8
LAYER_1
 62
    39
  6
CONTINUOUS
 10
-9.549328
 20
-10.307899
  0
VERTEX
  8
LAYER_1
 62
    39
  6
CONTINUOUS
 10
-9.535021
 20
-10.447716
  0
VERTEX
  8
LAYER_1
 62
    39
  6
CONTINUOUS
 10
-9.518112
 20
-10.583124
  0
VERTEX
  8
LAYER_1
 62
    39
  6
CONTINUOUS
 10
-9.498602
 20
-10.714115
  0
VERTEX
  8
LAYER_1
 62
    39
  6
CONTINUOUS
 10
-9.476492
 20
-10.840681
  0
VERTEX
  8
LAYER_1
 62
    39
  6
CONTINUOUS
 10
-9.422372
 20
-11.088097
  0
VERTEX
  8
LAYER_1
 62
    39
  6
CONTINUOUS
 10
-9.365362
 20
-11.270829
  0
VERTEX
  8
LAYER_1
 62
    39
  6
CONTINUOUS
 10
-9.305459
 20
-11.388975
  0
VERTEX
  8
LAYER_1
 62
    39
  6
CONTINUOUS
 10
-9.242665
 20
-11.442634
  0
VERTEX
  8
LAYER_1
 62
    39
  6
CONTINUOUS
 10
-9.144849
 20
-11.434653
  0
VERTEX
  8
LAYER_1
 62
    39
  6
CONTINUOUS
 10
-9.049201
 20
-11.344739
  0
VERTEX
  8
LAYER_1
 62
    39
  6
CONTINUOUS
 10
-8.955640
 20
-11.173016
  0
VERTEX
  8
LAYER_1
 62
    39
  6
CONTINUOUS
 10
-8.864087
 20
-10.919610
  0
VERTEX
  8
LAYER_1
 62
    39
  6
CONTINUOUS
 10
-8.829681
 20
-10.798581
  0
VERTEX
  8
LAYER_1
 62
    39
  6
CONTINUOUS
 10
-8.798919
 20
-10.671492
  0
VERTEX
  8
LAYER_1
 62
    39
  6
CONTINUOUS
 10
-8.771795
 20
-10.538359
  0
VERTEX
  8
LAYER_1
 62
    39
  6
CONTINUOUS
 10
-8.748304
 20
-10.399196
  0
VERTEX
  8
LAYER_1
 62
    39
  6
CONTINUOUS
 10
-8.728442
 20
-10.254016
  0
VERTEX
  8
LAYER_1
 62
    39
  6
CONTINUOUS
 10
-8.712202
 20
-10.102834
  0
VERTEX
  8
LAYER_1
 62
    39
  6
CONTINUOUS
 10
-8.699580
 20
-9.945664
  0
VERTEX
  8
LAYER_1
 62
    39
  6
CONTINUOUS
 10
-8.690571
 20
-9.782520
  0
VERTEX
  8
LAYER_1
 62
    39
  6
CONTINUOUS
 10
-8.685170
 20
-9.613416
  0
VERTEX
  8
LAYER_1
 62
    39
  6
CONTINUOUS
 10
-8.683370
 20
-9.438366
  0
VERTEX
  8
LAYER_1
 62
    39
  6
CONTINUOUS
 10
-8.685372
 20
-9.286843
  0
VERTEX
  8
LAYER_1
 62
    39
  6
CONTINUOUS
 10
-8.691394
 20
-9.134150
  0
VERTEX
  8
LAYER_1
 62
    39
  6
CONTINUOUS
 10
-8.701461
 20
-8.980279
  0
VERTEX
  8
LAYER_1
 62
    39
  6
CONTINUOUS
 10
-8.715596
 20
-8.825222
  0
VERTEX
  8
LAYER_1
 62
    39
  6
CONTINUOUS
 10
-8.733824
 20
-8.668971
  0
VERTEX
  8
LAYER_1
 62
    39
  6
CONTINUOUS
 10
-8.756169
 20
-8.511520
  0
VERTEX
  8
LAYER_1
 62
    39
  6
CONTINUOUS
 10
-8.763306
 20
-8.466913
  0
VERTEX
  8
LAYER_1
 62
    39
  6
CONTINUOUS
 10
-8.767588
 20
-8.436168
  0
VERTEX
  8
LAYER_1
 62
    39
  6
CONTINUOUS
 10
-8.769016
 20
-8.419055
  0
VERTEX
  8
LAYER_1
 62
    39
  6
CONTINUOUS
 10
-8.766446
 20
-8.399241
  0
VERTEX
  8
LAYER_1
 62
    39
  6
CONTINUOUS
 10
-8.758738
 20
-8.383677
  0
VERTEX
  8
LAYER_1
 62
    39
  6
CONTINUOUS
 10
-8.745890
 20
-8.372827
  0
VERTEX
  8
LAYER_1
 62
    39
  6
CONTINUOUS
 10
-8.729111
 20
-8.366329
  0
VERTEX
  8
LAYER_1
 62
    39
  6
CONTINUOUS
 10
-8.708144
 20
-8.366066
  0
VERTEX
  8
LAYER_1
 62
    39
  6
CONTINUOUS
 10
-8.683370
 20
-8.371917
  0
VERTEX
  8
LAYER_1
 62
    39
  6
CONTINUOUS
 10
-8.081240
 20
-8.572937
  0
VERTEX
  8
LAYER_1
 62
    39
  6
CONTINUOUS
 10
-8.044915
 20
-8.588137
  0
VERTEX
  8
LAYER_1
 62
    39
  6
CONTINUOUS
 10
-8.016207
 20
-8.606790
  0
VERTEX
  8
LAYER_1
 62
    39
  6
CONTINUOUS
 10
-7.994732
 20
-8.628787
  0
VERTEX
  8
LAYER_1
 62
    39
  6
CONTINUOUS
 10
-7.980235
 20
-8.655455
  0
VERTEX
  8
LAYER_1
 62
    39
  6
CONTINUOUS
 10
-7.971258
 20
-8.686732
  0
VERTEX
  8
LAYER_1
 62
    39
  6
CONTINUOUS
 10
-7.968181
 20
-8.722724
  0
VERTEX
  8
LAYER_1
 62
    39
  6
CONTINUOUS
 10
-7.969037
 20
-8.736232
  0
VERTEX
  8
LAYER_1
 62
    39
  6
CONTINUOUS
 10
-7.971606
 20
-8.760002
  0
VERTEX
  8
LAYER_1
 62
    39
  6
CONTINUOUS
 10
-7.975890
 20
-8.793803
  0
VERTEX
  8
LAYER_1
 62
    39
  6
CONTINUOUS
 10
-7.994842
 20
-8.929082
  0
VERTEX
  8
LAYER_1
 62
    39
  6
CONTINUOUS
 10
-8.011234
 20
-9.070661
  0
VERTEX
  8
LAYER_1
 62
    39
  6
CONTINUOUS
 10
-8.025077
 20
-9.218538
  0
VERTEX
  8
LAYER_1
 62
    39
  6
CONTINUOUS
 10
-8.036381
 20
-9.372708
  0
VERTEX
  8
LAYER_1
 62
    39
  6
CONTINUOUS
 10
-8.045155
 20
-9.533169
  0
VERTEX
  8
LAYER_1
 62
    39
  6
CONTINUOUS
 10
-8.051410
 20
-9.699918
  0
VERTEX
  8
LAYER_1
 62
    39
  6
CONTINUOUS
 10
-8.055155
 20
-9.872951
  0
VERTEX
  8
LAYER_1
 62
    39
  6
CONTINUOUS
 10
-8.056402
 20
-10.052264
  0
VERTEX
  8
LAYER_1
 62
    39
  6
CONTINUOUS
 10
-8.054878
 20
-10.215336
  0
VERTEX
  8
LAYER_1
 62
    39
  6
CONTINUOUS
 10
-8.050302
 20
-10.373962
  0
VERTEX
  8
LAYER_1
 62
    39
  6
CONTINUOUS
 10
-8.042666
 20
-10.528137
  0
VERTEX
  8
LAYER_1
 62
    39
  6
CONTINUOUS
 10
-8.031964
 20
-10.677854
  0
VERTEX
  8
LAYER_1
 62
    39
  6
CONTINUOUS
 10
-8.018189
 20
-10.823107
  0
VERTEX
  8
LAYER_1
 62
    39
  6
CONTINUOUS
 10
-8.001332
 20
-10.963890
  0
VERTEX
  8
LAYER_1
 62
    39
  6
CONTINUOUS
 10
-7.981388
 20
-11.100196
  0
VERTEX
  8
LAYER_1
 62
    39
  6
CONTINUOUS
 10
-7.958350
 20
-11.232020
  0
VERTEX
  8
LAYER_1
 62
    39
  6
CONTINUOUS
 10
-7.932209
 20
-11.359354
  0
VERTEX
  8
LAYER_1
 62
    39
  6
CONTINUOUS
 10
-7.868452
 20
-11.608628
  0
VERTEX
  8
LAYER_1
 62
    39
  6
CONTINUOUS
 10
-7.801805
 20
-11.793605
  0
VERTEX
  8
LAYER_1
 62
    39
  6
CONTINUOUS
 10
-7.732268
 20
-11.914384
  0
VERTEX
  8
LAYER_1
 62
    39
  6
CONTINUOUS
 10
-7.659839
 20
-11.971063
  0
VERTEX
  8
LAYER_1
 62
    39
  6
CONTINUOUS
 10
-7.584677
 20
-11.958193
  0
VERTEX
  8
LAYER_1
 62
    39
  6
CONTINUOUS
 10
-7.506949
 20
-11.870125
  0
VERTEX
  8
LAYER_1
 62
    39
  6
CONTINUOUS
 10
-7.426653
 20
-11.706666
  0
VERTEX
  8
LAYER_1
 62
    39
  6
CONTINUOUS
 10
-7.343787
 20
-11.467622
  0
VERTEX
  8
LAYER_1
 62
    39
  6
CONTINUOUS
 10
-7.308478
 20
-11.342478
  0
VERTEX
  8
LAYER_1
 62
    39
  6
CONTINUOUS
 10
-7.277350
 20
-11.212506
  0
VERTEX
  8
LAYER_1
 62
    39
  6
CONTINUOUS
 10
-7.250395
 20
-11.077734
  0
VERTEX
  8
LAYER_1
 62
    39
  6
CONTINUOUS
 10
-7.227606
 20
-10.938189
  0
VERTEX
  8
LAYER_1
 62
    39
  6
CONTINUOUS
 10
-7.208976
 20
-10.793900
  0
VERTEX
  8
LAYER_1
 62
    39
  6
CONTINUOUS
 10
-7.194499
 20
-10.644895
  0
VERTEX
  8
LAYER_1
 62
    39
  6
CONTINUOUS
 10
-7.184167
 20
-10.491202
  0
VERTEX
  8
LAYER_1
 62
    39
  6
CONTINUOUS
 10
-7.177973
 20
-10.332848
  0
VERTEX
  8
LAYER_1
 62
    39
  6
CONTINUOUS
 10
-7.175909
 20
-10.169862
  0
VERTEX
  8
LAYER_1
 62
    39
  6
CONTINUOUS
 10
-7.178589
 20
-10.007374
  0
VERTEX
  8
LAYER_1
 62
    39
  6
CONTINUOUS
 10
-7.186654
 20
-9.843535
  0
VERTEX
  8
LAYER_1
 62
    39
  6
CONTINUOUS
 10
-7.200146
 20
-9.678283
  0
VERTEX
  8
LAYER_1
 62
    39
  6
CONTINUOUS
 10
-7.219104
 20
-9.511555
  0
VERTEX
  8
LAYER_1
 62
    39
  6
CONTINUOUS
 10
-7.243571
 20
-9.343287
  0
VERTEX
  8
LAYER_1
 62
    39
  6
CONTINUOUS
 10
-7.281290
 20
-9.107615
  0
VERTEX
  8
LAYER_1
 62
    39
  6
CONTINUOUS
 10
-7.303782
 20
-8.963937
  0
VERTEX
  8
LAYER_1
 62
    39
  6
CONTINUOUS
 10
-7.311236
 20
-8.911961
  0
VERTEX
  8
LAYER_1
 62
    39
  6
CONTINUOUS
 10
-7.307811
 20
-8.892048
  0
VERTEX
  8
LAYER_1
 62
    39
  6
CONTINUOUS
 10
-7.297534
 20
-8.876038
  0
VERTEX
  8
LAYER_1
 62
    39
  6
CONTINUOUS
 10
-7.280406
 20
-8.864157
  0
VERTEX
  8
LAYER_1
 62
    39
  6
CONTINUOUS
 10
-7.258135
 20
-8.858490
  0
VERTEX
  8
LAYER_1
 62
    39
  6
CONTINUOUS
 10
-7.234152
 20
-8.858466
  0
VERTEX
  8
LAYER_1
 62
    39
  6
CONTINUOUS
 10
-7.208457
 20
-8.864315
  0
VERTEX
  8
LAYER_1
 62
    39
  6
CONTINUOUS
 10
-6.757079
 20
-9.015008
  0
VERTEX
  8
LAYER_1
 62
    39
  6
CONTINUOUS
 10
-6.693693
 20
-9.036169
  0
VERTEX
  8
LAYER_1
 62
    39
  6
CONTINUOUS
 10
-6.637990
 20
-9.074786
  0
VERTEX
  8
LAYER_1
 62
    39
  6
CONTINUOUS
 10
-6.594085
 20
-9.149345
  0
VERTEX
  8
LAYER_1
 62
    39
  6
CONTINUOUS
 10
-6.561791
 20
-9.259681
  0
VERTEX
  8
LAYER_1
 62
    39
  6
CONTINUOUS
 10
-6.544930
 20
-9.372681
  0
VERTEX
  8
LAYER_1
 62
    39
  6
CONTINUOUS
 10
-6.532885
 20
-9.519863
  0
VERTEX
  8
LAYER_1
 62
    39
  6
CONTINUOUS
 10
-6.525657
 20
-9.701226
  0
VERTEX
  8
LAYER_1
 62
    39
  6
CONTINUOUS
 10
-6.523248
 20
-9.916772
  0
VERTEX
  8
LAYER_1
 62
    39
  6
CONTINUOUS
 10
-6.524559
 20
-10.062299
  0
VERTEX
  8
LAYER_1
 62
    39
  6
CONTINUOUS
 10
-6.528497
 20
-10.206962
  0
VERTEX
  8
LAYER_1
 62
    39
  6
CONTINUOUS
 10
-6.535065
 20
-10.350771
  0
VERTEX
  8
LAYER_1
 62
    39
  6
CONTINUOUS
 10
-6.544270
 20
-10.493737
  0
VERTEX
  8
LAYER_1
 62
    39
  6
CONTINUOUS
 10
-6.556117
 20
-10.635871
  0
VERTEX
  8
LAYER_1
 62
    39
  6
CONTINUOUS
 10
-6.570610
 20
-10.777183
  0
VERTEX
  8
LAYER_1
 62
    39
  6
CONTINUOUS
 10
-6.587755
 20
-10.917685
  0
VERTEX
  8
LAYER_1
 62
    39
  6
CONTINUOUS
 10
-6.607557
 20
-11.057386
  0
VERTEX
  8
LAYER_1
 62
    39
  6
CONTINUOUS
 10
-6.630022
 20
-11.196299
  0
VERTEX
  8
LAYER_1
 62
    39
  6
CONTINUOUS
 10
-6.655154
 20
-11.334433
  0
VERTEX
  8
LAYER_1
 62
    39
  6
CONTINUOUS
 10
-6.685702
 20
-11.485918
  0
VERTEX
  8
LAYER_1
 62
    39
  6
CONTINUOUS
 10
-6.719106
 20
-11.634075
  0
VERTEX
  8
LAYER_1
 62
    39
  6
CONTINUOUS
 10
-6.755364
 20
-11.778914
  0
VERTEX
  8
LAYER_1
 62
    39
  6
CONTINUOUS
 10
-6.794478
 20
-11.920443
  0
VERTEX
  8
LAYER_1
 62
    39
  6
CONTINUOUS
 10
-6.836447
 20
-12.058671
  0
VERTEX
  8
LAYER_1
 62
    39
  6
CONTINUOUS
 10
-6.881271
 20
-12.193606
  0
VERTEX
  8
LAYER_1
 62
    39
  6
CONTINUOUS
 10
-6.928949
 20
-12.325257
  0
VERTEX
  8
LAYER_1
 62
    39
  6
CONTINUOUS
 10
-6.979482
 20
-12.453632
  0
VERTEX
  8
LAYER_1
 62
    39
  6
CONTINUOUS
 10
-7.032870
 20
-12.578740
  0
VERTEX
  8
LAYER_1
 62
    39
  6
CONTINUOUS
 10
-7.032870
 20
-12.578740
  0
VERTEX
  8
LAYER_1
 62
    39
  6
CONTINUOUS
 10
-7.109231
 20
-12.746576
  0
VERTEX
  8
LAYER_1
 62
    39
  6
CONTINUOUS
 10
-7.186167
 20
-12.901274
  0
VERTEX
  8
LAYER_1
 62
    39
  6
CONTINUOUS
 10
-7.263637
 20
-13.042848
  0
VERTEX
  8
LAYER_1
 62
    39
  6
CONTINUOUS
 10
-7.341600
 20
-13.171311
  0
VERTEX
  8
LAYER_1
 62
    39
  6
CONTINUOUS
 10
-7.420016
 20
-13.286677
  0
VERTEX
  8
LAYER_1
 62
    39
  6
CONTINUOUS
 10
-7.538500
 20
-13.435580
  0
VERTEX
  8
LAYER_1
 62
    39
  6
CONTINUOUS
 10
-7.630145
 20
-13.518060
  0
VERTEX
  8
LAYER_1
 62
    39
  6
CONTINUOUS
 10
-7.694953
 20
-13.534118
  0
VERTEX
  8
LAYER_1
 62
    39
  6
CONTINUOUS
 10
-7.744378
 20
-13.500288
  0
VERTEX
  8
LAYER_1
 62
    39
  6
CONTINUOUS
 10
-7.801988
 20
-13.428915
  0
VERTEX
  8
LAYER_1
 62
    39
  6
CONTINUOUS
 10
-7.867972
 20
-13.319705
  0
VERTEX
  8
LAYER_1
 62
    39
  6
CONTINUOUS
 10
-7.943025
 20
-13.172272
  0
VERTEX
  8
LAYER_1
 62
    39
  6
CONTINUOUS
 10
-8.027598
 20
-12.984547
  0
VERTEX
  8
LAYER_1
 62
    39
  6
CONTINUOUS
 10
-8.121496
 20
-12.756823
  0
VERTEX
  8
LAYER_1
 62
    39
  6
CONTINUOUS
 10
-8.176260
 20
-12.615771
  0
VERTEX
  8
LAYER_1
 62
    39
  6
CONTINUOUS
 10
-8.232627
 20
-12.463483
  0
VERTEX
  8
LAYER_1
 62
    39
  6
CONTINUOUS
 10
-8.290601
 20
-12.299766
  0
VERTEX
  8
LAYER_1
 62
    39
  6
CONTINUOUS
 10
-8.350181
 20
-12.124425
  0
VERTEX
  8
LAYER_1
 62
    39
  6
CONTINUOUS
 10
-8.420924
 20
-11.921724
  0
VERTEX
  8
LAYER_1
 62
    39
  6
CONTINUOUS
 10
-8.473585
 20
-11.796523
  0
VERTEX
  8
LAYER_1
 62
    39
  6
CONTINUOUS
 10
-8.507780
 20
-11.749181
  0
SEQEND
  8
0
  0
POLYLINE
  8
LAYER_1
 62
    39
  6
CONTINUOUS
 66
     1
 40
0.013890
 41
0.013890
  0
VERTEX
  8
LAYER_1
 62
    39
  6
CONTINUOUS
 10
-5.303358
 20
-10.668228
  0
VERTEX
  8
LAYER_1
 62
    39
  6
CONTINUOUS
 10
-5.273316
 20
-10.500092
  0
VERTEX
  8
LAYER_1
 62
    39
  6
CONTINUOUS
 10
-5.216941
 20
-10.331949
  0
VERTEX
  8
LAYER_1
 62
    39
  6
CONTINUOUS
 10
-5.134130
 20
-10.163760
  0
VERTEX
  8
LAYER_1
 62
    39
  6
CONTINUOUS
 10
-5.010291
 20
-9.983816
  0
VERTEX
  8
LAYER_1
 62
    39
  6
CONTINUOUS
 10
-4.872254
 20
-9.852995
  0
VERTEX
  8
LAYER_1
 62
    39
  6
CONTINUOUS
 10
-4.720016
 20
-9.771524
  0
VERTEX
  8
LAYER_1
 62
    39
  6
CONTINUOUS
 10
-4.613786
 20
-9.745085
  0
VERTEX
  8
LAYER_1
 62
    39
  6
CONTINUOUS
 10
-4.521759
 20
-9.746294
  0
VERTEX
  8
LAYER_1
 62
    39
  6
CONTINUOUS
 10
-4.443933
 20
-9.774921
  0
VERTEX
  8
LAYER_1
 62
    39
  6
CONTINUOUS
 10
-4.385107
 20
-9.828251
  0
VERTEX
  8
LAYER_1
 62
    39
  6
CONTINUOUS
 10
-4.349952
 20
-9.903376
  0
VERTEX
  8
LAYER_1
 62
    39
  6
CONTINUOUS
 10
-4.338276
 20
-9.999772
  0
VERTEX
  8
LAYER_1
 62
    39
  6
CONTINUOUS
 10
-4.343673
 20
-10.073003
  0
VERTEX
  8
LAYER_1
 62
    39
  6
CONTINUOUS
 10
-4.359863
 20
-10.141548
  0
VERTEX
  8
LAYER_1
 62
    39
  6
CONTINUOUS
 10
-4.386843
 20
-10.205866
  0
VERTEX
  8
LAYER_1
 62
    39
  6
CONTINUOUS
 10
-4.424904
 20
-10.266442
  0
VERTEX
  8
LAYER_1
 62
    39
  6
CONTINUOUS
 10
-4.474327
 20
-10.323456
  0
VERTEX
  8
LAYER_1
 62
    39
  6
CONTINUOUS
 10
-4.535110
 20
-10.376906
  0
VERTEX
  8
LAYER_1
 62
    39
  6
CONTINUOUS
 10
-4.927606
 20
-10.676362
  0
VERTEX
  8
LAYER_1
 62
    39
  6
CONTINUOUS
 10
-4.868602
 20
-11.316165
  0
VERTEX
  8
LAYER_1
 62
    39
  6
CONTINUOUS
 10
-4.819058
 20
-11.273062
  0
VERTEX
  8
LAYER_1
 62
    39
  6
CONTINUOUS
 10
-4.766122
 20
-11.228988
  0
VERTEX
  8
LAYER_1
 62
    39
  6
CONTINUOUS
 10
-4.709787
 20
-11.183937
  0
VERTEX
  8
LAYER_1
 62
    39
  6
CONTINUOUS
 10
-4.594469
 20
-11.093095
  0
VERTEX
  8
LAYER_1
 62
    39
  6
CONTINUOUS
 10
-4.497331
 20
-11.014946
  0
VERTEX
  8
LAYER_1
 62
    39
  6
CONTINUOUS
 10
-4.418370
 20
-10.949492
  0
VERTEX
  8
LAYER_1
 62
    39
  6
CONTINUOUS
 10
-4.288820
 20
-10.833913
  0
VERTEX
  8
LAYER_1
 62
    39
  6
CONTINUOUS
 10
-4.174197
 20
-10.717921
  0
VERTEX
  8
LAYER_1
 62
    39
  6
CONTINUOUS
 10
-4.074501
 20
-10.601517
  0
VERTEX
  8
LAYER_1
 62
    39
  6
CONTINUOUS
 10
-3.989735
 20
-10.484699
  0
VERTEX
  8
LAYER_1
 62
    39
  6
CONTINUOUS
 10
-3.919898
 20
-10.367469
  0
VERTEX
  8
LAYER_1
 62
    39
  6
CONTINUOUS
 10
-3.851677
 20
-10.218099
  0
VERTEX
  8
LAYER_1
 62
    39
  6
CONTINUOUS
 10
-3.802949
 20
-10.061953
  0
VERTEX
  8
LAYER_1
 62
    39
  6
CONTINUOUS
 10
-3.773714
 20
-9.898934
  0
VERTEX
  8
LAYER_1
 62
    39
  6
CONTINUOUS
 10
-3.763969
 20
-9.728945
  0
VERTEX
  8
LAYER_1
 62
    39
  6
CONTINUOUS
 10
-3.780091
 20
-9.534306
  0
VERTEX
  8
LAYER_1
 62
    39
  6
CONTINUOUS
 10
-3.828405
 20
-9.370381
  0
VERTEX
  8
LAYER_1
 62
    39
  6
CONTINUOUS
 10
-3.908833
 20
-9.236949
  0
VERTEX
  8
LAYER_1
 62
    39
  6
CONTINUOUS
 10
-4.021295
 20
-9.133787
  0
VERTEX
  8
LAYER_1
 62
    39
  6
CONTINUOUS
 10
-4.159162
 20
-9.065763
  0
VERTEX
  8
LAYER_1
 62
    39
  6
CONTINUOUS
 10
-4.315802
 20
-9.037880
  0
VERTEX
  8
LAYER_1
 62
    39
  6
CONTINUOUS
 10
-4.491133
 20
-9.050107
  0
VERTEX
  8
LAYER_1
 62
    39
  6
CONTINUOUS
 10
-4.685075
 20
-9.102413
  0
VERTEX
  8
LAYER_1
 62
    39
  6
CONTINUOUS
 10
-4.807492
 20
-9.152484
  0
VERTEX
  8
LAYER_1
 62
    39
  6
CONTINUOUS
 10
-4.924228
 20
-9.213527
  0
VERTEX
  8
LAYER_1
 62
    39
  6
CONTINUOUS
 10
-5.035284
 20
-9.285552
  0
VERTEX
  8
LAYER_1
 62
    39
  6
CONTINUOUS
 10
-5.140660
 20
-9.368567
  0
VERTEX
  8
LAYER_1
 62
    39
  6
CONTINUOUS
 10
-5.240355
 20
-9.462581
  0
VERTEX
  8
LAYER_1
 62
    39
  6
CONTINUOUS
 10
-5.334369
 20
-9.567603
  0
VERTEX
  8
LAYER_1
 62
    39
  6
CONTINUOUS
 10
-5.422702
 20
-9.683641
  0
VERTEX
  8
LAYER_1
 62
    39
  6
CONTINUOUS
 10
-5.505355
 20
-9.810703
  0
VERTEX
  8
LAYER_1
 62
    39
  6
CONTINUOUS
 10
-5.582327
 20
-9.948799
  0
VERTEX
  8
LAYER_1
 62
    39
  6
CONTINUOUS
 10
-5.582327
 20
-9.948799
  0
VERTEX
  8
LAYER_1
 62
    39
  6
CONTINUOUS
 10
-5.640214
 20
-10.068351
  0
VERTEX
  8
LAYER_1
 62
    39
  6
CONTINUOUS
 10
-5.692569
 20
-10.192015
  0
VERTEX
  8
LAYER_1
 62
    39
  6
CONTINUOUS
 10
-5.739397
 20
-10.319800
  0
VERTEX
  8
LAYER_1
 62
    39
  6
CONTINUOUS
 10
-5.780701
 20
-10.451717
  0
VERTEX
  8
LAYER_1
 62
    39
  6
CONTINUOUS
 10
-5.816485
 20
-10.587777
  0
VERTEX
  8
LAYER_1
 62
    39
  6
CONTINUOUS
 10
-5.846753
 20
-10.727991
  0
VERTEX
  8
LAYER_1
 62
    39
  6
CONTINUOUS
 10
-5.871510
 20
-10.872369
  0
VERTEX
  8
LAYER_1
 62
    39
  6
CONTINUOUS
 10
-5.890758
 20
-11.020923
  0
VERTEX
  8
LAYER_1
 62
    39
  6
CONTINUOUS
 10
-5.904502
 20
-11.173662
  0
VERTEX
  8
LAYER_1
 62
    39
  6
CONTINUOUS
 10
-5.912745
 20
-11.330597
  0
VERTEX
  8
LAYER_1
 62
    39
  6
CONTINUOUS
 10
-5.915492
 20
-11.491740
  0
VERTEX
  8
LAYER_1
 62
    39
  6
CONTINUOUS
 10
-5.911675
 20
-11.676653
  0
VERTEX
  8
LAYER_1
 62
    39
  6
CONTINUOUS
 10
-5.900228
 20
-11.849628
  0
VERTEX
  8
LAYER_1
 62
    39
  6
CONTINUOUS
 10
-5.881158
 20
-12.010668
  0
VERTEX
  8
LAYER_1
 62
    39
  6
CONTINUOUS
 10
-5.854472
 20
-12.159776
  0
VERTEX
  8
LAYER_1
 62
    39
  6
CONTINUOUS
 10
-5.820177
 20
-12.296954
  0
VERTEX
  8
LAYER_1
 62
    39
  6
CONTINUOUS
 10
-5.778279
 20
-12.422204
  0
VERTEX
  8
LAYER_1
 62
    39
  6
CONTINUOUS
 10
-5.728786
 20
-12.535529
  0
VERTEX
  8
LAYER_1
 62
    39
  6
CONTINUOUS
 10
-5.671703
 20
-12.636932
  0
VERTEX
  8
LAYER_1
 62
    39
  6
CONTINUOUS
 10
-5.607039
 20
-12.726413
  0
VERTEX
  8
LAYER_1
 62
    39
  6
CONTINUOUS
 10
-5.497684
 20
-12.835399
  0
VERTEX
  8
LAYER_1
 62
    39
  6
CONTINUOUS
 10
-5.374955
 20
-12.912797
  0
VERTEX
  8
LAYER_1
 62
    39
  6
CONTINUOUS
 10
-5.238830
 20
-12.958568
  0
VERTEX
  8
LAYER_1
 62
    39
  6
CONTINUOUS
 10
-5.089284
 20
-12.972676
  0
VERTEX
  8
LAYER_1
 62
    39
  6
CONTINUOUS
 10
-4.926293
 20
-12.955083
  0
VERTEX
  8
LAYER_1
 62
    39
  6
CONTINUOUS
 10
-4.749835
 20
-12.905752
  0
VERTEX
  8
LAYER_1
 62
    39
  6
CONTINUOUS
 10
-4.600230
 20
-12.843946
  0
VERTEX
  8
LAYER_1
 62
    39
  6
CONTINUOUS
 10
-4.460756
 20
-12.768658
  0
VERTEX
  8
LAYER_1
 62
    39
  6
CONTINUOUS
 10
-4.331460
 20
-12.679933
  0
VERTEX
  8
LAYER_1
 62
    39
  6
CONTINUOUS
 10
-4.212388
 20
-12.577817
  0
VERTEX
  8
LAYER_1
 62
    39
  6
CONTINUOUS
 10
-4.103589
 20
-12.462356
  0
VERTEX
  8
LAYER_1
 62
    39
  6
CONTINUOUS
 10
-4.005110
 20
-12.333594
  0
VERTEX
  8
LAYER_1
 62
    39
  6
CONTINUOUS
 10
-3.919191
 20
-12.195384
  0
VERTEX
  8
LAYER_1
 62
    39
  6
CONTINUOUS
 10
-3.848893
 20
-12.051872
  0
VERTEX
  8
LAYER_1
 62
    39
  6
CONTINUOUS
 10
-3.794216
 20
-11.903085
  0
VERTEX
  8
LAYER_1
 62
    39
  6
CONTINUOUS
 10
-3.755161
 20
-11.749052
  0
VERTEX
  8
LAYER_1
 62
    39
  6
CONTINUOUS
 10
-3.731728
 20
-11.589803
  0
VERTEX
  8
LAYER_1
 62
    39
  6
CONTINUOUS
 10
-3.723917
 20
-11.425366
  0
VERTEX
  8
LAYER_1
 62
    39
  6
CONTINUOUS
 10
-3.727010
 20
-11.306552
  0
VERTEX
  8
LAYER_1
 62
    39
  6
CONTINUOUS
 10
-3.736164
 20
-11.209720
  0
VERTEX
  8
LAYER_1
 62
    39
  6
CONTINUOUS
 10
-3.751189
 20
-11.135264
  0
VERTEX
  8
LAYER_1
 62
    39
  6
CONTINUOUS
 10
-3.772521
 20
-11.084801
  0
VERTEX
  8
LAYER_1
 62
    39
  6
CONTINUOUS
 10
-3.799155
 20
-11.059280
  0
VERTEX
  8
LAYER_1
 62
    39
  6
CONTINUOUS
 10
-3.831280
 20
-11.058996
  0
VERTEX
  8
LAYER_1
 62
    39
  6
CONTINUOUS
 10
-3.836678
 20
-11.065720
  0
VERTEX
  8
LAYER_1
 62
    39
  6
CONTINUOUS
 10
-3.842643
 20
-11.082098
  0
VERTEX
  8
LAYER_1
 62
    39
  6
CONTINUOUS
 10
-3.849173
 20
-11.107898
  0
VERTEX
  8
LAYER_1
 62
    39
  6
CONTINUOUS
 10
-3.898091
 20
-11.277768
  0
VERTEX
  8
LAYER_1
 62
    39
  6
CONTINUOUS
 10
-3.975223
 20
-11.447078
  0
VERTEX
  8
LAYER_1
 62
    39
  6
CONTINUOUS
 10
-4.080949
 20
-11.615728
  0
VERTEX
  8
LAYER_1
 62
    39
  6
CONTINUOUS
 10
-4.155109
 20
-11.707448
  0
VERTEX
  8
LAYER_1
 62
    39
  6
CONTINUOUS
 10
-4.237981
 20
-11.791662
  0
VERTEX
  8
LAYER_1
 62
    39
  6
CONTINUOUS
 10
-4.329752
 20
-11.868209
  0
VERTEX
  8
LAYER_1
 62
    39
  6
CONTINUOUS
 10
-4.427491
 20
-11.935121
  0
VERTEX
  8
LAYER_1
 62
    39
  6
CONTINUOUS
 10
-4.529963
 20
-11.991038
  0
VERTEX
  8
LAYER_1
 62
    39
  6
CONTINUOUS
 10
-4.637358
 20
-12.035795
  0
VERTEX
  8
LAYER_1
 62
    39
  6
CONTINUOUS
 10
-4.793796
 20
-12.078341
  0
VERTEX
  8
LAYER_1
 62
    39
  6
CONTINUOUS
 10
-4.930542
 20
-12.087596
  0
VERTEX
  8
LAYER_1
 62
    39
  6
CONTINUOUS
 10
-5.047217
 20
-12.063425
  0
VERTEX
  8
LAYER_1
 62
    39
  6
CONTINUOUS
 10
-5.081575
 20
-12.047656
  0
VERTEX
  8
LAYER_1
 62
    39
  6
CONTINUOUS
 10
-5.111804
 20
-12.028782
  0
VERTEX
  8
LAYER_1
 62
    39
  6
CONTINUOUS
 10
-5.137882
 20
-12.006811
  0
VERTEX
  8
LAYER_1
 62
    39
  6
CONTINUOUS
 10
-5.193954
 20
-11.955767
  0
VERTEX
  8
LAYER_1
 62
    39
  6
CONTINUOUS
 10
-5.239266
 20
-11.859556
  0
VERTEX
  8
LAYER_1
 62
    39
  6
CONTINUOUS
 10
-5.274560
 20
-11.728215
  0
VERTEX
  8
LAYER_1
 62
    39
  6
CONTINUOUS
 10
-5.300577
 20
-11.571780
  0
VERTEX
  8
LAYER_1
 62
    39
  6
CONTINUOUS
 10
-5.318058
 20
-11.400286
  0
VERTEX
  8
LAYER_1
 62
    39
  6
CONTINUOUS
 10
-5.327744
 20
-11.223772
  0
VERTEX
  8
LAYER_1
 62
    39
  6
CONTINUOUS
 10
-5.330376
 20
-11.052272
  0
VERTEX
  8
LAYER_1
 62
    39
  6
CONTINUOUS
 10
-5.326695
 20
-10.895824
  0
VERTEX
  8
LAYER_1
 62
    39
  6
CONTINUOUS
 10
-5.317442
 20
-10.764464
  0
VERTEX
  8
LAYER_1
 62
    39
  6
CONTINUOUS
 10
-5.303358
 20
-10.668228
  0
SEQEND
  8
0
  0
POLYLINE
  8
LAYER_1
 62
    39
  6
CONTINUOUS
 66
     1
 40
0.013890
 41
0.013890
  0
VERTEX
  8
LAYER_1
 62
    39
  6
CONTINUOUS
 10
1.848268
 20
-9.632295
  0
VERTEX
  8
LAYER_1
 62
    39
  6
CONTINUOUS
 10
1.854640
 20
-9.443920
  0
VERTEX
  8
LAYER_1
 62
    39
  6
CONTINUOUS
 10
1.873730
 20
-9.274726
  0
VERTEX
  8
LAYER_1
 62
    39
  6
CONTINUOUS
 10
1.905495
 20
-9.124802
  0
VERTEX
  8
LAYER_1
 62
    39
  6
CONTINUOUS
 10
1.949894
 20
-8.994238
  0
VERTEX
  8
LAYER_1
 62
    39
  6
CONTINUOUS
 10
2.006886
 20
-8.883122
  0
VERTEX
  8
LAYER_1
 62
    39
  6
CONTINUOUS
 10
2.056719
 20
-8.813926
  0
VERTEX
  8
LAYER_1
 62
    39
  6
CONTINUOUS
 10
2.111369
 20
-8.759189
  0
VERTEX
  8
LAYER_1
 62
    39
  6
CONTINUOUS
 10
2.170835
 20
-8.718886
  0
VERTEX
  8
LAYER_1
 62
    39
  6
CONTINUOUS
 10
2.144024
 20
-7.994799
  0
VERTEX
  8
LAYER_1
 62
    39
  6
CONTINUOUS
 10
1.977672
 20
-8.022891
  0
VERTEX
  8
LAYER_1
 62
    39
  6
CONTINUOUS
 10
1.825282
 20
-8.087280
  0
VERTEX
  8
LAYER_1
 62
    39
  6
CONTINUOUS
 10
1.686857
 20
-8.187971
  0
VERTEX
  8
LAYER_1
 62
    39
  6
CONTINUOUS
 10
1.562398
 20
-8.324969
  0
VERTEX
  8
LAYER_1
 62
    39
  6
CONTINUOUS
 10
1.493254
 20
-8.426963
  0
VERTEX
  8
LAYER_1
 62
    39
  6
CONTINUOUS
 10
1.432244
 20
-8.539560
  0
VERTEX
  8
LAYER_1
 62
    39
  6
CONTINUOUS
 10
1.379370
 20
-8.662743
  0
VERTEX
  8
LAYER_1
 62
    39
  6
CONTINUOUS
 10
1.334630
 20
-8.796495
  0
VERTEX
  8
LAYER_1
 62
    39
  6
CONTINUOUS
 10
1.298025
 20
-8.940797
  0
VERTEX
  8
LAYER_1
 62
    39
  6
CONTINUOUS
 10
1.269554
 20
-9.095635
  0
VERTEX
  8
LAYER_1
 62
    39
  6
CONTINUOUS
 10
1.249218
 20
-9.260989
  0
VERTEX
  8
LAYER_1
 62
    39
  6
CONTINUOUS
 10
1.237016
 20
-9.436843
  0
VERTEX
  8
LAYER_1
 62
    39
  6
CONTINUOUS
 10
1.232949
 20
-9.623181
  0
VERTEX
  8
LAYER_1
 62
    39
  6
CONTINUOUS
 10
1.236164
 20
-9.789109
  0
VERTEX
  8
LAYER_1
 62
    39
  6
CONTINUOUS
 10
1.245806
 20
-9.950147
  0
VERTEX
  8
LAYER_1
 62
    39
  6
CONTINUOUS
 10
1.261870
 20
-10.106289
  0
VERTEX
  8
LAYER_1
 62
    39
  6
CONTINUOUS
 10
1.284350
 20
-10.257526
  0
VERTEX
  8
LAYER_1
 62
    39
  6
CONTINUOUS
 10
1.313241
 20
-10.403852
  0
VERTEX
  8
LAYER_1
 62
    39
  6
CONTINUOUS
 10
1.348538
 20
-10.545259
  0
VERTEX
  8
LAYER_1
 62
    39
  6
CONTINUOUS
 10
1.390236
 20
-10.681740
  0
VERTEX
  8
LAYER_1
 62
    39
  6
CONTINUOUS
 10
1.438329
 20
-10.813286
  0
VERTEX
  8
LAYER_1
 62
    39
  6
CONTINUOUS
 10
1.492812
 20
-10.939891
  0
VERTEX
  8
LAYER_1
 62
    39
  6
CONTINUOUS
 10
1.553681
 20
-11.061547
  0
VERTEX
  8
LAYER_1
 62
    39
  6
CONTINUOUS
 10
1.638594
 20
-11.205912
  0
VERTEX
  8
LAYER_1
 62
    39
  6
CONTINUOUS
 10
1.729957
 20
-11.335072
  0
VERTEX
  8
LAYER_1
 62
    39
  6
CONTINUOUS
 10
1.827761
 20
-11.449023
  0
VERTEX
  8
LAYER_1
 62
    39
  6
CONTINUOUS
 10
1.931994
 20
-11.547766
  0
VERTEX
  8
LAYER_1
 62
    39
  6
CONTINUOUS
 10
2.042646
 20
-11.631296
  0
VERTEX
  8
LAYER_1
 62
    39
  6
CONTINUOUS
 10
2.159705
 20
-11.699614
  0
VERTEX
  8
LAYER_1
 62
    39
  6
CONTINUOUS
 10
2.283161
 20
-11.752717
  0
VERTEX
  8
LAYER_1
 62
    39
  6
CONTINUOUS
 10
2.246587
 20
-10.764835
  0
VERTEX
  8
LAYER_1
 62
    39
  6
CONTINUOUS
 10
2.155194
 20
-10.684796
  0
VERTEX
  8
LAYER_1
 62
    39
  6
CONTINUOUS
 10
2.073826
 20
-10.580722
  0
VERTEX
  8
LAYER_1
 62
    39
  6
CONTINUOUS
 10
2.002528
 20
-10.452673
  0
VERTEX
  8
LAYER_1
 62
    39
  6
CONTINUOUS
 10
1.946995
 20
-10.315055
  0
VERTEX
  8
LAYER_1
 62
    39
  6
CONTINUOUS
 10
1.903802
 20
-10.164258
  0
VERTEX
  8
LAYER_1
 62
    39
  6
CONTINUOUS
 10
1.872950
 20
-10.000233
  0
VERTEX
  8
LAYER_1
 62
    39
  6
CONTINUOUS
 10
1.854438
 20
-9.822929
  0
VERTEX
  8
LAYER_1
 62
    39
  6
CONTINUOUS
 10
1.848268
 20
-9.632295
  0
SEQEND
  8
0
  0
POLYLINE
  8
LAYER_1
 62
    39
  6
CONTINUOUS
 66
     1
 40
0.013890
 41
0.013890
  0
VERTEX
  8
LAYER_1
 62
    39
  6
CONTINUOUS
 10
2.984772
 20
-9.871016
  0
VERTEX
  8
LAYER_1
 62
    39
  6
CONTINUOUS
 10
2.978399
 20
-10.060423
  0
VERTEX
  8
LAYER_1
 62
    39
  6
CONTINUOUS
 10
2.959308
 20
-10.231592
  0
VERTEX
  8
LAYER_1
 62
    39
  6
CONTINUOUS
 10
2.927541
 20
-10.384636
  0
VERTEX
  8
LAYER_1
 62
    39
  6
CONTINUOUS
 10
2.883140
 20
-10.519664
  0
VERTEX
  8
LAYER_1
 62
    39
  6
CONTINUOUS
 10
2.826146
 20
-10.636787
  0
VERTEX
  8
LAYER_1
 62
    39
  6
CONTINUOUS
 10
2.766329
 20
-10.722886
  0
VERTEX
  8
LAYER_1
 62
    39
  6
CONTINUOUS
 10
2.700722
 20
-10.787590
  0
VERTEX
  8
LAYER_1
 62
    39
  6
CONTINUOUS
 10
2.629299
 20
-10.830909
  0
VERTEX
  8
LAYER_1
 62
    39
  6
CONTINUOUS
 10
2.665713
 20
-11.814421
  0
VERTEX
  8
LAYER_1
 62
    39
  6
CONTINUOUS
 10
2.835095
 20
-11.785363
  0
VERTEX
  8
LAYER_1
 62
    39
  6
CONTINUOUS
 10
2.990947
 20
-11.716888
  0
VERTEX
  8
LAYER_1
 62
    39
  6
CONTINUOUS
 10
3.133236
 20
-11.608943
  0
VERTEX
  8
LAYER_1
 62
    39
  6
CONTINUOUS
 10
3.261925
 20
-11.461476
  0
VERTEX
  8
LAYER_1
 62
    39
  6
CONTINUOUS
 10
3.325254
 20
-11.365822
  0
VERTEX
  8
LAYER_1
 62
    39
  6
CONTINUOUS
 10
3.381893
 20
-11.261841
  0
VERTEX
  8
LAYER_1
 62
    39
  6
CONTINUOUS
 10
3.431850
 20
-11.149520
  0
VERTEX
  8
LAYER_1
 62
    39
  6
CONTINUOUS
 10
3.475129
 20
-11.028850
  0
VERTEX
  8
LAYER_1
 62
    39
  6
CONTINUOUS
 10
3.511735
 20
-10.899818
  0
VERTEX
  8
LAYER_1
 62
    39
  6
CONTINUOUS
 10
3.541673
 20
-10.762414
  0
VERTEX
  8
LAYER_1
 62
    39
  6
CONTINUOUS
 10
3.564950
 20
-10.616626
  0
VERTEX
  8
LAYER_1
 62
    39
  6
CONTINUOUS
 10
3.581569
 20
-10.462444
  0
VERTEX
  8
LAYER_1
 62
    39
  6
CONTINUOUS
 10
3.591537
 20
-10.299856
  0
VERTEX
  8
LAYER_1
 62
    39
  6
CONTINUOUS
 10
3.594858
 20
-10.128850
  0
VERTEX
  8
LAYER_1
 62
    39
  6
CONTINUOUS
 10
3.591668
 20
-9.966664
  0
VERTEX
  8
LAYER_1
 62
    39
  6
CONTINUOUS
 10
3.582099
 20
-9.809384
  0
VERTEX
  8
LAYER_1
 62
    39
  6
CONTINUOUS
 10
3.566149
 20
-9.657025
  0
VERTEX
  8
LAYER_1
 62
    39
  6
CONTINUOUS
 10
3.543820
 20
-9.509597
  0
VERTEX
  8
LAYER_1
 62
    39
  6
CONTINUOUS
 10
3.515111
 20
-9.367114
  0
VERTEX
  8
LAYER_1
 62
    39
  6
CONTINUOUS
 10
3.480022
 20
-9.229588
  0
VERTEX
  8
LAYER_1
 62
    39
  6
CONTINUOUS
 10
3.438553
 20
-9.097031
  0
VERTEX
  8
LAYER_1
 62
    39
  6
CONTINUOUS
 10
3.390705
 20
-8.969456
  0
VERTEX
  8
LAYER_1
 62
    39
  6
CONTINUOUS
 10
3.336478
 20
-8.846874
  0
VERTEX
  8
LAYER_1
 62
    39
  6
CONTINUOUS
 10
3.275870
 20
-8.729299
  0
VERTEX
  8
LAYER_1
 62
    39
  6
CONTINUOUS
 10
3.189014
 20
-8.586403
  0
VERTEX
  8
LAYER_1
 62
    39
  6
CONTINUOUS
 10
3.095379
 20
-8.458782
  0
VERTEX
  8
LAYER_1
 62
    39
  6
CONTINUOUS
 10
2.994989
 20
-8.346454
  0
VERTEX
  8
LAYER_1
 62
    39
  6
CONTINUOUS
 10
2.887868
 20
-8.249439
  0
VERTEX
  8
LAYER_1
 62
    39
  6
CONTINUOUS
 10
2.774041
 20
-8.167755
  0
VERTEX
  8
LAYER_1
 62
    39
  6
CONTINUOUS
 10
2.653531
 20
-8.101423
  0
VERTEX
  8
LAYER_1
 62
    39
  6
CONTINUOUS
 10
2.526362
 20
-8.050461
  0
VERTEX
  8
LAYER_1
 62
    39
  6
CONTINUOUS
 10
2.552008
 20
-8.743248
  0
VERTEX
  8
LAYER_1
 62
    39
  6
CONTINUOUS
 10
2.656791
 20
-8.822626
  0
VERTEX
  8
LAYER_1
 62
    39
  6
CONTINUOUS
 10
2.749891
 20
-8.933799
  0
VERTEX
  8
LAYER_1
 62
    39
  6
CONTINUOUS
 10
2.831378
 20
-9.076791
  0
VERTEX
  8
LAYER_1
 62
    39
  6
CONTINUOUS
 10
2.886487
 20
-9.210909
  0
VERTEX
  8
LAYER_1
 62
    39
  6
CONTINUOUS
 10
2.929423
 20
-9.357551
  0
VERTEX
  8
LAYER_1
 62
    39
  6
CONTINUOUS
 10
2.960144
 20
-9.516556
  0
VERTEX
  8
LAYER_1
 62
    39
  6
CONTINUOUS
 10
2.978608
 20
-9.687764
  0
VERTEX
  8
LAYER_1
 62
    39
  6
CONTINUOUS
 10
2.984772
 20
-9.871016
  0
SEQEND
  8
0
  0
POLYLINE
  8
LAYER_1
 62
    39
  6
CONTINUOUS
 66
     1
 40
0.013890
 41
0.013890
  0
VERTEX
  8
LAYER_1
 62
    39
  6
CONTINUOUS
 10
9.507457
 20
-10.250984
  0
VERTEX
  8
LAYER_1
 62
    39
  6
CONTINUOUS
 10
9.620718
 20
-10.042029
  0
VERTEX
  8
LAYER_1
 62
    39
  6
CONTINUOUS
 10
9.746966
 20
-9.878867
  0
VERTEX
  8
LAYER_1
 62
    39
  6
CONTINUOUS
 10
9.886201
 20
-9.761728
  0
VERTEX
  8
LAYER_1
 62
    39
  6
CONTINUOUS
 10
9.983356
 20
-9.710402
  0
VERTEX
  8
LAYER_1
 62
    39
  6
CONTINUOUS
 10
10.067522
 20
-9.690050
  0
VERTEX
  8
LAYER_1
 62
    39
  6
CONTINUOUS
 10
10.138701
 20
-9.700445
  0
VERTEX
  8
LAYER_1
 62
    39
  6
CONTINUOUS
 10
10.192500
 20
-9.739990
  0
VERTEX
  8
LAYER_1
 62
    39
  6
CONTINUOUS
 10
10.224652
 20
-9.806879
  0
VERTEX
  8
LAYER_1
 62
    39
  6
CONTINUOUS
 10
10.235331
 20
-9.900539
  0
VERTEX
  8
LAYER_1
 62
    39
  6
CONTINUOUS
 10
10.230396
 20
-9.975035
  0
VERTEX
  8
LAYER_1
 62
    39
  6
CONTINUOUS
 10
10.215591
 20
-10.047372
  0
VERTEX
  8
LAYER_1
 62
    39
  6
CONTINUOUS
 10
10.190913
 20
-10.118012
  0
VERTEX
  8
LAYER_1
 62
    39
  6
CONTINUOUS
 10
10.156103
 20
-10.187506
  0
VERTEX
  8
LAYER_1
 62
    39
  6
CONTINUOUS
 10
10.110901
 20
-10.256100
  0
VERTEX
  8
LAYER_1
 62
    39
  6
CONTINUOUS
 10
10.055311
 20
-10.323791
  0
VERTEX
  8
LAYER_1
 62
    39
  6
CONTINUOUS
 10
9.717039
 20
-10.692634
  0
VERTEX
  8
LAYER_1
 62
    39
  6
CONTINUOUS
 10
9.733807
 20
-11.320260
  0
VERTEX
  8
LAYER_1
 62
    39
  6
CONTINUOUS
 10
9.782875
 20
-11.272095
  0
VERTEX
  8
LAYER_1
 62
    39
  6
CONTINUOUS
 10
9.841769
 20
-11.222594
  0
VERTEX
  8
LAYER_1
 62
    39
  6
CONTINUOUS
 10
9.895551
 20
-11.171744
  0
VERTEX
  8
LAYER_1
 62
    39
  6
CONTINUOUS
 10
10.001021
 20
-11.053884
  0
VERTEX
  8
LAYER_1
 62
    39
  6
CONTINUOUS
 10
10.089864
 20
-10.952979
  0
VERTEX
  8
LAYER_1
 62
    39
  6
CONTINUOUS
 10
10.162079
 20
-10.869028
  0
VERTEX
  8
LAYER_1
 62
    39
  6
CONTINUOUS
 10
10.280565
 20
-10.723095
  0
VERTEX
  8
LAYER_1
 62
    39
  6
CONTINUOUS
 10
10.385397
 20
-10.580248
  0
VERTEX
  8
LAYER_1
 62
    39
  6
CONTINUOUS
 10
10.476576
 20
-10.440486
  0
VERTEX
  8
LAYER_1
 62
    39
  6
CONTINUOUS
 10
10.554101
 20
-10.303809
  0
VERTEX
  8
LAYER_1
 62
    39
  6
CONTINUOUS
 10
10.617972
 20
-10.170217
  0
VERTEX
  8
LAYER_1
 62
    39
  6
CONTINUOUS
 10
10.680366
 20
-10.004862
  0
VERTEX
  8
LAYER_1
 62
    39
  6
CONTINUOUS
 10
10.724933
 20
-9.837299
  0
VERTEX
  8
LAYER_1
 62
    39
  6
CONTINUOUS
 10
10.751673
 20
-9.667430
  0
VERTEX
  8
LAYER_1
 62
    39
  6
CONTINUOUS
 10
10.760587
 20
-9.495157
  0
VERTEX
  8
LAYER_1
 62
    39
  6
CONTINUOUS
 10
10.745841
 20
-9.304295
  0
VERTEX
  8
LAYER_1
 62
    39
  6
CONTINUOUS
 10
10.701652
 20
-9.151690
  0
VERTEX
  8
LAYER_1
 62
    39
  6
CONTINUOUS
 10
10.628091
 20
-9.037101
  0
VERTEX
  8
LAYER_1
 62
    39
  6
CONTINUOUS
 10
10.525232
 20
-8.960287
  0
VERTEX
  8
LAYER_1
 62
    39
  6
CONTINUOUS
 10
10.399145
 20
-8.924567
  0
VERTEX
  8
LAYER_1
 62
    39
  6
CONTINUOUS
 10
10.255887
 20
-8.933381
  0
VERTEX
  8
LAYER_1
 62
    39
  6
CONTINUOUS
 10
10.095533
 20
-8.986684
  0
VERTEX
  8
LAYER_1
 62
    39
  6
CONTINUOUS
 10
9.918154
 20
-9.084429
  0
VERTEX
  8
LAYER_1
 62
    39
  6
CONTINUOUS
 10
9.806193
 20
-9.163180
  0
VERTEX
  8
LAYER_1
 62
    39
  6
CONTINUOUS
 10
9.699428
 20
-9.251574
  0
VERTEX
  8
LAYER_1
 62
    39
  6
CONTINUOUS
 10
9.597859
 20
-9.349619
  0
VERTEX
  8
LAYER_1
 62
    39
  6
CONTINUOUS
 10
9.501484
 20
-9.457323
  0
VERTEX
  8
LAYER_1
 62
    39
  6
CONTINUOUS
 10
9.410305
 20
-9.574695
  0
VERTEX
  8
LAYER_1
 62
    39
  6
CONTINUOUS
 10
9.324321
 20
-9.701744
  0
VERTEX
  8
LAYER_1
 62
    39
  6
CONTINUOUS
 10
9.243533
 20
-9.838477
  0
VERTEX
  8
LAYER_1
 62
    39
  6
CONTINUOUS
 10
9.167940
 20
-9.984905
  0
VERTEX
  8
LAYER_1
 62
    39
  6
CONTINUOUS
 10
9.097543
 20
-10.141035
  0
VERTEX
  8
LAYER_1
 62
    39
  6
CONTINUOUS
 10
9.048820
 20
-10.262950
  0
VERTEX
  8
LAYER_1
 62
    39
  6
CONTINUOUS
 10
9.004348
 20
-10.387229
  0
VERTEX
  8
LAYER_1
 62
    39
  6
CONTINUOUS
 10
8.964124
 20
-10.513882
  0
VERTEX
  8
LAYER_1
 62
    39
  6
CONTINUOUS
 10
8.928145
 20
-10.642917
  0
VERTEX
  8
LAYER_1
 62
    39
  6
CONTINUOUS
 10
8.896409
 20
-10.774343
  0
VERTEX
  8
LAYER_1
 62
    39
  6
CONTINUOUS
 10
8.868913
 20
-10.908170
  0
VERTEX
  8
LAYER_1
 62
    39
  6
CONTINUOUS
 10
8.845654
 20
-11.044406
  0
VERTEX
  8
LAYER_1
 62
    39
  6
CONTINUOUS
 10
8.826631
 20
-11.183060
  0
VERTEX
  8
LAYER_1
 62
    39
  6
CONTINUOUS
 10
8.811839
 20
-11.324141
  0
VERTEX
  8
LAYER_1
 62
    39
  6
CONTINUOUS
 10
8.801277
 20
-11.467658
  0
VERTEX
  8
LAYER_1
 62
    39
  6
CONTINUOUS
 10
8.794942
 20
-11.613620
  0
VERTEX
  8
LAYER_1
 62
    39
  6
CONTINUOUS
 10
8.792831
 20
-11.762035
  0
VERTEX
  8
LAYER_1
 62
    39
  6
CONTINUOUS
 10
8.797249
 20
-11.968089
  0
VERTEX
  8
LAYER_1
 62
    39
  6
CONTINUOUS
 10
8.810499
 20
-12.156773
  0
VERTEX
  8
LAYER_1
 62
    39
  6
CONTINUOUS
 10
8.832571
 20
-12.328094
  0
VERTEX
  8
LAYER_1
 62
    39
  6
CONTINUOUS
 10
8.863455
 20
-12.482056
  0
VERTEX
  8
LAYER_1
 62
    39
  6
CONTINUOUS
 10
8.903144
 20
-12.618666
  0
VERTEX
  8
LAYER_1
 62
    39
  6
CONTINUOUS
 10
8.951627
 20
-12.737930
  0
VERTEX
  8
LAYER_1
 62
    39
  6
CONTINUOUS
 10
9.008896
 20
-12.839853
  0
VERTEX
  8
LAYER_1
 62
    39
  6
CONTINUOUS
 10
9.074941
 20
-12.924441
  0
VERTEX
  8
LAYER_1
 62
    39
  6
CONTINUOUS
 10
9.174957
 20
-13.007805
  0
VERTEX
  8
LAYER_1
 62
    39
  6
CONTINUOUS
 10
9.287203
 20
-13.056448
  0
VERTEX
  8
LAYER_1
 62
    39
  6
CONTINUOUS
 10
9.411702
 20
-13.070326
  0
VERTEX
  8
LAYER_1
 62
    39
  6
CONTINUOUS
 10
9.548475
 20
-13.049397
  0
VERTEX
  8
LAYER_1
 62
    39
  6
CONTINUOUS
 10
9.697544
 20
-12.993618
  0
VERTEX
  8
LAYER_1
 62
    39
  6
CONTINUOUS
 10
9.858929
 20
-12.902945
  0
VERTEX
  8
LAYER_1
 62
    39
  6
CONTINUOUS
 10
9.976775
 20
-12.820606
  0
VERTEX
  8
LAYER_1
 62
    39
  6
CONTINUOUS
 10
10.087818
 20
-12.730099
  0
VERTEX
  8
LAYER_1
 62
    39
  6
CONTINUOUS
 10
10.192031
 20
-12.631461
  0
VERTEX
  8
LAYER_1
 62
    39
  6
CONTINUOUS
 10
10.289387
 20
-12.524726
  0
VERTEX
  8
LAYER_1
 62
    39
  6
CONTINUOUS
 10
10.379859
 20
-12.409931
  0
VERTEX
  8
LAYER_1
 62
    39
  6
CONTINUOUS
 10
10.463420
 20
-12.287111
  0
VERTEX
  8
LAYER_1
 62
    39
  6
CONTINUOUS
 10
10.540043
 20
-12.156303
  0
VERTEX
  8
LAYER_1
 62
    39
  6
CONTINUOUS
 10
10.540043
 20
-12.156303
  0
VERTEX
  8
LAYER_1
 62
    39
  6
CONTINUOUS
 10
10.608271
 20
-12.020685
  0
VERTEX
  8
LAYER_1
 62
    39
  6
CONTINUOUS
 10
10.666003
 20
-11.883857
  0
VERTEX
  8
LAYER_1
 62
    39
  6
CONTINUOUS
 10
10.713238
 20
-11.745837
  0
VERTEX
  8
LAYER_1
 62
    39
  6
CONTINUOUS
 10
10.749977
 20
-11.606643
  0
VERTEX
  8
LAYER_1
 62
    39
  6
CONTINUOUS
 10
10.776219
 20
-11.466292
  0
VERTEX
  8
LAYER_1
 62
    39
  6
CONTINUOUS
 10
10.791964
 20
-11.324804
  0
VERTEX
  8
LAYER_1
 62
    39
  6
CONTINUOUS
 10
10.797213
 20
-11.182197
  0
VERTEX
  8
LAYER_1
 62
    39
  6
CONTINUOUS
 10
10.794383
 20
-11.064107
  0
VERTEX
  8
LAYER_1
 62
    39
  6
CONTINUOUS
 10
10.786013
 20
-10.969418
  0
VERTEX
  8
LAYER_1
 62
    39
  6
CONTINUOUS
 10
10.772276
 20
-10.898480
  0
VERTEX
  8
LAYER_1
 62
    39
  6
CONTINUOUS
 10
10.752764
 20
-10.853019
  0
VERTEX
  8
LAYER_1
 62
    39
  6
CONTINUOUS
 10
10.728403
 20
-10.833738
  0
VERTEX
  8
LAYER_1
 62
    39
  6
CONTINUOUS
 10
10.699020
 20
-10.840980
  0
VERTEX
  8
LAYER_1
 62
    39
  6
CONTINUOUS
 10
10.694085
 20
-10.848969
  0
VERTEX
  8
LAYER_1
 62
    39
  6
CONTINUOUS
 10
10.688628
 20
-10.866745
  0
VERTEX
  8
LAYER_1
 62
    39
  6
CONTINUOUS
 10
10.682654
 20
-10.894075
  0
VERTEX
  8
LAYER_1
 62
    39
  6
CONTINUOUS
 10
10.637916
 20
-11.075406
  0
VERTEX
  8
LAYER_1
 62
    39
  6
CONTINUOUS
 10
10.567376
 20
-11.262788
  0
VERTEX
  8
LAYER_1
 62
    39
  6
CONTINUOUS
 10
10.470685
 20
-11.456209
  0
VERTEX
  8
LAYER_1
 62
    39
  6
CONTINUOUS
 10
10.402855
 20
-11.565301
  0
VERTEX
  8
LAYER_1
 62
    39
  6
CONTINUOUS
 10
10.327061
 20
-11.668930
  0
VERTEX
  8
LAYER_1
 62
    39
  6
CONTINUOUS
 10
10.243126
 20
-11.766980
  0
VERTEX
  8
LAYER_1
 62
    39
  6
CONTINUOUS
 10
10.153736
 20
-11.856790
  0
VERTEX
  8
LAYER_1
 62
    39
  6
CONTINUOUS
 10
10.060016
 20
-11.936715
  0
VERTEX
  8
LAYER_1
 62
    39
  6
CONTINUOUS
 10
9.961791
 20
-12.006638
  0
VERTEX
  8
LAYER_1
 62
    39
  6
CONTINUOUS
 10
9.818721
 20
-12.085832
  0
VERTEX
  8
LAYER_1
 62
    39
  6
CONTINUOUS
 10
9.693657
 20
-12.127122
  0
VERTEX
  8
LAYER_1
 62
    39
  6
CONTINUOUS
 10
9.586949
 20
-12.130287
  0
VERTEX
  8
LAYER_1
 62
    39
  6
CONTINUOUS
 10
9.514160
 20
-12.092215
  0
VERTEX
  8
LAYER_1
 62
    39
  6
CONTINUOUS
 10
9.465276
 20
-12.036738
  0
VERTEX
  8
LAYER_1
 62
    39
  6
CONTINUOUS
 10
9.441484
 20
-12.008831
  0
VERTEX
  8
LAYER_1
 62
    39
  6
CONTINUOUS
 10
9.401646
 20
-11.964176
  0
VERTEX
  8
LAYER_1
 62
    39
  6
CONTINUOUS
 10
9.367743
 20
-11.891335
  0
VERTEX
  8
LAYER_1
 62
    39
  6
CONTINUOUS
 10
9.340200
 20
-11.793879
  0
VERTEX
  8
LAYER_1
 62
    39
  6
CONTINUOUS
 10
9.319437
 20
-11.675378
  0
VERTEX
  8
LAYER_1
 62
    39
  6
CONTINUOUS
 10
9.305879
 20
-11.539402
  0
VERTEX
  8
LAYER_1
 62
    39
  6
CONTINUOUS
 10
9.299947
 20
-11.389523
  0
VERTEX
  8
LAYER_1
 62
    39
  6
CONTINUOUS
 10
9.302064
 20
-11.229310
  0
VERTEX
  8
LAYER_1
 62
    39
  6
CONTINUOUS
 10
9.312652
 20
-11.062334
  0
VERTEX
  8
LAYER_1
 62
    39
  6
CONTINUOUS
 10
9.332135
 20
-10.892166
  0
VERTEX
  8
LAYER_1
 62
    39
  6
CONTINUOUS
 10
9.360934
 20
-10.722377
  0
VERTEX
  8
LAYER_1
 62
    39
  6
CONTINUOUS
 10
9.399473
 20
-10.556536
  0
VERTEX
  8
LAYER_1
 62
    39
  6
CONTINUOUS
 10
9.448173
 20
-10.398215
  0
VERTEX
  8
LAYER_1
 62
    39
  6
CONTINUOUS
 10
9.507457
 20
-10.250984
  0
SEQEND
  8
0
  0
ENDSEC
  0
EOF
